  0
SECTION
  2
HEADER
  9
$ACADVER
  1
AC1015
  9
$ACADMAINTVER
 70
     6
  9
$DWGCODEPAGE
  3
DOS932
  9
$INSBASE
 10
0.0
 20
0.0
 30
0.0
  9
$EXTMIN
 10
22.2619102158
 20
220.8716842634
 30
0.0
  9
$EXTMAX
 10
554.3239222163
 20
699.2852404392
 30
0.0
  9
$LIMMIN
 10
0.0
 20
0.0
  9
$LIMMAX
 10
420.0
 20
297.0
  9
$ORTHOMODE
 70
     0
  9
$REGENMODE
 70
     1
  9
$FILLMODE
 70
     1
  9
$QTEXTMODE
 70
     0
  9
$MIRRTEXT
 70
     1
  9
$LTSCALE
 40
1.0
  9
$ATTMODE
 70
     1
  9
$TEXTSIZE
 40
3.5
  9
$TRACEWID
 40
1.0
  9
$TEXTSTYLE
  7
Standard
  9
$CLAYER
  8
0
  9
$CELTYPE
  6
ByLayer
  9
$CECOLOR
 62
   256
  9
$CELTSCALE
 40
1.0
  9
$DISPSILH
 70
     0
  9
$DIMSCALE
 40
1.0
  9
$DIMASZ
 40
3.302
  9
$DIMEXO
 40
1.0
  9
$DIMDLI
 40
3.75
  9
$DIMRND
 40
0.0
  9
$DIMDLE
 40
0.0
  9
$DIMEXE
 40
1.0
  9
$DIMTP
 40
0.0
  9
$DIMTM
 40
0.0
  9
$DIMTXT
 40
3.5
  9
$DIMCEN
 40
2.5
  9
$DIMTSZ
 40
0.0
  9
$DIMTOL
 70
     0
  9
$DIMLIM
 70
     0
  9
$DIMTIH
 70
     1
  9
$DIMTOH
 70
     1
  9
$DIMSE1
 70
     0
  9
$DIMSE2
 70
     0
  9
$DIMTAD
 70
     1
  9
$DIMZIN
 70
     0
  9
$DIMBLK
  1

  9
$DIMASO
 70
     1
  9
$DIMSHO
 70
     1
  9
$DIMPOST
  1

  9
$DIMAPOST
  1

  9
$DIMALT
 70
     0
  9
$DIMALTD
 70
     3
  9
$DIMALTF
 40
0.0393700787
  9
$DIMLFAC
 40
1.0
  9
$DIMTOFL
 70
     1
  9
$DIMTVP
 40
0.0
  9
$DIMTIX
 70
     0
  9
$DIMSOXD
 70
     0
  9
$DIMSAH
 70
     0
  9
$DIMBLK1
  1

  9
$DIMBLK2
  1

  9
$DIMSTYLE
  2
ISO-25
  9
$DIMCLRD
 70
     0
  9
$DIMCLRE
 70
     0
  9
$DIMCLRT
 70
     0
  9
$DIMTFAC
 40
1.0
  9
$DIMGAP
 40
1.524
  9
$DIMJUST
 70
     0
  9
$DIMSD1
 70
     0
  9
$DIMSD2
 70
     0
  9
$DIMTOLJ
 70
     0
  9
$DIMTZIN
 70
     0
  9
$DIMALTZ
 70
     0
  9
$DIMALTTZ
 70
     0
  9
$DIMUPT
 70
     0
  9
$DIMDEC
 70
     2
  9
$DIMTDEC
 70
     2
  9
$DIMALTU
 70
     2
  9
$DIMALTTD
 70
     3
  9
$DIMTXSTY
  7
Standard
  9
$DIMAUNIT
 70
     0
  9
$DIMADEC
 70
     2
  9
$DIMALTRND
 40
0.0
  9
$DIMAZIN
 70
     0
  9
$DIMDSEP
 70
    44
  9
$DIMATFIT
 70
     3
  9
$DIMFRAC
 70
     0
  9
$DIMLDRBLK
  1

  9
$DIMLUNIT
 70
     2
  9
$DIMLWD
 70
    -2
  9
$DIMLWE
 70
    -2
  9
$DIMTMOVE
 70
     0
  9
$LUNITS
 70
     2
  9
$LUPREC
 70
     2
  9
$SKETCHINC
 40
1.0
  9
$FILLETRAD
 40
10.0
  9
$AUNITS
 70
     0
  9
$AUPREC
 70
     2
  9
$MENU
  1
.
  9
$ELEVATION
 40
0.0
  9
$PELEVATION
 40
0.0
  9
$THICKNESS
 40
0.0
  9
$LIMCHECK
 70
     0
  9
$CHAMFERA
 40
0.0
  9
$CHAMFERB
 40
0.0
  9
$CHAMFERC
 40
0.0
  9
$CHAMFERD
 40
0.0
  9
$SKPOLY
 70
     0
  9
$TDCREATE
 40
2458103.223562211
  9
$TDUCREATE
 40
2458102.848562211
  9
$TDUPDATE
 40
2458103.223613148
  9
$TDUUPDATE
 40
2458102.848613148
  9
$TDINDWG
 40
0.0000000116
  9
$TDUSRTIMER
 40
0.0000000116
  9
$USRTIMER
 70
     1
  9
$ANGBASE
 50
0.0
  9
$ANGDIR
 70
     0
  9
$PDMODE
 70
     0
  9
$PDSIZE
 40
-1.0
  9
$PLINEWID
 40
0.0
  9
$SPLFRAME
 70
     0
  9
$SPLINETYPE
 70
     6
  9
$SPLINESEGS
 70
     8
  9
$HANDSEED
  5
218
  9
$SURFTAB1
 70
     6
  9
$SURFTAB2
 70
     6
  9
$SURFTYPE
 70
     6
  9
$SURFU
 70
     6
  9
$SURFV
 70
     6
  9
$UCSBASE
  2

  9
$UCSNAME
  2

  9
$UCSORG
 10
0.0
 20
0.0
 30
0.0
  9
$UCSXDIR
 10
1.0
 20
0.0
 30
0.0
  9
$UCSYDIR
 10
0.0
 20
1.0
 30
0.0
  9
$UCSORTHOREF
  2

  9
$UCSORTHOVIEW
 70
     0
  9
$UCSORGTOP
 10
0.0
 20
0.0
 30
0.0
  9
$UCSORGBOTTOM
 10
0.0
 20
0.0
 30
0.0
  9
$UCSORGLEFT
 10
0.0
 20
0.0
 30
0.0
  9
$UCSORGRIGHT
 10
0.0
 20
0.0
 30
0.0
  9
$UCSORGFRONT
 10
0.0
 20
0.0
 30
0.0
  9
$UCSORGBACK
 10
0.0
 20
0.0
 30
0.0
  9
$PUCSBASE
  2

  9
$PUCSNAME
  2

  9
$PUCSORG
 10
0.0
 20
0.0
 30
0.0
  9
$PUCSXDIR
 10
1.0
 20
0.0
 30
0.0
  9
$PUCSYDIR
 10
0.0
 20
1.0
 30
0.0
  9
$PUCSORTHOREF
  2

  9
$PUCSORTHOVIEW
 70
     0
  9
$PUCSORGTOP
 10
0.0
 20
0.0
 30
0.0
  9
$PUCSORGBOTTOM
 10
0.0
 20
0.0
 30
0.0
  9
$PUCSORGLEFT
 10
0.0
 20
0.0
 30
0.0
  9
$PUCSORGRIGHT
 10
0.0
 20
0.0
 30
0.0
  9
$PUCSORGFRONT
 10
0.0
 20
0.0
 30
0.0
  9
$PUCSORGBACK
 10
0.0
 20
0.0
 30
0.0
  9
$USERI1
 70
     0
  9
$USERI2
 70
     0
  9
$USERI3
 70
     0
  9
$USERI4
 70
     0
  9
$USERI5
 70
     0
  9
$USERR1
 40
0.0
  9
$USERR2
 40
0.0
  9
$USERR3
 40
0.0
  9
$USERR4
 40
0.0
  9
$USERR5
 40
0.0
  9
$WORLDVIEW
 70
     1
  9
$SHADEDGE
 70
     3
  9
$SHADEDIF
 70
    70
  9
$TILEMODE
 70
     1
  9
$MAXACTVP
 70
    64
  9
$PINSBASE
 10
0.0
 20
0.0
 30
0.0
  9
$PLIMCHECK
 70
     0
  9
$PEXTMIN
 10
1.0000000000E+20
 20
1.0000000000E+20
 30
1.0000000000E+20
  9
$PEXTMAX
 10
-1.0000000000E+20
 20
-1.0000000000E+20
 30
-1.0000000000E+20
  9
$PLIMMIN
 10
0.0
 20
0.0
  9
$PLIMMAX
 10
420.0
 20
297.0
  9
$UNITMODE
 70
     0
  9
$VISRETAIN
 70
     1
  9
$PLINEGEN
 70
     0
  9
$PSLTSCALE
 70
     1
  9
$TREEDEPTH
 70
  3020
  9
$CMLSTYLE
  2
Standard
  9
$CMLJUST
 70
     0
  9
$CMLSCALE
 40
20.0
  9
$PROXYGRAPHICS
 70
     1
  9
$MEASUREMENT
 70
     1
  9
$CELWEIGHT
370
    -1
  9
$ENDCAPS
280
     0
  9
$JOINSTYLE
280
     0
  9
$LWDISPLAY
290
     1
  9
$INSUNITS
 70
     4
  9
$HYPERLINKBASE
  1

  9
$STYLESHEET
  1

  9
$XEDIT
290
     1
  9
$CEPSNTYPE
380
     0
  9
$PSTYLEMODE
290
     1
  9
$FINGERPRINTGUID
  2
{C8ACE125-75C2-4A6E-8CC0-29356EF375A9}
  9
$VERSIONGUID
  2
{FAEB1C32-E019-11D5-929B-00C0DF256EC4}
  9
$EXTNAMES
290
     1
  9
$PSVPSCALE
 40
0.0
  9
$OLESTARTUP
290
     0
  0
ENDSEC
  0
SECTION
  2
CLASSES
  0
CLASS
  1
ACDBDICTIONARYWDFLT
  2
AcDbDictionaryWithDefault
  3
ObjectDBX Classes
 90
        0
280
     0
281
     0
  0
CLASS
  1
VISUALSTYLE
  2
AcDbVisualStyle
  3
ObjectDBX Classes
 90
     4095
280
     0
281
     0
  0
CLASS
  1
MATERIAL
  2
AcDbMaterial
  3
ObjectDBX Classes
 90
     1153
280
     0
281
     0
  0
CLASS
  1
SCALE
  2
AcDbScale
  3
ObjectDBX Classes
 90
     1153
280
     0
281
     0
  0
CLASS
  1
TABLESTYLE
  2
AcDbTableStyle
  3
ObjectDBX Classes
 90
     4095
280
     0
281
     0
  0
CLASS
  1
MLEADERSTYLE
  2
AcDbMLeaderStyle
  3
ACDB_MLEADERSTYLE_CLASS
 90
     4095
280
     0
281
     0
  0
CLASS
  1
SUN
  2
AcDbSun
  3
SCENEOE
 90
     1153
280
     0
281
     0
  0
CLASS
  1
ACDBPLACEHOLDER
  2
AcDbPlaceHolder
  3
ObjectDBX Classes
 90
        0
280
     0
281
     0
  0
CLASS
  1
LAYOUT
  2
AcDbLayout
  3
ObjectDBX Classes
 90
        0
280
     0
281
     0
  0
ENDSEC
  0
SECTION
  2
TABLES
  0
TABLE
  2
VPORT
  5
8
330
0
100
AcDbSymbolTable
 70
     1
  0
VPORT
  5
29
330
8
100
AcDbSymbolTableRecord
100
AcDbViewportTableRecord
  2
*Active
 70
     0
 10
0.0
 20
0.0
 11
1.0
 21
1.0
 12
288.2929162161
 22
460.0784623513
 13
0.0
 23
0.0
 14
10.0
 24
10.0
 15
10.0
 25
10.0
 16
0.0
 26
0.0
 36
1.0
 17
0.0
 27
0.0
 37
0.0
 40
487.9818272993
 41
1.1121382434
 42
50.0
 43
0.0
 44
0.0
 50
0.0
 51
0.0
 71
     0
 72
   100
 73
     1
 74
     3
 75
     0
 76
     0
 77
     0
 78
     0
281
     0
 65
     1
110
0.0
120
0.0
130
0.0
111
1.0
121
0.0
131
0.0
112
0.0
122
1.0
132
0.0
 79
     0
146
0.0
  0
ENDTAB
  0
TABLE
  2
LTYPE
  5
5
330
0
100
AcDbSymbolTable
 70
     6
  0
LTYPE
  5
14
330
5
100
AcDbSymbolTableRecord
100
AcDbLinetypeTableRecord
  2
ByBlock
 70
     0
  3

 72
    65
 73
     0
 40
0.0
  0
LTYPE
  5
15
330
5
100
AcDbSymbolTableRecord
100
AcDbLinetypeTableRecord
  2
ByLayer
 70
     0
  3

 72
    65
 73
     0
 40
0.0
  0
LTYPE
  5
16
330
5
100
AcDbSymbolTableRecord
100
AcDbLinetypeTableRecord
  2
Continuous
 70
     0
  3
Solid line
 72
    65
 73
     0
 40
0.0
  0
LTYPE
  5
6E
330
5
100
AcDbSymbolTableRecord
100
AcDbLinetypeTableRecord
  2
HIDDEN
 70
     0
  3
Hidden __ __ __ __ __ __ __ __ __ __ __ __ __ __
 72
    65
 73
     2
 40
1.905
 49
1.27
 74
     0
 49
-0.635
 74
     0
  0
LTYPE
  5
6F
330
5
100
AcDbSymbolTableRecord
100
AcDbLinetypeTableRecord
  2
PHANTOM
 70
     0
  3
Phantom ______  __  __  ______  __  __  ______
 72
    65
 73
     6
 40
12.7
 49
6.35
 74
     0
 49
-1.27
 74
     0
 49
1.27
 74
     0
 49
-1.27
 74
     0
 49
1.27
 74
     0
 49
-1.27
 74
     0
  0
LTYPE
  5
70
330
5
100
AcDbSymbolTableRecord
100
AcDbLinetypeTableRecord
  2
CENTER
 70
     0
  3
Center ____ _ ____ _ ____ _ ____ _ ____ _ ____
 72
    65
 73
     4
 40
10.16
 49
6.35
 74
     0
 49
-1.27
 74
     0
 49
1.27
 74
     0
 49
-1.27
 74
     0
  0
LTYPE
  5
71
330
5
100
AcDbSymbolTableRecord
100
AcDbLinetypeTableRecord
  2
CENTERX2
 70
     0
  3
Center (2x) ________  __  ________  __  _____
 72
    65
 73
     4
 40
20.32
 49
12.7
 74
     0
 49
-2.54
 74
     0
 49
2.54
 74
     0
 49
-2.54
 74
     0
  0
LTYPE
  5
72
330
5
100
AcDbSymbolTableRecord
100
AcDbLinetypeTableRecord
  2
DOT2
 70
     0
  3
Dot (.5x) ........................................
 72
    65
 73
     2
 40
0.635
 49
0.0
 74
     0
 49
-0.635
 74
     0
  0
ENDTAB
  0
TABLE
  2
LAYER
  5
2
330
0
100
AcDbSymbolTable
 70
     1
  0
LAYER
  5
10
330
2
100
AcDbSymbolTableRecord
100
AcDbLayerTableRecord
  2
0
 70
     0
 62
     7
  6
Continuous
370
    -3
390
F
  0
ENDTAB
  0
TABLE
  2
STYLE
  5
3
330
0
100
AcDbSymbolTable
 70
     1
  0
STYLE
  5
11
330
3
100
AcDbSymbolTableRecord
100
AcDbTextStyleTableRecord
  2
Standard
 70
     0
 40
0.0
 41
1.0
 50
0.0
 71
     0
 42
3.5
  3
txt
  4
bigfont
  0
ENDTAB
  0
TABLE
  2
VIEW
  5
6
330
0
100
AcDbSymbolTable
 70
     0
  0
ENDTAB
  0
TABLE
  2
UCS
  5
7
330
0
100
AcDbSymbolTable
 70
     0
  0
ENDTAB
  0
TABLE
  2
APPID
  5
9
330
0
100
AcDbSymbolTable
 70
     1
  0
APPID
  5
12
330
9
100
AcDbSymbolTableRecord
100
AcDbRegAppTableRecord
  2
ACAD
 70
     0
  0
ENDTAB
  0
TABLE
  2
DIMSTYLE
  5
A
330
0
100
AcDbSymbolTable
 70
     1
100
AcDbDimStyleTable
  0
DIMSTYLE
105
27
330
A
100
AcDbSymbolTableRecord
100
AcDbDimStyleTableRecord
  2
ISO-25
 70
     0
 41
2.5
 42
0.625
 43
3.75
 44
1.25
 73
     0
 74
     0
 77
     1
 78
     8
140
2.5
141
2.5
143
0.0393700787
147
0.625
171
     3
172
     1
178
     0
271
     2
272
     2
274
     3
278
    44
283
     0
284
     8
340
11
  0
ENDTAB
  0
TABLE
  2
BLOCK_RECORD
  5
1
330
0
100
AcDbSymbolTable
 70
     1
  0
BLOCK_RECORD
  5
1F
330
1
100
AcDbSymbolTableRecord
100
AcDbBlockTableRecord
  2
*Model_Space
340
22
  0
BLOCK_RECORD
  5
1B
330
1
100
AcDbSymbolTableRecord
100
AcDbBlockTableRecord
  2
*Paper_Space
340
1E
  0
BLOCK_RECORD
  5
23
330
1
100
AcDbSymbolTableRecord
100
AcDbBlockTableRecord
  2
*Paper_Space0
340
26
  0
ENDTAB
  0
ENDSEC
  0
SECTION
  2
BLOCKS
  0
BLOCK
  5
20
330
1F
100
AcDbEntity
  8
0
100
AcDbBlockBegin
  2
*Model_Space
 70
     0
 10
0.0
 20
0.0
 30
0.0
  3
*Model_Space
  1

  0
ENDBLK
  5
21
330
1F
100
AcDbEntity
  8
0
100
AcDbBlockEnd
  0
BLOCK
  5
1C
330
1B
100
AcDbEntity
 67
     1
  8
0
100
AcDbBlockBegin
  2
*Paper_Space
 70
     0
 10
0.0
 20
0.0
 30
0.0
  3
*Paper_Space
  1

  0
ENDBLK
  5
1D
330
1B
100
AcDbEntity
 67
     1
  8
0
100
AcDbBlockEnd
  0
BLOCK
  5
24
330
23
100
AcDbEntity
  8
0
100
AcDbBlockBegin
  2
*Paper_Space0
 70
     0
 10
0.0
 20
0.0
 30
0.0
  3
*Paper_Space0
  1

  0
ENDBLK
  5
25
330
23
100
AcDbEntity
  8
0
100
AcDbBlockEnd
  0
ENDSEC
  0
SECTION
  2
ENTITIES
  0
ARC
  5
73
330
1F
100
AcDbEntity
  8
0
  6
Continuous
 62
     7
100
AcDbCircle
 10
287.8741016517
 20
653.09384914
 30
0.0
 40
33.57846089457838
100
AcDbArc
 50
252.8987858693
 51
321.0828607146
  0
CIRCLE
  5
74
330
1F
100
AcDbEntity
  8
0
  6
Continuous
 62
     7
100
AcDbCircle
 10
341.1706947859
 20
615.2004348141
 30
0.0
 40
3.928537327171966
  0
ARC
  5
75
330
1F
100
AcDbEntity
  8
0
  6
Continuous
 62
     7
100
AcDbCircle
 10
220.0231587773
 20
533.7136448973
 30
0.0
 40
26.64302030104947
100
AcDbArc
 50
126.9703560063
 51
192.3833703344
  0
ARC
  5
76
330
1F
100
AcDbEntity
  8
0
  6
Continuous
 62
     7
100
AcDbCircle
 10
260.9880196137
 20
489.5587561293
 30
0.0
 40
27.64985080010982
100
AcDbArc
 50
160.0343134104
 51
234.6737358621
  0
ARC
  5
77
330
1F
100
AcDbEntity
  8
0
  6
Continuous
 62
     7
100
AcDbCircle
 10
218.0043096019
 20
280.3741366433
 30
0.0
 40
21.95018541611422
100
AcDbArc
 50
196.8813670232
 51
283.1553542391
  0
ARC
  5
78
330
1F
100
AcDbEntity
  8
0
  6
Continuous
 62
     7
100
AcDbCircle
 10
54.5000719257
 20
366.7575587037
 30
0.0
 40
3.000000000000006
100
AcDbArc
 50
215.537677792
 51
331.0037217766
  0
ARC
  5
79
330
1F
100
AcDbEntity
  8
0
  6
Continuous
 62
     7
100
AcDbCircle
 10
58.7473129793
 20
381.4570018695
 30
0.0
 40
15.00000000000001
100
AcDbArc
 50
199.4778617573
 51
215.537677792
  0
ARC
  5
7A
330
1F
100
AcDbEntity
  8
0
  6
Continuous
 62
     7
100
AcDbCircle
 10
56.6387264489
 20
385.1112071429
 30
0.0
 40
20.00000000000003
100
AcDbArc
 50
193.7959011674
 51
217.516111279
  0
LINE
  5
7B
330
1F
100
AcDbEntity
  8
0
  6
Continuous
 62
     7
100
AcDbLine
 10
46.5413109112
 20
372.7384289638
 30
0.0
 11
52.0588715121
 21
365.0138441225
 31
0.0
  0
LINE
  5
7C
330
1F
100
AcDbEntity
  8
0
  6
Continuous
 62
     7
100
AcDbLine
 10
31.4704567199
 20
402.4829710484
 30
0.0
 11
30.1883471356
 21
407.5926996397
 31
0.0
  0
LINE
  5
7D
330
1F
100
AcDbEntity
  8
0
  6
Continuous
 62
     7
100
AcDbLine
 10
44.6355497837
 20
376.4776023811
 30
0.0
 11
44.6057569979
 21
376.4553626959
 31
0.0
  0
LINE
  5
7E
330
1F
100
AcDbEntity
  8
0
  6
Continuous
 62
     7
100
AcDbLine
 10
44.6057569979
 20
376.4553626959
 30
0.0
 11
44.5275905996
 21
376.5911515648
 31
0.0
  0
LINE
  5
7F
330
1F
100
AcDbEntity
  8
0
  6
Continuous
 62
     7
100
AcDbLine
 10
33.8722768155
 20
393.5499884264
 30
0.0
 11
31.4704567199
 21
402.4829710484
 31
0.0
  0
LINE
  5
80
330
1F
100
AcDbEntity
  8
0
  6
Continuous
 62
     7
100
AcDbLine
 10
33.8722768155
 20
393.5499884264
 30
0.0
 11
34.3686836605
 21
391.0865539385
 31
0.0
  0
LINE
  5
81
330
1F
100
AcDbEntity
  8
0
  6
Continuous
 62
     7
100
AcDbLine
 10
230.0
 20
257.0
 30
0.0
 11
217.0
 21
228.0
 31
0.0
  0
LINE
  5
82
330
1F
100
AcDbEntity
  8
0
  6
Continuous
 62
     7
100
AcDbLine
 10
34.3686836605
 20
391.0865539385
 30
0.0
 11
37.2156996156
 21
380.341927466
 31
0.0
  0
LINE
  5
83
330
1F
100
AcDbEntity
  8
0
  6
Continuous
 62
     7
100
AcDbLine
 10
161.0
 20
379.0
 30
0.0
 11
211.0
 21
379.0
 31
0.0
  0
LINE
  5
84
330
1F
100
AcDbEntity
  8
0
  6
Continuous
 62
     7
100
AcDbLine
 10
362.0
 20
609.0
 30
0.0
 11
391.0
 21
609.0
 31
0.0
  0
LINE
  5
85
330
1F
100
AcDbEntity
  8
0
  6
Continuous
 62
     7
100
AcDbLine
 10
444.0
 20
596.0
 30
0.0
 11
446.0
 21
589.0
 31
0.0
  0
LINE
  5
86
330
1F
100
AcDbEntity
  8
0
  6
Continuous
 62
     7
100
AcDbLine
 10
515.0
 20
436.0
 30
0.0
 11
502.0000063406
 21
436.0
 31
0.0
  0
LINE
  5
87
330
1F
100
AcDbEntity
  8
0
  6
Continuous
 62
     7
100
AcDbLine
 10
54.8239851952
 20
359.2122487538
 30
0.0
 11
137.0320817076
 21
362.0372560881
 31
0.0
  0
LINE
  5
88
330
1F
100
AcDbEntity
  8
0
  6
Continuous
 62
     7
100
AcDbLine
 10
66.4277254844
 20
366.4630038575
 30
0.0
 11
137.0320817035
 21
368.8892590881
 31
0.0
  0
LINE
  5
89
330
1F
100
AcDbEntity
  8
0
  6
Continuous
 62
     7
100
AcDbLine
 10
103.3110024832
 20
367.7304645148
 30
0.0
 11
103.0
 21
368.0000000002
 31
0.0
  0
LINE
  5
8A
330
1F
100
AcDbEntity
  8
0
  6
Continuous
 62
     7
100
AcDbLine
 10
137.0320817035
 20
368.8892590881
 30
0.0
 11
139.8165388866
 21
369.0025046347
 31
0.0
  0
LINE
  5
8B
330
1F
100
AcDbEntity
  8
0
  6
Continuous
 62
     7
100
AcDbLine
 10
139.8165388866
 20
369.0025046347
 30
0.0
 11
140.758733086
 21
369.0025046347
 31
0.0
  0
LINE
  5
8C
330
1F
100
AcDbEntity
  8
0
  6
Continuous
 62
     7
100
AcDbLine
 10
137.0320817076
 20
362.0372560881
 30
0.0
 11
139.1001610587
 21
362.0372560881
 31
0.0
  0
LINE
  5
8D
330
1F
100
AcDbEntity
  8
0
  6
Continuous
 62
     7
100
AcDbLine
 10
197.0
 20
674.0
 30
0.0
 11
70.0
 21
662.0
 31
0.0
  0
LINE
  5
8E
330
1F
100
AcDbEntity
  8
0
  6
Continuous
 62
     7
100
AcDbLine
 10
162.0
 20
624.0
 30
0.0
 11
160.0
 21
588.0
 31
0.0
  0
LINE
  5
8F
330
1F
100
AcDbEntity
  8
0
  6
Continuous
 62
     7
100
AcDbLine
 10
362.0
 20
609.0
 30
0.0
 11
348.0
 21
647.0
 31
0.0
  0
LINE
  5
90
330
1F
100
AcDbEntity
  8
0
  6
Continuous
 62
     7
100
AcDbLine
 10
185.0
 20
567.0
 30
0.0
 11
186.0
 21
568.0
 31
0.0
  0
LINE
  5
91
330
1F
100
AcDbEntity
  8
0
  6
Continuous
 62
     7
100
AcDbLine
 10
391.0
 20
476.0
 30
0.0
 11
424.0
 21
412.0
 31
0.0
  0
LINE
  5
92
330
1F
100
AcDbEntity
  8
0
  6
Continuous
 62
     7
100
AcDbLine
 10
429.0
 20
399.0
 30
0.0
 11
428.9999999922
 21
336.9999999948
 31
0.0
  0
LINE
  5
93
330
1F
100
AcDbEntity
  8
0
  6
Continuous
 62
     7
100
AcDbLine
 10
349.0
 20
273.0
 30
0.0
 11
361.0
 21
282.0
 31
0.0
  0
LINE
  5
94
330
1F
100
AcDbEntity
  8
0
  6
Continuous
 62
     7
100
AcDbLine
 10
235.0
 20
298.0
 30
0.0
 11
235.0
 21
325.0
 31
0.0
  0
LINE
  5
95
330
1F
100
AcDbEntity
  8
0
  6
Continuous
 62
     7
100
AcDbLine
 10
235.0
 20
325.0
 30
0.0
 11
253.0
 21
331.0
 31
0.0
  0
LINE
  5
96
330
1F
100
AcDbEntity
  8
0
  6
Continuous
 62
     7
100
AcDbLine
 10
253.0
 20
331.0
 30
0.0
 11
246.0
 21
347.0
 31
0.0
  0
LINE
  5
97
330
1F
100
AcDbEntity
  8
0
  6
Continuous
 62
     7
100
AcDbLine
 10
246.0
 20
347.0
 30
0.0
 11
228.0
 21
348.0
 31
0.0
  0
LINE
  5
98
330
1F
100
AcDbEntity
  8
0
  6
Continuous
 62
     7
100
AcDbLine
 10
228.0
 20
348.0
 30
0.0
 11
230.0
 21
353.0
 31
0.0
  0
LINE
  5
99
330
1F
100
AcDbEntity
  8
0
  6
Continuous
 62
     7
100
AcDbLine
 10
230.0
 20
353.0
 30
0.0
 11
262.0
 21
358.0
 31
0.0
  0
LINE
  5
9A
330
1F
100
AcDbEntity
  8
0
  6
Continuous
 62
     7
100
AcDbLine
 10
262.0
 20
358.0
 30
0.0
 11
225.0
 21
360.0
 31
0.0
  0
LINE
  5
9B
330
1F
100
AcDbEntity
  8
0
  6
Continuous
 62
     7
100
AcDbLine
 10
225.0
 20
360.0
 30
0.0
 11
211.0
 21
387.0
 31
0.0
  0
LINE
  5
9C
330
1F
100
AcDbEntity
  8
0
  6
Continuous
 62
     7
100
AcDbLine
 10
144.0
 20
383.0
 30
0.0
 11
140.0
 21
398.0
 31
0.0
  0
LINE
  5
9D
330
1F
100
AcDbEntity
  8
0
  6
Continuous
 62
     7
100
AcDbLine
 10
173.0
 20
564.0
 30
0.0
 11
179.0
 21
565.0
 31
0.0
  0
LINE
  5
9E
330
1F
100
AcDbEntity
  8
0
  6
Continuous
 62
     7
100
AcDbLine
 10
238.0
 20
676.0
 30
0.0
 11
253.0
 21
681.0
 31
0.0
  0
LINE
  5
9F
330
1F
100
AcDbEntity
  8
0
  6
Continuous
 62
     7
100
AcDbLine
 10
253.0
 20
681.0
 30
0.0
 11
238.0
 21
676.0
 31
0.0
  0
LINE
  5
A0
330
1F
100
AcDbEntity
  8
0
  6
Continuous
 62
     7
100
AcDbLine
 10
301.0
 20
672.0
 30
0.0
 11
262.0
 21
669.0
 31
0.0
  0
LINE
  5
A1
330
1F
100
AcDbEntity
  8
0
  6
Continuous
 62
     7
100
AcDbLine
 10
262.0
 20
669.0
 30
0.0
 11
262.0
 21
668.0
 31
0.0
  0
LINE
  5
A2
330
1F
100
AcDbEntity
  8
0
  6
Continuous
 62
     7
100
AcDbLine
 10
262.0
 20
668.0
 30
0.0
 11
256.0
 21
675.0
 31
0.0
  0
LINE
  5
A3
330
1F
100
AcDbEntity
  8
0
  6
Continuous
 62
     7
100
AcDbLine
 10
347.0
 20
658.0
 30
0.0
 11
343.0
 21
653.0
 31
0.0
  0
LINE
  5
A4
330
1F
100
AcDbEntity
  8
0
  6
Continuous
 62
     7
100
AcDbLine
 10
343.0
 20
653.0
 30
0.0
 11
316.0
 21
677.0
 31
0.0
  0
LINE
  5
A5
330
1F
100
AcDbEntity
  8
0
  6
Continuous
 62
     7
100
AcDbLine
 10
322.0
 20
636.0
 30
0.0
 11
316.0
 21
637.0
 31
0.0
  0
LINE
  5
A6
330
1F
100
AcDbEntity
  8
0
  6
Continuous
 62
     7
100
AcDbLine
 10
294.0
 20
657.0
 30
0.0
 11
310.0
 21
657.0
 31
0.0
  0
LINE
  5
A7
330
1F
100
AcDbEntity
  8
0
  6
Continuous
 62
     7
100
AcDbLine
 10
262.0
 20
663.0
 30
0.0
 11
269.0
 21
644.0
 31
0.0
  0
LINE
  5
A8
330
1F
100
AcDbEntity
  8
0
  6
Continuous
 62
     7
100
AcDbLine
 10
269.0
 20
644.0
 30
0.0
 11
275.0
 21
643.0
 31
0.0
  0
LINE
  5
A9
330
1F
100
AcDbEntity
  8
0
  6
Continuous
 62
     7
100
AcDbLine
 10
275.0
 20
643.0
 30
0.0
 11
293.0
 21
641.0
 31
0.0
  0
LINE
  5
AA
330
1F
100
AcDbEntity
  8
0
  6
Continuous
 62
     7
100
AcDbLine
 10
293.0
 20
641.0
 30
0.0
 11
272.0
 21
636.0
 31
0.0
  0
LINE
  5
AB
330
1F
100
AcDbEntity
  8
0
  6
Continuous
 62
     7
100
AcDbLine
 10
272.0
 20
636.0
 30
0.0
 11
272.0
 21
631.0
 31
0.0
  0
LINE
  5
AC
330
1F
100
AcDbEntity
  8
0
  6
Continuous
 62
     7
100
AcDbLine
 10
272.0
 20
631.0
 30
0.0
 11
264.0
 21
631.0
 31
0.0
  0
LINE
  5
AD
330
1F
100
AcDbEntity
  8
0
  6
Continuous
 62
     7
100
AcDbLine
 10
264.0
 20
631.0
 30
0.0
 11
246.0
 21
670.0
 31
0.0
  0
LINE
  5
AE
330
1F
100
AcDbEntity
  8
0
  6
Continuous
 62
     7
100
AcDbLine
 10
246.0
 20
670.0
 30
0.0
 11
245.0
 21
670.0
 31
0.0
  0
LINE
  5
AF
330
1F
100
AcDbEntity
  8
0
  6
Continuous
 62
     7
100
AcDbLine
 10
245.0
 20
670.0
 30
0.0
 11
253.0
 21
674.0
 31
0.0
  0
LINE
  5
B0
330
1F
100
AcDbEntity
  8
0
  6
Continuous
 62
     7
100
AcDbLine
 10
253.0
 20
674.0
 30
0.0
 11
260.0
 21
665.0
 31
0.0
  0
LINE
  5
B1
330
1F
100
AcDbEntity
  8
0
  6
Continuous
 62
     7
100
AcDbLine
 10
260.0
 20
665.0
 30
0.0
 11
302.0
 21
668.0
 31
0.0
  0
LINE
  5
B2
330
1F
100
AcDbEntity
  8
0
  6
Continuous
 62
     7
100
AcDbLine
 10
302.0
 20
668.0
 30
0.0
 11
305.0
 21
669.0
 31
0.0
  0
LINE
  5
B3
330
1F
100
AcDbEntity
  8
0
  6
Continuous
 62
     7
100
AcDbLine
 10
305.0
 20
669.0
 30
0.0
 11
302.0
 21
676.0
 31
0.0
  0
LINE
  5
B4
330
1F
100
AcDbEntity
  8
0
  6
Continuous
 62
     7
100
AcDbLine
 10
236.0
 20
672.0
 30
0.0
 11
209.0
 21
636.0
 31
0.0
  0
LINE
  5
B5
330
1F
100
AcDbEntity
  8
0
  6
Continuous
 62
     7
100
AcDbLine
 10
209.0
 20
636.0
 30
0.0
 11
198.0
 21
636.0
 31
0.0
  0
LINE
  5
B6
330
1F
100
AcDbEntity
  8
0
  6
Continuous
 62
     7
100
AcDbLine
 10
347.0
 20
635.0
 30
0.0
 11
325.0
 21
637.0
 31
0.0
  0
LINE
  5
B7
330
1F
100
AcDbEntity
  8
0
  6
Continuous
 62
     7
100
AcDbLine
 10
325.0
 20
637.0
 30
0.0
 11
314.0
 21
671.0
 31
0.0
  0
LINE
  5
B8
330
1F
100
AcDbEntity
  8
0
  6
Continuous
 62
     7
100
AcDbLine
 10
314.0
 20
671.0
 30
0.0
 11
313.0
 21
671.0
 31
0.0
  0
LINE
  5
B9
330
1F
100
AcDbEntity
  8
0
  6
Continuous
 62
     7
100
AcDbLine
 10
73.0
 20
657.0
 30
0.0
 11
193.0
 21
668.0
 31
0.0
  0
LINE
  5
BA
330
1F
100
AcDbEntity
  8
0
  6
Continuous
 62
     7
100
AcDbLine
 10
166.0
 20
630.0
 30
0.0
 11
160.0
 21
632.0
 31
0.0
  0
LINE
  5
BB
330
1F
100
AcDbEntity
  8
0
  6
Continuous
 62
     7
100
AcDbLine
 10
238.0
 20
537.0
 30
0.0
 11
223.0
 21
533.0
 31
0.0
  0
LINE
  5
BC
330
1F
100
AcDbEntity
  8
0
  6
Continuous
 62
     7
100
AcDbLine
 10
306.0
 20
662.0
 30
0.0
 11
305.0
 21
660.0
 31
0.0
  0
LINE
  5
BD
330
1F
100
AcDbEntity
  8
0
  6
Continuous
 62
     7
100
AcDbLine
 10
305.0
 20
660.0
 30
0.0
 11
277.0
 21
659.0
 31
0.0
  0
LINE
  5
BE
330
1F
100
AcDbEntity
  8
0
  6
Continuous
 62
     7
100
AcDbLine
 10
277.0
 20
659.0
 30
0.0
 11
276.0
 21
656.0
 31
0.0
  0
LINE
  5
BF
330
1F
100
AcDbEntity
  8
0
  6
Continuous
 62
     7
100
AcDbLine
 10
313.0
 20
639.0
 30
0.0
 11
311.0
 21
636.0
 31
0.0
  0
LINE
  5
C0
330
1F
100
AcDbEntity
  8
0
  6
Continuous
 62
     7
100
AcDbLine
 10
311.0
 20
636.0
 30
0.0
 11
277.0
 21
632.0
 31
0.0
  0
LINE
  5
C1
330
1F
100
AcDbEntity
  8
0
  6
Continuous
 62
     7
100
AcDbLine
 10
277.0
 20
632.0
 30
0.0
 11
276.0
 21
633.0
 31
0.0
  0
LINE
  5
C2
330
1F
100
AcDbEntity
  8
0
  6
Continuous
 62
     7
100
AcDbLine
 10
276.0
 20
633.0
 30
0.0
 11
296.0
 21
639.0
 31
0.0
  0
LINE
  5
C3
330
1F
100
AcDbEntity
  8
0
  6
Continuous
 62
     7
100
AcDbLine
 10
296.0
 20
639.0
 30
0.0
 11
297.0
 21
644.0
 31
0.0
  0
LINE
  5
C4
330
1F
100
AcDbEntity
  8
0
  6
Continuous
 62
     7
100
AcDbLine
 10
297.0
 20
644.0
 30
0.0
 11
290.0
 21
647.0
 31
0.0
  0
LINE
  5
C5
330
1F
100
AcDbEntity
  8
0
  6
Continuous
 62
     7
100
AcDbLine
 10
290.0
 20
647.0
 30
0.0
 11
290.0
 21
646.0
 31
0.0
  0
LINE
  5
C6
330
1F
100
AcDbEntity
  8
0
  6
Continuous
 62
     7
100
AcDbLine
 10
290.0
 20
646.0
 30
0.0
 11
271.0
 21
648.0
 31
0.0
  0
LINE
  5
C7
330
1F
100
AcDbEntity
  8
0
  6
Continuous
 62
     7
100
AcDbLine
 10
271.0
 20
648.0
 30
0.0
 11
266.0
 21
660.0
 31
0.0
  0
LINE
  5
C8
330
1F
100
AcDbEntity
  8
0
  6
Continuous
 62
     7
100
AcDbLine
 10
467.0000054454
 20
422.0000022076
 30
0.0
 11
439.0
 21
457.0
 31
0.0
  0
LINE
  5
C9
330
1F
100
AcDbEntity
  8
0
  6
Continuous
 62
     7
100
AcDbLine
 10
314.0
 20
632.0
 30
0.0
 11
323.0
 21
631.0
 31
0.0
  0
LINE
  5
CA
330
1F
100
AcDbEntity
  8
0
  6
Continuous
 62
     7
100
AcDbLine
 10
323.0
 20
631.0
 30
0.0
 11
323.0
 21
618.0
 31
0.0
  0
LINE
  5
CB
330
1F
100
AcDbEntity
  8
0
  6
Continuous
 62
     7
100
AcDbLine
 10
323.0
 20
618.0
 30
0.0
 11
317.0
 21
616.0
 31
0.0
  0
LINE
  5
CC
330
1F
100
AcDbEntity
  8
0
  6
Continuous
 62
     7
100
AcDbLine
 10
317.0
 20
616.0
 30
0.0
 11
318.0
 21
623.0
 31
0.0
  0
LINE
  5
CD
330
1F
100
AcDbEntity
  8
0
  6
Continuous
 62
     7
100
AcDbLine
 10
318.0
 20
623.0
 30
0.0
 11
314.0
 21
624.0
 31
0.0
  0
LINE
  5
CE
330
1F
100
AcDbEntity
  8
0
  6
Continuous
 62
     7
100
AcDbLine
 10
314.0
 20
624.0
 30
0.0
 11
280.0
 21
620.0
 31
0.0
  0
LINE
  5
CF
330
1F
100
AcDbEntity
  8
0
  6
Continuous
 62
     7
100
AcDbLine
 10
280.0
 20
620.0
 30
0.0
 11
279.0
 21
619.0
 31
0.0
  0
LINE
  5
D0
330
1F
100
AcDbEntity
  8
0
  6
Continuous
 62
     7
100
AcDbLine
 10
279.0
 20
619.0
 30
0.0
 11
278.0
 21
620.0
 31
0.0
  0
LINE
  5
D1
330
1F
100
AcDbEntity
  8
0
  6
Continuous
 62
     7
100
AcDbLine
 10
278.0
 20
620.0
 30
0.0
 11
274.0
 21
619.0
 31
0.0
  0
LINE
  5
D2
330
1F
100
AcDbEntity
  8
0
  6
Continuous
 62
     7
100
AcDbLine
 10
274.0
 20
619.0
 30
0.0
 11
273.0
 21
614.0
 31
0.0
  0
LINE
  5
D3
330
1F
100
AcDbEntity
  8
0
  6
Continuous
 62
     7
100
AcDbLine
 10
273.0
 20
614.0
 30
0.0
 11
265.0
 21
616.0
 31
0.0
  0
LINE
  5
D4
330
1F
100
AcDbEntity
  8
0
  6
Continuous
 62
     7
100
AcDbLine
 10
265.0
 20
616.0
 30
0.0
 11
265.0
 21
627.0
 31
0.0
  0
LINE
  5
D5
330
1F
100
AcDbEntity
  8
0
  6
Continuous
 62
     7
100
AcDbLine
 10
265.0
 20
627.0
 30
0.0
 11
273.0
 21
627.0
 31
0.0
  0
LINE
  5
D6
330
1F
100
AcDbEntity
  8
0
  6
Continuous
 62
     7
100
AcDbLine
 10
273.0
 20
627.0
 30
0.0
 11
275.0
 21
620.0
 31
0.0
  0
LINE
  5
D7
330
1F
100
AcDbEntity
  8
0
  6
Continuous
 62
     7
100
AcDbLine
 10
275.0
 20
620.0
 30
0.0
 11
278.0
 21
621.0
 31
0.0
  0
LINE
  5
D8
330
1F
100
AcDbEntity
  8
0
  6
Continuous
 62
     7
100
AcDbLine
 10
327.0
 20
632.0
 30
0.0
 11
350.0
 21
629.0
 31
0.0
  0
LINE
  5
D9
330
1F
100
AcDbEntity
  8
0
  6
Continuous
 62
     7
100
AcDbLine
 10
350.0
 20
629.0
 30
0.0
 11
354.0
 21
615.0
 31
0.0
  0
LINE
  5
DA
330
1F
100
AcDbEntity
  8
0
  6
Continuous
 62
     7
100
AcDbLine
 10
354.0
 20
615.0
 30
0.0
 11
356.0
 21
616.0
 31
0.0
  0
LINE
  5
DB
330
1F
100
AcDbEntity
  8
0
  6
Continuous
 62
     7
100
AcDbLine
 10
356.0
 20
616.0
 30
0.0
 11
356.0
 21
620.0
 31
0.0
  0
LINE
  5
DC
330
1F
100
AcDbEntity
  8
0
  6
Continuous
 62
     7
100
AcDbLine
 10
327.0
 20
620.0
 30
0.0
 11
327.0
 21
632.0
 31
0.0
  0
LINE
  5
DD
330
1F
100
AcDbEntity
  8
0
  6
Continuous
 62
     7
100
AcDbLine
 10
278.0
 20
629.0
 30
0.0
 11
308.0
 21
631.0
 31
0.0
  0
LINE
  5
DE
330
1F
100
AcDbEntity
  8
0
  6
Continuous
 62
     7
100
AcDbLine
 10
277.0
 20
625.0
 30
0.0
 11
278.0
 21
629.0
 31
0.0
  0
LINE
  5
DF
330
1F
100
AcDbEntity
  8
0
  6
Continuous
 62
     7
100
AcDbLine
 10
198.0
 20
630.0
 30
0.0
 11
199.0
 21
629.0
 31
0.0
  0
LINE
  5
E0
330
1F
100
AcDbEntity
  8
0
  6
Continuous
 62
     7
100
AcDbLine
 10
199.0
 20
629.0
 30
0.0
 11
206.0
 21
630.0
 31
0.0
  0
LINE
  5
E1
330
1F
100
AcDbEntity
  8
0
  6
Continuous
 62
     7
100
AcDbLine
 10
206.0
 20
630.0
 30
0.0
 11
201.0
 21
574.0
 31
0.0
  0
LINE
  5
E2
330
1F
100
AcDbEntity
  8
0
  6
Continuous
 62
     7
100
AcDbLine
 10
201.0
 20
574.0
 30
0.0
 11
195.0
 21
564.0
 31
0.0
  0
LINE
  5
E3
330
1F
100
AcDbEntity
  8
0
  6
Continuous
 62
     7
100
AcDbLine
 10
195.0
 20
564.0
 30
0.0
 11
185.0
 21
573.0
 31
0.0
  0
LINE
  5
E4
330
1F
100
AcDbEntity
  8
0
  6
Continuous
 62
     7
100
AcDbLine
 10
261.0
 20
624.0
 30
0.0
 11
261.0
 21
617.0
 31
0.0
  0
LINE
  5
E5
330
1F
100
AcDbEntity
  8
0
  6
Continuous
 62
     7
100
AcDbLine
 10
261.0
 20
617.0
 30
0.0
 11
245.0
 21
619.0
 31
0.0
  0
LINE
  5
E6
330
1F
100
AcDbEntity
  8
0
  6
Continuous
 62
     7
100
AcDbLine
 10
227.0
 20
578.0
 30
0.0
 11
228.0
 21
578.0
 31
0.0
  0
LINE
  5
E7
330
1F
100
AcDbEntity
  8
0
  6
Continuous
 62
     7
100
AcDbLine
 10
278.0
 20
616.0
 30
0.0
 11
314.0
 21
619.0
 31
0.0
  0
LINE
  5
E8
330
1F
100
AcDbEntity
  8
0
  6
Continuous
 62
     7
100
AcDbLine
 10
314.0
 20
619.0
 30
0.0
 11
313.0
 21
615.0
 31
0.0
  0
LINE
  5
E9
330
1F
100
AcDbEntity
  8
0
  6
Continuous
 62
     7
100
AcDbLine
 10
313.0
 20
615.0
 30
0.0
 11
277.0
 21
613.0
 31
0.0
  0
LINE
  5
EA
330
1F
100
AcDbEntity
  8
0
  6
Continuous
 62
     7
100
AcDbLine
 10
277.0
 20
613.0
 30
0.0
 11
278.0
 21
616.0
 31
0.0
  0
LINE
  5
EB
330
1F
100
AcDbEntity
  8
0
  6
Continuous
 62
     7
100
AcDbLine
 10
304.0
 20
608.0
 30
0.0
 11
334.0
 21
618.0
 31
0.0
  0
LINE
  5
EC
330
1F
100
AcDbEntity
  8
0
  6
Continuous
 62
     7
100
AcDbLine
 10
244.0
 20
614.0
 30
0.0
 11
247.0
 21
613.0
 31
0.0
  0
LINE
  5
ED
330
1F
100
AcDbEntity
  8
0
  6
Continuous
 62
     7
100
AcDbLine
 10
347.0
 20
584.0
 30
0.0
 11
346.0
 21
570.0
 31
0.0
  0
LINE
  5
EE
330
1F
100
AcDbEntity
  8
0
  6
Continuous
 62
     7
100
AcDbLine
 10
346.0
 20
570.0
 30
0.0
 11
336.0
 21
567.0
 31
0.0
  0
LINE
  5
EF
330
1F
100
AcDbEntity
  8
0
  6
Continuous
 62
     7
100
AcDbLine
 10
336.0
 20
567.0
 30
0.0
 11
337.0
 21
565.0
 31
0.0
  0
LINE
  5
F0
330
1F
100
AcDbEntity
  8
0
  6
Continuous
 62
     7
100
AcDbLine
 10
253.0
 20
613.0
 30
0.0
 11
283.0
 21
607.0
 31
0.0
  0
LINE
  5
F1
330
1F
100
AcDbEntity
  8
0
  6
Continuous
 62
     7
100
AcDbLine
 10
283.0
 20
607.0
 30
0.0
 11
283.0
 21
608.0
 31
0.0
  0
LINE
  5
F2
330
1F
100
AcDbEntity
  8
0
  6
Continuous
 62
     7
100
AcDbLine
 10
283.0
 20
608.0
 30
0.0
 11
293.0
 21
606.0
 31
0.0
  0
LINE
  5
F3
330
1F
100
AcDbEntity
  8
0
  6
Continuous
 62
     7
100
AcDbLine
 10
293.0
 20
606.0
 30
0.0
 11
294.0
 21
601.0
 31
0.0
  0
LINE
  5
F4
330
1F
100
AcDbEntity
  8
0
  6
Continuous
 62
     7
100
AcDbLine
 10
294.0
 20
601.0
 30
0.0
 11
295.0
 21
601.0
 31
0.0
  0
LINE
  5
F5
330
1F
100
AcDbEntity
  8
0
  6
Continuous
 62
     7
100
AcDbLine
 10
373.0
 20
532.0
 30
0.0
 11
355.0
 21
546.0
 31
0.0
  0
LINE
  5
F6
330
1F
100
AcDbEntity
  8
0
  6
Continuous
 62
     7
100
AcDbLine
 10
355.0
 20
546.0
 30
0.0
 11
358.0
 21
571.0
 31
0.0
  0
LINE
  5
F7
330
1F
100
AcDbEntity
  8
0
  6
Continuous
 62
     7
100
AcDbLine
 10
358.0
 20
571.0
 30
0.0
 11
357.0
 21
571.0
 31
0.0
  0
LINE
  5
F8
330
1F
100
AcDbEntity
  8
0
  6
Continuous
 62
     7
100
AcDbLine
 10
357.0
 20
571.0
 30
0.0
 11
358.0
 21
572.0
 31
0.0
  0
LINE
  5
F9
330
1F
100
AcDbEntity
  8
0
  6
Continuous
 62
     7
100
AcDbLine
 10
358.0
 20
572.0
 30
0.0
 11
357.0
 21
575.0
 31
0.0
  0
LINE
  5
FA
330
1F
100
AcDbEntity
  8
0
  6
Continuous
 62
     7
100
AcDbLine
 10
357.0
 20
575.0
 30
0.0
 11
362.0
 21
590.0
 31
0.0
  0
LINE
  5
FB
330
1F
100
AcDbEntity
  8
0
  6
Continuous
 62
     7
100
AcDbLine
 10
157.0
 20
465.0
 30
0.0
 11
156.0
 21
464.0
 31
0.0
  0
LINE
  5
FC
330
1F
100
AcDbEntity
  8
0
  6
Continuous
 62
     7
100
AcDbLine
 10
156.0
 20
464.0
 30
0.0
 11
157.0
 21
463.0
 31
0.0
  0
LINE
  5
FD
330
1F
100
AcDbEntity
  8
0
  6
Continuous
 62
     7
100
AcDbLine
 10
131.0
 20
394.0
 30
0.0
 11
142.0
 21
374.0
 31
0.0
  0
LINE
  5
FE
330
1F
100
AcDbEntity
  8
0
  6
Continuous
 62
     7
100
AcDbLine
 10
352.0
 20
571.0
 30
0.0
 11
353.0
 21
571.0
 31
0.0
  0
LINE
  5
FF
330
1F
100
AcDbEntity
  8
0
  6
Continuous
 62
     7
100
AcDbLine
 10
353.0
 20
571.0
 30
0.0
 11
352.0
 21
570.0
 31
0.0
  0
LINE
  5
100
330
1F
100
AcDbEntity
  8
0
  6
Continuous
 62
     7
100
AcDbLine
 10
352.0
 20
570.0
 30
0.0
 11
353.0
 21
569.0
 31
0.0
  0
LINE
  5
101
330
1F
100
AcDbEntity
  8
0
  6
Continuous
 62
     7
100
AcDbLine
 10
353.0
 20
569.0
 30
0.0
 11
349.0
 21
546.0
 31
0.0
  0
LINE
  5
102
330
1F
100
AcDbEntity
  8
0
  6
Continuous
 62
     7
100
AcDbLine
 10
349.0
 20
546.0
 30
0.0
 11
345.0
 21
546.0
 31
0.0
  0
LINE
  5
103
330
1F
100
AcDbEntity
  8
0
  6
Continuous
 62
     7
100
AcDbLine
 10
345.0
 20
546.0
 30
0.0
 11
352.0
 21
571.0
 31
0.0
  0
LINE
  5
104
330
1F
100
AcDbEntity
  8
0
  6
Continuous
 62
     7
100
AcDbLine
 10
233.0
 20
570.0
 30
0.0
 11
243.0
 21
564.0
 31
0.0
  0
LINE
  5
105
330
1F
100
AcDbEntity
  8
0
  6
Continuous
 62
     7
100
AcDbLine
 10
241.0
 20
551.0
 30
0.0
 11
244.0
 21
554.0
 31
0.0
  0
LINE
  5
106
330
1F
100
AcDbEntity
  8
0
  6
Continuous
 62
     7
100
AcDbLine
 10
244.0
 20
554.0
 30
0.0
 11
264.0
 21
541.0
 31
0.0
  0
LINE
  5
107
330
1F
100
AcDbEntity
  8
0
  6
Continuous
 62
     7
100
AcDbLine
 10
264.0
 20
541.0
 30
0.0
 11
245.0
 21
538.0
 31
0.0
  0
LINE
  5
108
330
1F
100
AcDbEntity
  8
0
  6
Continuous
 62
     7
100
AcDbLine
 10
202.0
 20
568.0
 30
0.0
 11
204.0
 21
559.0
 31
0.0
  0
LINE
  5
109
330
1F
100
AcDbEntity
  8
0
  6
Continuous
 62
     7
100
AcDbLine
 10
204.0
 20
559.0
 30
0.0
 11
194.0
 21
549.0
 31
0.0
  0
LINE
  5
10A
330
1F
100
AcDbEntity
  8
0
  6
Continuous
 62
     7
100
AcDbLine
 10
194.0
 20
549.0
 30
0.0
 11
202.0
 21
568.0
 31
0.0
  0
LINE
  5
10B
330
1F
100
AcDbEntity
  8
0
  6
Continuous
 62
     7
100
AcDbLine
 10
345.0
 20
566.0
 30
0.0
 11
346.0
 21
565.0
 31
0.0
  0
LINE
  5
10C
330
1F
100
AcDbEntity
  8
0
  6
Continuous
 62
     7
100
AcDbLine
 10
346.0
 20
565.0
 30
0.0
 11
338.0
 21
546.0
 31
0.0
  0
LINE
  5
10D
330
1F
100
AcDbEntity
  8
0
  6
Continuous
 62
     7
100
AcDbLine
 10
338.0
 20
546.0
 30
0.0
 11
330.0
 21
547.0
 31
0.0
  0
LINE
  5
10E
330
1F
100
AcDbEntity
  8
0
  6
Continuous
 62
     7
100
AcDbLine
 10
330.0
 20
547.0
 30
0.0
 11
342.0
 21
561.0
 31
0.0
  0
LINE
  5
10F
330
1F
100
AcDbEntity
  8
0
  6
Continuous
 62
     7
100
AcDbLine
 10
342.0
 20
561.0
 30
0.0
 11
345.0
 21
560.0
 31
0.0
  0
LINE
  5
110
330
1F
100
AcDbEntity
  8
0
  6
Continuous
 62
     7
100
AcDbLine
 10
345.0
 20
560.0
 30
0.0
 11
345.0
 21
566.0
 31
0.0
  0
LINE
  5
111
330
1F
100
AcDbEntity
  8
0
  6
Continuous
 62
     7
100
AcDbLine
 10
246.0
 20
563.0
 30
0.0
 11
296.0
 21
548.0
 31
0.0
  0
LINE
  5
112
330
1F
100
AcDbEntity
  8
0
  6
Continuous
 62
     7
100
AcDbLine
 10
296.0
 20
548.0
 30
0.0
 11
297.0
 21
549.0
 31
0.0
  0
LINE
  5
113
330
1F
100
AcDbEntity
  8
0
  6
Continuous
 62
     7
100
AcDbLine
 10
297.0
 20
549.0
 30
0.0
 11
301.0
 21
548.0
 31
0.0
  0
LINE
  5
114
330
1F
100
AcDbEntity
  8
0
  6
Continuous
 62
     7
100
AcDbLine
 10
301.0
 20
548.0
 30
0.0
 11
338.0
 21
561.0
 31
0.0
  0
LINE
  5
115
330
1F
100
AcDbEntity
  8
0
  6
Continuous
 62
     7
100
AcDbLine
 10
245.0
 20
561.0
 30
0.0
 11
246.0
 21
563.0
 31
0.0
  0
LINE
  5
116
330
1F
100
AcDbEntity
  8
0
  6
Continuous
 62
     7
100
AcDbLine
 10
204.0
 20
555.0
 30
0.0
 11
208.0
 21
543.0
 31
0.0
  0
LINE
  5
117
330
1F
100
AcDbEntity
  8
0
  6
Continuous
 62
     7
100
AcDbLine
 10
208.0
 20
543.0
 30
0.0
 11
209.0
 21
543.0
 31
0.0
  0
LINE
  5
118
330
1F
100
AcDbEntity
  8
0
  6
Continuous
 62
     7
100
AcDbLine
 10
209.0
 20
543.0
 30
0.0
 11
193.0
 21
529.0
 31
0.0
  0
LINE
  5
119
330
1F
100
AcDbEntity
  8
0
  6
Continuous
 62
     7
100
AcDbLine
 10
193.0
 20
529.0
 30
0.0
 11
194.0
 21
528.0
 31
0.0
  0
LINE
  5
11A
330
1F
100
AcDbEntity
  8
0
  6
Continuous
 62
     7
100
AcDbLine
 10
280.0
 20
540.0
 30
0.0
 11
313.0
 21
542.0
 31
0.0
  0
LINE
  5
11B
330
1F
100
AcDbEntity
  8
0
  6
Continuous
 62
     7
100
AcDbLine
 10
313.0
 20
542.0
 30
0.0
 11
280.0
 21
540.0
 31
0.0
  0
LINE
  5
11C
330
1F
100
AcDbEntity
  8
0
  6
Continuous
 62
     7
100
AcDbLine
 10
285.0
 20
535.0
 30
0.0
 11
334.0
 21
542.0
 31
0.0
  0
LINE
  5
11D
330
1F
100
AcDbEntity
  8
0
  6
Continuous
 62
     7
100
AcDbLine
 10
288.0
 20
524.0
 30
0.0
 11
252.0
 21
535.0
 31
0.0
  0
LINE
  5
11E
330
1F
100
AcDbEntity
  8
0
  6
Continuous
 62
     7
100
AcDbLine
 10
252.0
 20
535.0
 30
0.0
 11
272.0
 21
538.0
 31
0.0
  0
LINE
  5
11F
330
1F
100
AcDbEntity
  8
0
  6
Continuous
 62
     7
100
AcDbLine
 10
272.0
 20
538.0
 30
0.0
 11
285.0
 21
534.0
 31
0.0
  0
LINE
  5
120
330
1F
100
AcDbEntity
  8
0
  6
Continuous
 62
     7
100
AcDbLine
 10
285.0
 20
534.0
 30
0.0
 11
285.0
 21
535.0
 31
0.0
  0
LINE
  5
121
330
1F
100
AcDbEntity
  8
0
  6
Continuous
 62
     7
100
AcDbLine
 10
341.0
 20
542.0
 30
0.0
 11
347.0
 21
541.0
 31
0.0
  0
LINE
  5
122
330
1F
100
AcDbEntity
  8
0
  6
Continuous
 62
     7
100
AcDbLine
 10
314.0
 20
520.0
 30
0.0
 11
313.0
 21
521.0
 31
0.0
  0
LINE
  5
123
330
1F
100
AcDbEntity
  8
0
  6
Continuous
 62
     7
100
AcDbLine
 10
227.0
 20
531.0
 30
0.0
 11
239.0
 21
533.0
 31
0.0
  0
LINE
  5
124
330
1F
100
AcDbEntity
  8
0
  6
Continuous
 62
     7
100
AcDbLine
 10
382.0
 20
494.0
 30
0.0
 11
349.0
 21
531.0
 31
0.0
  0
LINE
  5
125
330
1F
100
AcDbEntity
  8
0
  6
Continuous
 62
     7
100
AcDbLine
 10
349.0
 20
531.0
 30
0.0
 11
351.0
 21
535.0
 31
0.0
  0
LINE
  5
126
330
1F
100
AcDbEntity
  8
0
  6
Continuous
 62
     7
100
AcDbLine
 10
351.0
 20
535.0
 30
0.0
 11
366.0
 21
514.0
 31
0.0
  0
LINE
  5
127
330
1F
100
AcDbEntity
  8
0
  6
Continuous
 62
     7
100
AcDbLine
 10
366.0
 20
514.0
 30
0.0
 11
368.0
 21
515.0
 31
0.0
  0
LINE
  5
128
330
1F
100
AcDbEntity
  8
0
  6
Continuous
 62
     7
100
AcDbLine
 10
368.0
 20
515.0
 30
0.0
 11
352.0
 21
540.0
 31
0.0
  0
LINE
  5
129
330
1F
100
AcDbEntity
  8
0
  6
Continuous
 62
     7
100
AcDbLine
 10
352.0
 20
540.0
 30
0.0
 11
353.0
 21
541.0
 31
0.0
  0
LINE
  5
12A
330
1F
100
AcDbEntity
  8
0
  6
Continuous
 62
     7
100
AcDbLine
 10
209.0
 20
539.0
 30
0.0
 11
212.0
 21
538.0
 31
0.0
  0
LINE
  5
12B
330
1F
100
AcDbEntity
  8
0
  6
Continuous
 62
     7
100
AcDbLine
 10
212.0
 20
538.0
 30
0.0
 11
215.0
 21
532.0
 31
0.0
  0
LINE
  5
12C
330
1F
100
AcDbEntity
  8
0
  6
Continuous
 62
     7
100
AcDbLine
 10
215.0
 20
532.0
 30
0.0
 11
204.0
 21
528.0
 31
0.0
  0
LINE
  5
12D
330
1F
100
AcDbEntity
  8
0
  6
Continuous
 62
     7
100
AcDbLine
 10
204.0
 20
528.0
 30
0.0
 11
203.0
 21
529.0
 31
0.0
  0
LINE
  5
12E
330
1F
100
AcDbEntity
  8
0
  6
Continuous
 62
     7
100
AcDbLine
 10
203.0
 20
529.0
 30
0.0
 11
201.0
 21
528.0
 31
0.0
  0
LINE
  5
12F
330
1F
100
AcDbEntity
  8
0
  6
Continuous
 62
     7
100
AcDbLine
 10
201.0
 20
528.0
 30
0.0
 11
197.0
 21
530.0
 31
0.0
  0
LINE
  5
130
330
1F
100
AcDbEntity
  8
0
  6
Continuous
 62
     7
100
AcDbLine
 10
197.0
 20
530.0
 30
0.0
 11
209.0
 21
539.0
 31
0.0
  0
LINE
  5
131
330
1F
100
AcDbEntity
  8
0
  6
Continuous
 62
     7
100
AcDbLine
 10
225.0
 20
523.0
 30
0.0
 11
226.0
 21
524.0
 31
0.0
  0
LINE
  5
132
330
1F
100
AcDbEntity
  8
0
  6
Continuous
 62
     7
100
AcDbLine
 10
226.0
 20
524.0
 30
0.0
 11
249.0
 21
508.0
 31
0.0
  0
LINE
  5
133
330
1F
100
AcDbEntity
  8
0
  6
Continuous
 62
     7
100
AcDbLine
 10
249.0
 20
508.0
 30
0.0
 11
233.0
 21
504.0
 31
0.0
  0
LINE
  5
134
330
1F
100
AcDbEntity
  8
0
  6
Continuous
 62
     7
100
AcDbLine
 10
233.0
 20
504.0
 30
0.0
 11
206.0
 21
526.0
 31
0.0
  0
LINE
  5
135
330
1F
100
AcDbEntity
  8
0
  6
Continuous
 62
     7
100
AcDbLine
 10
345.0
 20
528.0
 30
0.0
 11
350.0
 21
523.0
 31
0.0
  0
LINE
  5
136
330
1F
100
AcDbEntity
  8
0
  6
Continuous
 62
     7
100
AcDbLine
 10
350.0
 20
523.0
 30
0.0
 11
344.0
 21
527.0
 31
0.0
  0
LINE
  5
137
330
1F
100
AcDbEntity
  8
0
  6
Continuous
 62
     7
100
AcDbLine
 10
344.0
 20
527.0
 30
0.0
 11
345.0
 21
528.0
 31
0.0
  0
LINE
  5
138
330
1F
100
AcDbEntity
  8
0
  6
Continuous
 62
     7
100
AcDbLine
 10
193.0
 20
525.0
 30
0.0
 11
197.0
 21
524.0
 31
0.0
  0
LINE
  5
139
330
1F
100
AcDbEntity
  8
0
  6
Continuous
 62
     7
100
AcDbLine
 10
197.0
 20
524.0
 30
0.0
 11
198.0
 21
525.0
 31
0.0
  0
LINE
  5
13A
330
1F
100
AcDbEntity
  8
0
  6
Continuous
 62
     7
100
AcDbLine
 10
198.0
 20
525.0
 30
0.0
 11
213.0
 21
514.0
 31
0.0
  0
LINE
  5
13B
330
1F
100
AcDbEntity
  8
0
  6
Continuous
 62
     7
100
AcDbLine
 10
213.0
 20
514.0
 30
0.0
 11
203.0
 21
496.0
 31
0.0
  0
LINE
  5
13C
330
1F
100
AcDbEntity
  8
0
  6
Continuous
 62
     7
100
AcDbLine
 10
203.0
 20
496.0
 30
0.0
 11
193.0
 21
525.0
 31
0.0
  0
LINE
  5
13D
330
1F
100
AcDbEntity
  8
0
  6
Continuous
 62
     7
100
AcDbLine
 10
355.0
 20
496.0
 30
0.0
 11
354.0
 21
495.0
 31
0.0
  0
LINE
  5
13E
330
1F
100
AcDbEntity
  8
0
  6
Continuous
 62
     7
100
AcDbLine
 10
354.0
 20
495.0
 30
0.0
 11
355.0
 21
494.0
 31
0.0
  0
LINE
  5
13F
330
1F
100
AcDbEntity
  8
0
  6
Continuous
 62
     7
100
AcDbLine
 10
355.0
 20
494.0
 30
0.0
 11
359.0
 21
496.0
 31
0.0
  0
LINE
  5
140
330
1F
100
AcDbEntity
  8
0
  6
Continuous
 62
     7
100
AcDbLine
 10
359.0
 20
496.0
 30
0.0
 11
355.0
 21
517.0
 31
0.0
  0
LINE
  5
141
330
1F
100
AcDbEntity
  8
0
  6
Continuous
 62
     7
100
AcDbLine
 10
355.0
 20
517.0
 30
0.0
 11
354.0
 21
517.0
 31
0.0
  0
LINE
  5
142
330
1F
100
AcDbEntity
  8
0
  6
Continuous
 62
     7
100
AcDbLine
 10
354.0
 20
517.0
 30
0.0
 11
365.0
 21
499.0
 31
0.0
  0
LINE
  5
143
330
1F
100
AcDbEntity
  8
0
  6
Continuous
 62
     7
100
AcDbLine
 10
357.0
 20
488.0
 30
0.0
 11
353.0
 21
494.0
 31
0.0
  0
LINE
  5
144
330
1F
100
AcDbEntity
  8
0
  6
Continuous
 62
     7
100
AcDbLine
 10
353.0
 20
494.0
 30
0.0
 11
346.0
 21
492.0
 31
0.0
  0
LINE
  5
145
330
1F
100
AcDbEntity
  8
0
  6
Continuous
 62
     7
100
AcDbLine
 10
346.0
 20
492.0
 30
0.0
 11
343.0
 21
494.0
 31
0.0
  0
LINE
  5
146
330
1F
100
AcDbEntity
  8
0
  6
Continuous
 62
     7
100
AcDbLine
 10
343.0
 20
494.0
 30
0.0
 11
348.0
 21
499.0
 31
0.0
  0
LINE
  5
147
330
1F
100
AcDbEntity
  8
0
  6
Continuous
 62
     7
100
AcDbLine
 10
348.0
 20
499.0
 30
0.0
 11
347.0
 21
500.0
 31
0.0
  0
LINE
  5
148
330
1F
100
AcDbEntity
  8
0
  6
Continuous
 62
     7
100
AcDbLine
 10
347.0
 20
500.0
 30
0.0
 11
338.0
 21
497.0
 31
0.0
  0
LINE
  5
149
330
1F
100
AcDbEntity
  8
0
  6
Continuous
 62
     7
100
AcDbLine
 10
338.0
 20
497.0
 30
0.0
 11
337.0
 21
498.0
 31
0.0
  0
LINE
  5
14A
330
1F
100
AcDbEntity
  8
0
  6
Continuous
 62
     7
100
AcDbLine
 10
337.0
 20
498.0
 30
0.0
 11
343.0
 21
506.0
 31
0.0
  0
LINE
  5
14B
330
1F
100
AcDbEntity
  8
0
  6
Continuous
 62
     7
100
AcDbLine
 10
343.0
 20
506.0
 30
0.0
 11
342.0
 21
508.0
 31
0.0
  0
LINE
  5
14C
330
1F
100
AcDbEntity
  8
0
  6
Continuous
 62
     7
100
AcDbLine
 10
342.0
 20
508.0
 30
0.0
 11
333.0
 21
501.0
 31
0.0
  0
LINE
  5
14D
330
1F
100
AcDbEntity
  8
0
  6
Continuous
 62
     7
100
AcDbLine
 10
333.0
 20
501.0
 30
0.0
 11
330.0
 21
506.0
 31
0.0
  0
LINE
  5
14E
330
1F
100
AcDbEntity
  8
0
  6
Continuous
 62
     7
100
AcDbLine
 10
330.0
 20
506.0
 30
0.0
 11
337.0
 21
515.0
 31
0.0
  0
LINE
  5
14F
330
1F
100
AcDbEntity
  8
0
  6
Continuous
 62
     7
100
AcDbLine
 10
337.0
 20
515.0
 30
0.0
 11
327.0
 21
508.0
 31
0.0
  0
LINE
  5
150
330
1F
100
AcDbEntity
  8
0
  6
Continuous
 62
     7
100
AcDbLine
 10
327.0
 20
508.0
 30
0.0
 11
325.0
 21
512.0
 31
0.0
  0
LINE
  5
151
330
1F
100
AcDbEntity
  8
0
  6
Continuous
 62
     7
100
AcDbLine
 10
319.0
 20
514.0
 30
0.0
 11
320.0
 21
511.0
 31
0.0
  0
LINE
  5
152
330
1F
100
AcDbEntity
  8
0
  6
Continuous
 62
     7
100
AcDbLine
 10
320.0
 20
511.0
 30
0.0
 11
319.0
 21
510.0
 31
0.0
  0
LINE
  5
153
330
1F
100
AcDbEntity
  8
0
  6
Continuous
 62
     7
100
AcDbLine
 10
319.0
 20
510.0
 30
0.0
 11
318.0
 21
511.0
 31
0.0
  0
LINE
  5
154
330
1F
100
AcDbEntity
  8
0
  6
Continuous
 62
     7
100
AcDbLine
 10
318.0
 20
511.0
 30
0.0
 11
307.0
 21
509.0
 31
0.0
  0
LINE
  5
155
330
1F
100
AcDbEntity
  8
0
  6
Continuous
 62
     7
100
AcDbLine
 10
288.0
 20
506.0
 30
0.0
 11
286.0
 21
509.0
 31
0.0
  0
LINE
  5
156
330
1F
100
AcDbEntity
  8
0
  6
Continuous
 62
     7
100
AcDbLine
 10
217.0
 20
513.0
 30
0.0
 11
227.0
 21
502.0
 31
0.0
  0
LINE
  5
157
330
1F
100
AcDbEntity
  8
0
  6
Continuous
 62
     7
100
AcDbLine
 10
227.0
 20
502.0
 30
0.0
 11
223.0
 21
500.0
 31
0.0
  0
LINE
  5
158
330
1F
100
AcDbEntity
  8
0
  6
Continuous
 62
     7
100
AcDbLine
 10
223.0
 20
500.0
 30
0.0
 11
224.0
 21
497.0
 31
0.0
  0
LINE
  5
159
330
1F
100
AcDbEntity
  8
0
  6
Continuous
 62
     7
100
AcDbLine
 10
224.0
 20
497.0
 30
0.0
 11
235.0
 21
499.0
 31
0.0
  0
LINE
  5
15A
330
1F
100
AcDbEntity
  8
0
  6
Continuous
 62
     7
100
AcDbLine
 10
245.0
 20
467.0
 30
0.0
 11
233.0
 21
466.0
 31
0.0
  0
LINE
  5
15B
330
1F
100
AcDbEntity
  8
0
  6
Continuous
 62
     7
100
AcDbLine
 10
208.0
 20
494.0
 30
0.0
 11
217.0
 21
513.0
 31
0.0
  0
LINE
  5
15C
330
1F
100
AcDbEntity
  8
0
  6
Continuous
 62
     7
100
AcDbLine
 10
251.0
 20
513.0
 30
0.0
 11
259.0
 21
510.0
 31
0.0
  0
LINE
  5
15D
330
1F
100
AcDbEntity
  8
0
  6
Continuous
 62
     7
100
AcDbLine
 10
259.0
 20
510.0
 30
0.0
 11
255.0
 21
508.0
 31
0.0
  0
LINE
  5
15E
330
1F
100
AcDbEntity
  8
0
  6
Continuous
 62
     7
100
AcDbLine
 10
255.0
 20
508.0
 30
0.0
 11
251.0
 21
513.0
 31
0.0
  0
LINE
  5
15F
330
1F
100
AcDbEntity
  8
0
  6
Continuous
 62
     7
100
AcDbLine
 10
283.0
 20
501.0
 30
0.0
 11
269.0
 21
500.0
 31
0.0
  0
LINE
  5
160
330
1F
100
AcDbEntity
  8
0
  6
Continuous
 62
     7
100
AcDbLine
 10
269.0
 20
500.0
 30
0.0
 11
282.0
 21
496.0
 31
0.0
  0
LINE
  5
161
330
1F
100
AcDbEntity
  8
0
  6
Continuous
 62
     7
100
AcDbLine
 10
282.0
 20
496.0
 30
0.0
 11
283.0
 21
494.0
 31
0.0
  0
LINE
  5
162
330
1F
100
AcDbEntity
  8
0
  6
Continuous
 62
     7
100
AcDbLine
 10
283.0
 20
494.0
 30
0.0
 11
267.0
 21
489.0
 31
0.0
  0
LINE
  5
163
330
1F
100
AcDbEntity
  8
0
  6
Continuous
 62
     7
100
AcDbLine
 10
267.0
 20
489.0
 30
0.0
 11
283.0
 21
488.0
 31
0.0
  0
LINE
  5
164
330
1F
100
AcDbEntity
  8
0
  6
Continuous
 62
     7
100
AcDbLine
 10
283.0
 20
488.0
 30
0.0
 11
271.0
 21
481.0
 31
0.0
  0
LINE
  5
165
330
1F
100
AcDbEntity
  8
0
  6
Continuous
 62
     7
100
AcDbLine
 10
271.0
 20
481.0
 30
0.0
 11
272.0
 21
479.0
 31
0.0
  0
LINE
  5
166
330
1F
100
AcDbEntity
  8
0
  6
Continuous
 62
     7
100
AcDbLine
 10
272.0
 20
479.0
 30
0.0
 11
284.0
 21
482.0
 31
0.0
  0
LINE
  5
167
330
1F
100
AcDbEntity
  8
0
  6
Continuous
 62
     7
100
AcDbLine
 10
284.0
 20
482.0
 30
0.0
 11
252.0
 21
469.0
 31
0.0
  0
LINE
  5
168
330
1F
100
AcDbEntity
  8
0
  6
Continuous
 62
     7
100
AcDbLine
 10
244.0
 20
503.0
 30
0.0
 11
245.0
 21
502.0
 31
0.0
  0
LINE
  5
169
330
1F
100
AcDbEntity
  8
0
  6
Continuous
 62
     7
100
AcDbLine
 10
245.0
 20
502.0
 30
0.0
 11
248.0
 21
503.0
 31
0.0
  0
LINE
  5
16A
330
1F
100
AcDbEntity
  8
0
  6
Continuous
 62
     7
100
AcDbLine
 10
248.0
 20
503.0
 30
0.0
 11
251.0
 21
501.0
 31
0.0
  0
LINE
  5
16B
330
1F
100
AcDbEntity
  8
0
  6
Continuous
 62
     7
100
AcDbLine
 10
251.0
 20
501.0
 30
0.0
 11
250.0
 21
500.0
 31
0.0
  0
LINE
  5
16C
330
1F
100
AcDbEntity
  8
0
  6
Continuous
 62
     7
100
AcDbLine
 10
250.0
 20
500.0
 30
0.0
 11
253.0
 21
490.0
 31
0.0
  0
LINE
  5
16D
330
1F
100
AcDbEntity
  8
0
  6
Continuous
 62
     7
100
AcDbLine
 10
253.0
 20
490.0
 30
0.0
 11
255.0
 21
501.0
 31
0.0
  0
LINE
  5
16E
330
1F
100
AcDbEntity
  8
0
  6
Continuous
 62
     7
100
AcDbLine
 10
312.0
 20
508.0
 30
0.0
 11
318.0
 21
507.0
 31
0.0
  0
LINE
  5
16F
330
1F
100
AcDbEntity
  8
0
  6
Continuous
 62
     7
100
AcDbLine
 10
289.0
 20
482.0
 30
0.0
 11
290.0
 21
485.0
 31
0.0
  0
LINE
  5
170
330
1F
100
AcDbEntity
  8
0
  6
Continuous
 62
     7
100
AcDbLine
 10
290.0
 20
485.0
 30
0.0
 11
312.0
 21
508.0
 31
0.0
  0
LINE
  5
171
330
1F
100
AcDbEntity
  8
0
  6
Continuous
 62
     7
100
AcDbLine
 10
298.0
 20
507.0
 30
0.0
 11
301.0
 21
506.0
 31
0.0
  0
LINE
  5
172
330
1F
100
AcDbEntity
  8
0
  6
Continuous
 62
     7
100
AcDbLine
 10
301.0
 20
506.0
 30
0.0
 11
296.0
 21
502.0
 31
0.0
  0
LINE
  5
173
330
1F
100
AcDbEntity
  8
0
  6
Continuous
 62
     7
100
AcDbLine
 10
296.0
 20
502.0
 30
0.0
 11
295.0
 21
503.0
 31
0.0
  0
LINE
  5
174
330
1F
100
AcDbEntity
  8
0
  6
Continuous
 62
     7
100
AcDbLine
 10
295.0
 20
503.0
 30
0.0
 11
298.0
 21
507.0
 31
0.0
  0
LINE
  5
175
330
1F
100
AcDbEntity
  8
0
  6
Continuous
 62
     7
100
AcDbLine
 10
322.0
 20
507.0
 30
0.0
 11
328.0
 21
499.0
 31
0.0
  0
LINE
  5
176
330
1F
100
AcDbEntity
  8
0
  6
Continuous
 62
     7
100
AcDbLine
 10
328.0
 20
499.0
 30
0.0
 11
322.0
 21
507.0
 31
0.0
  0
LINE
  5
177
330
1F
100
AcDbEntity
  8
0
  6
Continuous
 62
     7
100
AcDbLine
 10
369.0
 20
504.0
 30
0.0
 11
382.0
 21
485.0
 31
0.0
  0
LINE
  5
178
330
1F
100
AcDbEntity
  8
0
  6
Continuous
 62
     7
100
AcDbLine
 10
382.0
 20
485.0
 30
0.0
 11
367.0
 21
488.0
 31
0.0
  0
LINE
  5
179
330
1F
100
AcDbEntity
  8
0
  6
Continuous
 62
     7
100
AcDbLine
 10
367.0
 20
488.0
 30
0.0
 11
369.0
 21
504.0
 31
0.0
  0
LINE
  5
17A
330
1F
100
AcDbEntity
  8
0
  6
Continuous
 62
     7
100
AcDbLine
 10
289.0
 20
502.0
 30
0.0
 11
291.0
 21
501.0
 31
0.0
  0
LINE
  5
17B
330
1F
100
AcDbEntity
  8
0
  6
Continuous
 62
     7
100
AcDbLine
 10
291.0
 20
501.0
 30
0.0
 11
290.0
 21
490.0
 31
0.0
  0
LINE
  5
17C
330
1F
100
AcDbEntity
  8
0
  6
Continuous
 62
     7
100
AcDbLine
 10
290.0
 20
490.0
 30
0.0
 11
289.0
 21
502.0
 31
0.0
  0
LINE
  5
17D
330
1F
100
AcDbEntity
  8
0
  6
Continuous
 62
     7
100
AcDbLine
 10
320.0
 20
500.0
 30
0.0
 11
327.0
 21
489.0
 31
0.0
  0
LINE
  5
17E
330
1F
100
AcDbEntity
  8
0
  6
Continuous
 62
     7
100
AcDbLine
 10
327.0
 20
489.0
 30
0.0
 11
325.0
 21
488.0
 31
0.0
  0
LINE
  5
17F
330
1F
100
AcDbEntity
  8
0
  6
Continuous
 62
     7
100
AcDbLine
 10
325.0
 20
488.0
 30
0.0
 11
316.0
 21
494.0
 31
0.0
  0
LINE
  5
180
330
1F
100
AcDbEntity
  8
0
  6
Continuous
 62
     7
100
AcDbLine
 10
316.0
 20
494.0
 30
0.0
 11
320.0
 21
500.0
 31
0.0
  0
LINE
  5
181
330
1F
100
AcDbEntity
  8
0
  6
Continuous
 62
     7
100
AcDbLine
 10
330.0
 20
494.0
 30
0.0
 11
340.0
 21
489.0
 31
0.0
  0
LINE
  5
182
330
1F
100
AcDbEntity
  8
0
  6
Continuous
 62
     7
100
AcDbLine
 10
340.0
 20
489.0
 30
0.0
 11
331.0
 21
490.0
 31
0.0
  0
LINE
  5
183
330
1F
100
AcDbEntity
  8
0
  6
Continuous
 62
     7
100
AcDbLine
 10
331.0
 20
490.0
 30
0.0
 11
330.0
 21
494.0
 31
0.0
  0
LINE
  5
184
330
1F
100
AcDbEntity
  8
0
  6
Continuous
 62
     7
100
AcDbLine
 10
312.0
 20
491.0
 30
0.0
 11
318.0
 21
488.0
 31
0.0
  0
LINE
  5
185
330
1F
100
AcDbEntity
  8
0
  6
Continuous
 62
     7
100
AcDbLine
 10
318.0
 20
488.0
 30
0.0
 11
308.0
 21
486.0
 31
0.0
  0
LINE
  5
186
330
1F
100
AcDbEntity
  8
0
  6
Continuous
 62
     7
100
AcDbLine
 10
308.0
 20
486.0
 30
0.0
 11
312.0
 21
491.0
 31
0.0
  0
LINE
  5
187
330
1F
100
AcDbEntity
  8
0
  6
Continuous
 62
     7
100
AcDbLine
 10
459.0
 20
319.0
 30
0.0
 11
461.0
 21
354.0
 31
0.0
  0
LINE
  5
188
330
1F
100
AcDbEntity
  8
0
  6
Continuous
 62
     7
100
AcDbLine
 10
461.0
 20
354.0
 30
0.0
 11
469.0
 21
358.0
 31
0.0
  0
LINE
  5
189
330
1F
100
AcDbEntity
  8
0
  6
Continuous
 62
     7
100
AcDbLine
 10
469.0
 20
358.0
 30
0.0
 11
466.0
 21
377.0
 31
0.0
  0
LINE
  5
18A
330
1F
100
AcDbEntity
  8
0
  6
Continuous
 62
     7
100
AcDbLine
 10
466.0
 20
377.0
 30
0.0
 11
454.0
 21
378.0
 31
0.0
  0
LINE
  5
18B
330
1F
100
AcDbEntity
  8
0
  6
Continuous
 62
     7
100
AcDbLine
 10
454.0
 20
378.0
 30
0.0
 11
454.0
 21
382.0
 31
0.0
  0
LINE
  5
18C
330
1F
100
AcDbEntity
  8
0
  6
Continuous
 62
     7
100
AcDbLine
 10
454.0
 20
382.0
 30
0.0
 11
492.0
 21
385.0
 31
0.0
  0
LINE
  5
18D
330
1F
100
AcDbEntity
  8
0
  6
Continuous
 62
     7
100
AcDbLine
 10
452.0
 20
387.0
 30
0.0
 11
389.0
 21
489.0
 31
0.0
  0
LINE
  5
18E
330
1F
100
AcDbEntity
  8
0
  6
Continuous
 62
     7
100
AcDbLine
 10
473.0
 20
416.0
 30
0.0
 11
479.0
 21
417.0
 31
0.0
  0
LINE
  5
18F
330
1F
100
AcDbEntity
  8
0
  6
Continuous
 62
     7
100
AcDbLine
 10
225.0
 20
283.0
 30
0.0
 11
200.0
 21
280.0
 31
0.0
  0
LINE
  5
190
330
1F
100
AcDbEntity
  8
0
  6
Continuous
 62
     7
100
AcDbLine
 10
200.0
 20
280.0
 30
0.0
 11
197.0
 21
274.0
 31
0.0
  0
LINE
  5
191
330
1F
100
AcDbEntity
  8
0
  6
Continuous
 62
     7
100
AcDbLine
 10
223.0
 20
259.0
 30
0.0
 11
218.0
 21
238.0
 31
0.0
  0
LINE
  5
192
330
1F
100
AcDbEntity
  8
0
  6
Continuous
 62
     7
100
AcDbLine
 10
172.0
 20
228.0
 30
0.0
 11
181.0
 21
281.0
 31
0.0
  0
LINE
  5
193
330
1F
100
AcDbEntity
  8
0
  6
Continuous
 62
     7
100
AcDbLine
 10
181.0
 20
281.0
 30
0.0
 11
180.0
 21
281.0
 31
0.0
  0
LINE
  5
194
330
1F
100
AcDbEntity
  8
0
  6
Continuous
 62
     7
100
AcDbLine
 10
180.0
 20
281.0
 30
0.0
 11
181.0
 21
282.0
 31
0.0
  0
LINE
  5
195
330
1F
100
AcDbEntity
  8
0
  6
Continuous
 62
     7
100
AcDbLine
 10
181.0
 20
282.0
 30
0.0
 11
180.0
 21
288.0
 31
0.0
  0
LINE
  5
196
330
1F
100
AcDbEntity
  8
0
  6
Continuous
 62
     7
100
AcDbLine
 10
180.0
 20
288.0
 30
0.0
 11
181.0
 21
289.0
 31
0.0
  0
LINE
  5
197
330
1F
100
AcDbEntity
  8
0
  6
Continuous
 62
     7
100
AcDbLine
 10
456.0
 20
372.0
 30
0.0
 11
464.0
 21
372.0
 31
0.0
  0
LINE
  5
198
330
1F
100
AcDbEntity
  8
0
  6
Continuous
 62
     7
100
AcDbLine
 10
464.0
 20
372.0
 30
0.0
 11
463.0
 21
359.0
 31
0.0
  0
LINE
  5
199
330
1F
100
AcDbEntity
  8
0
  6
Continuous
 62
     7
100
AcDbLine
 10
463.0
 20
359.0
 30
0.0
 11
458.0
 21
358.0
 31
0.0
  0
LINE
  5
19A
330
1F
100
AcDbEntity
  8
0
  6
Continuous
 62
     7
100
AcDbLine
 10
458.0
 20
358.0
 30
0.0
 11
456.0
 21
372.0
 31
0.0
  0
LINE
  5
19B
330
1F
100
AcDbEntity
  8
0
  6
Continuous
 62
     7
100
AcDbLine
 10
229.0
 20
341.0
 30
0.0
 11
245.0
 21
342.0
 31
0.0
  0
LINE
  5
19C
330
1F
100
AcDbEntity
  8
0
  6
Continuous
 62
     7
100
AcDbLine
 10
245.0
 20
342.0
 30
0.0
 11
248.0
 21
330.0
 31
0.0
  0
LINE
  5
19D
330
1F
100
AcDbEntity
  8
0
  6
Continuous
 62
     7
100
AcDbLine
 10
248.0
 20
330.0
 30
0.0
 11
231.0
 21
328.0
 31
0.0
  0
LINE
  5
19E
330
1F
100
AcDbEntity
  8
0
  6
Continuous
 62
     7
100
AcDbLine
 10
231.0
 20
328.0
 30
0.0
 11
229.0
 21
341.0
 31
0.0
  0
LINE
  5
19F
330
1F
100
AcDbEntity
  8
0
  6
Continuous
 62
     7
100
AcDbLine
 10
545.0
 20
317.0
 30
0.0
 11
548.0
 21
314.0
 31
0.0
  0
LINE
  5
1A0
330
1F
100
AcDbEntity
  8
0
  6
Continuous
 62
     7
100
AcDbLine
 10
545.0
 20
316.0
 30
0.0
 11
545.0
 21
317.0
 31
0.0
  0
LINE
  5
1A1
330
1F
100
AcDbEntity
  8
0
  6
Continuous
 62
     7
100
AcDbLine
 10
494.0
 20
287.0
 30
0.0
 11
480.0
 21
292.0
 31
0.0
  0
LINE
  5
1A2
330
1F
100
AcDbEntity
  8
0
  6
Continuous
 62
     7
100
AcDbLine
 10
480.0
 20
292.0
 30
0.0
 11
530.0
 21
299.0
 31
0.0
  0
LINE
  5
1A3
330
1F
100
AcDbEntity
  8
0
  6
Continuous
 62
     7
100
AcDbLine
 10
300.0
 20
295.0
 30
0.0
 11
310.0
 21
294.0
 31
0.0
  0
LINE
  5
1A4
330
1F
100
AcDbEntity
  8
0
  6
Continuous
 62
     7
100
AcDbLine
 10
310.0
 20
294.0
 30
0.0
 11
291.0
 21
291.0
 31
0.0
  0
LINE
  5
1A5
330
1F
100
AcDbEntity
  8
0
  6
Continuous
 62
     7
100
AcDbLine
 10
291.0
 20
291.0
 30
0.0
 11
290.0
 21
293.0
 31
0.0
  0
LINE
  5
1A6
330
1F
100
AcDbEntity
  8
0
  6
Continuous
 62
     7
100
AcDbLine
 10
290.0
 20
293.0
 30
0.0
 11
300.0
 21
294.0
 31
0.0
  0
LINE
  5
1A7
330
1F
100
AcDbEntity
  8
0
  6
Continuous
 62
     7
100
AcDbLine
 10
300.0
 20
294.0
 30
0.0
 11
300.0
 21
295.0
 31
0.0
  0
LINE
  5
1A8
330
1F
100
AcDbEntity
  8
0
  6
Continuous
 62
     7
100
AcDbLine
 10
233.0
 20
291.0
 30
0.0
 11
248.0
 21
287.0
 31
0.0
  0
LINE
  5
1A9
330
1F
100
AcDbEntity
  8
0
  6
Continuous
 62
     7
100
AcDbLine
 10
248.0
 20
287.0
 30
0.0
 11
233.0
 21
286.0
 31
0.0
  0
LINE
  5
1AA
330
1F
100
AcDbEntity
  8
0
  6
Continuous
 62
     7
100
AcDbLine
 10
233.0
 20
286.0
 30
0.0
 11
233.0
 21
291.0
 31
0.0
  0
LINE
  5
1AB
330
1F
100
AcDbEntity
  8
0
  6
Continuous
 62
     7
100
AcDbLine
 10
279.0
 20
291.0
 30
0.0
 11
281.0
 21
290.0
 31
0.0
  0
LINE
  5
1AC
330
1F
100
AcDbEntity
  8
0
  6
Continuous
 62
     7
100
AcDbLine
 10
281.0
 20
290.0
 30
0.0
 11
279.0
 21
290.0
 31
0.0
  0
LINE
  5
1AD
330
1F
100
AcDbEntity
  8
0
  6
Continuous
 62
     7
100
AcDbLine
 10
279.0
 20
290.0
 30
0.0
 11
279.0
 21
291.0
 31
0.0
  0
LINE
  5
1AE
330
1F
100
AcDbEntity
  8
0
  6
Continuous
 62
     7
100
AcDbLine
 10
349.0
 20
282.0
 30
0.0
 11
219.0
 21
266.0
 31
0.0
  0
LINE
  5
1AF
330
1F
100
AcDbEntity
  8
0
  6
Continuous
 62
     7
100
AcDbLine
 10
219.0
 20
266.0
 30
0.0
 11
219.0
 21
265.0
 31
0.0
  0
LINE
  5
1B0
330
1F
100
AcDbEntity
  8
0
  6
Continuous
 62
     7
100
AcDbLine
 10
219.0
 20
265.0
 30
0.0
 11
218.0
 21
266.0
 31
0.0
  0
LINE
  5
1B1
330
1F
100
AcDbEntity
  8
0
  6
Continuous
 62
     7
100
AcDbLine
 10
218.0
 20
266.0
 30
0.0
 11
212.0
 21
265.0
 31
0.0
  0
LINE
  5
1B2
330
1F
100
AcDbEntity
  8
0
  6
Continuous
 62
     7
100
AcDbLine
 10
212.0
 20
265.0
 30
0.0
 11
203.0
 21
276.0
 31
0.0
  0
LINE
  5
1B3
330
1F
100
AcDbEntity
  8
0
  6
Continuous
 62
     7
100
AcDbLine
 10
259.0
 20
288.0
 30
0.0
 11
260.0
 21
288.0
 31
0.0
  0
LINE
  5
1B4
330
1F
100
AcDbEntity
  8
0
  6
Continuous
 62
     7
100
AcDbLine
 10
260.0
 20
288.0
 30
0.0
 11
259.0
 21
288.0
 31
0.0
  0
LWPOLYLINE
  5
1B5
330
1F
100
AcDbEntity
  8
0
  6
Continuous
 62
     7
100
AcDbPolyline
 90
       12
 70
   128
 43
0.0
 10
139.1000747681
 20
362.0372560881
 10
136.6973385143
 20
350.1676263957
 10
134.9955101873
 20
337.3988483421
 10
134.3368137734
 20
323.2920701637
 10
135.0633869683
 20
307.4084400974
 10
137.4489856138
 20
289.4658924801
 10
139.7693726687
 20
277.0899199859
 10
142.4752168178
 20
264.8234089044
 10
145.382675698
 20
253.1848858642
 10
148.3079069463
 20
242.6928774941
 10
151.0670681997
 20
233.8659104227
 10
153.4763170951
 20
227.2225112786
  0
ARC
  5
1B6
330
1F
100
AcDbEntity
  8
0
  6
Continuous
 62
     7
100
AcDbCircle
 10
89.2052339621
 20
408.4725188747
 30
0.0
 40
60.07199413330156
100
AcDbArc
 50
216.2734823792
 51
235.0868516925
  0
LWPOLYLINE
  5
1B7
330
1F
100
AcDbEntity
  8
0
  6
Continuous
 62
     7
100
AcDbPolyline
 90
        7
 70
   128
 43
0.0
 10
210.9999656677
 20
379.0
 10
220.0948803201
 20
361.9509340985
 10
226.2146243184
 20
344.5020951682
 10
229.3592319949
 20
326.6534832091
 10
229.742845964
 20
312.3491207949
 10
228.2897686323
 20
297.7979597253
 10
225.0
 20
283.0
  0
LWPOLYLINE
  5
1B8
330
1F
100
AcDbEntity
  8
0
  6
Continuous
 62
     7
100
AcDbPolyline
 90
        3
 70
   128
 43
0.0
 10
141.9999599457
 20
374.0
 10
141.3030141065
 20
371.2038094365
 10
140.758733086
 20
369.0025046347
  0
LWPOLYLINE
  5
1B9
330
1F
100
AcDbEntity
  8
0
  6
Continuous
 62
     7
100
AcDbPolyline
 90
        9
 70
   128
 43
0.0
 10
390.9997940063
 20
609.0
 10
418.7245690002
 20
605.9082832472
 10
430.8082086423
 20
603.9426542372
 10
433.1585814306
 20
603.4346259228
 10
435.1277222485
 20
602.9673931615
 10
435.7111879884
 20
602.7854333881
 10
436.2726868929
 20
602.5580902338
 10
440.2648013751
 20
599.5444386061
 10
444.0
 20
596.0
  0
LWPOLYLINE
  5
1BA
330
1F
100
AcDbEntity
  8
0
  6
Continuous
 62
     7
100
AcDbPolyline
 90
        5
 70
   128
 43
0.0
 10
196.9999074936
 20
674.0
 10
200.1326215907
 20
682.1685389119
 10
204.748759722
 20
687.2504364479
 10
209.4164576635
 20
689.0779825262
 10
215.0
 20
689.0
  0
ARC
  5
1BB
330
1F
100
AcDbEntity
  8
0
  6
Continuous
 62
     7
100
AcDbCircle
 10
38.2490541563
 20
398.8413849694
 30
0.0
 40
42.92315320712938
100
AcDbArc
 50
311.03281576
 51
354.8654748395
  0
ARC
  5
1BC
330
1F
100
AcDbEntity
  8
0
  6
Continuous
 62
     7
100
AcDbCircle
 10
38.0672269007
 20
394.7886668226
 30
0.0
 40
35.10766886860093
100
AcDbArc
 50
302.8751428524
 51
1.4439303733
  0
LWPOLYLINE
  5
1BD
330
1F
100
AcDbEntity
  8
0
  6
Continuous
 62
     7
100
AcDbPolyline
 90
       14
 70
   128
 43
0.0
 10
514.9998664856
 20
436.0
 10
520.9094044959
 20
432.89610393
 10
527.0917453224
 20
430.0562771467
 10
532.7282134877
 20
426.6883117901
 10
535.5074509689
 20
424.0844675911
 10
538.3682762498
 20
419.6270955394
 10
542.1838626614
 20
412.3077376577
 10
545.540588984
 20
404.7249608543
 10
548.4063167541
 20
396.9270409083
 10
552.5362227838
 20
380.8788747049
 10
554.3239222163
 20
363.2896256255
 10
553.0203061624
 20
343.1815566676
 10
549.896383946
 20
323.0919310421
 10
547.0
 20
303.0
  0
LWPOLYLINE
  5
1BE
330
1F
100
AcDbEntity
  8
0
  6
Continuous
 62
     7
100
AcDbPolyline
 90
       36
 70
   128
 43
0.0
 10
546.9999313354
 20
303.0
 10
537.4038585244
 20
295.8418740926
 10
527.9208435868
 20
288.4220566886
 10
517.7590694211
 20
282.5723882648
 10
509.413000874
 20
280.3239332972
 10
500.9272632869
 20
280.1007487285
 10
492.3443154654
 20
281.2233575294
 10
483.744812121
 20
283.0120603624
 10
475.2094079654
 20
284.7871578904
 10
471.3169112939
 20
285.8062739992
 10
468.2979026864
 20
287.2877560784
 10
465.3109999909
 20
288.8253595058
 10
462.882702939
 20
289.7244853045
 10
460.3688545527
 20
290.0229042276
 10
455.0686282248
 20
289.3465992224
 10
449.3960263036
 20
288.1054671249
 10
443.7926944023
 20
286.4827621916
 10
438.6091122273
 20
284.7481805896
 10
433.4547486285
 20
282.9183281399
 10
428.3145785607
 20
281.1076772856
 10
420.3277045997
 20
278.0194888481
 10
412.2898927605
 20
274.3566424424
 10
404.2950993462
 20
270.5634087006
 10
396.7084191888
 20
267.2095968976
 10
388.9905599562
 20
264.397483088
 10
381.0593023538
 20
262.4462013783
 10
371.1818815298
 20
261.6742363129
 10
360.8444540666
 20
262.8029844319
 10
352.0156356316
 20
264.9936231336
 10
343.6516493515
 20
267.6564461006
 10
335.6780536294
 20
270.1751302275
 10
328.0204068688
 20
271.9333524087
 10
320.6042674727
 20
272.3147895387
 10
310.0837920365
 20
270.6279767455
 10
297.7669383548
 20
268.5097036704
 10
230.0
 20
257.0
  0
LWPOLYLINE
  5
1BF
330
1F
100
AcDbEntity
  8
0
  6
Continuous
 62
     7
100
AcDbPolyline
 90
        9
 70
   128
 43
0.0
 10
216.9998884201
 20
228.0
 10
202.2322575734
 20
225.0881235908
 10
187.4688633996
 20
222.0611347635
 10
172.6360581115
 20
220.8716842634
 10
167.6669506283
 20
221.265069496
 10
163.914444371
 20
222.0829520794
 10
160.2294703478
 20
223.3644482281
 10
156.7155780816
 20
225.0856154565
 10
153.4763170951
 20
227.2225112786
  0
LWPOLYLINE
  5
1C0
330
1F
100
AcDbEntity
  8
0
  6
Continuous
 62
     7
100
AcDbPolyline
 90
       19
 70
   128
 43
0.0
 10
69.9999928474
 20
662.0
 10
68.545120728
 20
658.5989017925
 10
67.4784203143
 20
656.5968985855
 10
66.9063731163
 20
654.2891060392
 10
67.286091486
 20
653.3431204727
 10
68.0
 20
652.0
 10
71.140744714
 20
645.8427437356
 10
74.3910879562
 20
639.7572764322
 10
78.708207119
 20
633.7635474102
 10
84.0064148043
 20
626.7492386732
 10
87.3910362328
 20
623.481640047
 10
91.3197894489
 20
621.3797146393
 10
93.1709752643
 20
620.9760213812
 10
98.8213795789
 20
620.3544435021
 10
104.4863439165
 20
620.0334616072
 10
110.1638031737
 20
619.9704410225
 10
127.4233805989
 20
620.9181697978
 10
144.7212677246
 20
622.6568136742
 10
162.0
 20
624.0
  0
LWPOLYLINE
  5
1C1
330
1F
100
AcDbEntity
  8
0
  6
Continuous
 62
     7
100
AcDbPolyline
 90
        9
 70
   128
 43
0.0
 10
159.9999666214
 20
588.0
 10
154.9244180861
 20
585.0176603592
 10
151.1502358706
 20
582.9699825551
 10
148.4399189988
 20
581.6144844344
 10
146.2883099397
 20
580.575725534
 10
144.8956391275
 20
579.7646495766
 10
143.6880333564
 20
578.545507174
 10
142.3488345297
 20
576.4167134058
 10
140.2219634035
 20
572.7085230149
  0
LWPOLYLINE
  5
1C2
330
1F
100
AcDbEntity
  8
0
  6
Continuous
 62
     7
100
AcDbPolyline
 90
       25
 70
   128
 43
0.0
 10
140.221953392
 20
572.7085230149
 10
135.4390183995
 20
576.8020121957
 10
133.2033191201
 20
578.2227632204
 10
132.1307900426
 20
578.5903832981
 10
131.636279023
 20
578.6866195134
 10
131.4138589596
 20
578.7149452268
 10
131.3150188326
 20
578.7245809602
 10
131.2713370195
 20
578.728263582
 10
131.2520795356
 20
578.7297752561
 10
131.2435989611
 20
578.7304192821
 10
131.2398660966
 20
578.7306985606
 10
131.236932526
 20
578.7309162377
 10
104.7129878323
 20
579.7296142286
 10
78.2251357756
 20
578.2665799436
 10
69.9750948794
 20
577.1656294198
 10
65.9308899684
 20
576.5944008653
 10
62.9613989191
 20
576.3982286339
 10
59.9659407583
 20
576.3019124854
 10
56.9751525966
 20
576.2007732144
 10
51.4325576918
 20
575.6236517792
 10
46.224745059
 20
573.9425989876
 10
40.7520629884
 20
569.8753700207
 10
36.4343323855
 20
564.3598204114
 10
32.7481251807
 20
558.1462605057
 10
29.1700133046
 20
551.9850006493
  0
LWPOLYLINE
  5
1C3
330
1F
100
AcDbEntity
  8
0
  6
Continuous
 62
     7
100
AcDbPolyline
 90
       25
 70
   128
 43
0.0
 10
347.9998111725
 20
647.0
 10
350.6419778541
 20
649.8937876449
 10
352.7789803147
 20
652.9750334622
 10
353.110067798
 20
655.8461514366
 10
352.9681767561
 20
659.6722630398
 10
351.6500678427
 20
665.5315796578
 10
349.2024963984
 20
670.2819659962
 10
345.3334148742
 20
675.5454586647
 10
343.539010375
 20
677.4438361942
 10
341.5962041511
 20
679.1282258195
 10
339.5000700583
 20
680.5348335233
 10
337.2456819522
 20
681.5998652887
 10
333.6925965435
 20
682.5229477312
 10
323.7738584051
 20
683.1053323372
 10
313.6690736678
 20
682.4071557837
 10
303.6217780873
 20
682.2067109338
 10
295.194548408
 20
683.8944927301
 10
289.1736091009
 20
687.3079058239
 10
281.9941373186
 20
692.4886154348
 10
274.0958716342
 20
696.2666832877
 10
264.3889284149
 20
698.3908286497
 10
254.4557872978
 20
699.2852404392
 10
241.0832294619
 20
698.4945185231
 10
227.7262680832
 20
694.7222601828
 10
215.0
 20
689.0
  0
LWPOLYLINE
  5
1C4
330
1F
100
AcDbEntity
  8
0
  6
Continuous
 62
     7
100
AcDbPolyline
 90
       33
 70
   128
 43
0.0
 10
178.9999008179
 20
565.0
 10
176.0867612156
 20
569.3556813084
 10
175.160147705
 20
571.3377736149
 10
174.9929068867
 20
572.2542986934
 10
174.9805018568
 20
572.6688672548
 10
174.9881341821
 20
572.8536946898
 10
174.994132865
 20
572.9355063424
 10
174.9972925193
 20
572.9715995346
 10
174.9987842545
 20
572.9874992796
 10
174.9994603316
 20
572.9944988077
 10
174.9997616276
 20
572.9975793058
 10
175.0
 20
573.0
 10
176.0961288087
 20
584.8264863922
 10
177.201200094
 20
596.6990933278
 10
178.5304467139
 20
608.5458738304
 10
180.299101526
 20
620.2948809235
 10
182.7223973884
 20
631.8741676307
 10
186.0155671588
 20
643.2117869755
 10
189.1167218246
 20
651.054690972
 10
192.9918637871
 20
658.1492465479
 10
197.6580269036
 20
664.8298136164
 10
202.9749468565
 20
671.0576337998
 10
208.8023593278
 20
676.7939487203
 10
215.0
 20
682.0
 10
221.2200686839
 20
686.2091299251
 10
227.9870463834
 20
689.6460433666
 10
235.143989741
 20
692.2783918456
 10
242.5339553991
 20
694.0738268831
 10
250.0
 20
695.0
 10
256.9470792156
 20
694.2732994655
 10
263.675181525
 20
691.8540439694
 10
270.3156930719
 20
688.7577664885
 10
277.0
 20
686.0
  0
LWPOLYLINE
  5
1C5
330
1F
100
AcDbEntity
  8
0
  6
Continuous
 62
     7
100
AcDbPolyline
 90
       21
 70
   128
 43
0.0
 10
276.9999504089
 20
686.0
 10
265.5870910191
 20
685.6466997225
 10
254.065576051
 20
685.7245325933
 10
242.7612730574
 20
684.9400991675
 10
232.0
 20
682.0
 10
225.5528587512
 20
678.7382486979
 10
219.4788972642
 20
674.6983201194
 10
213.8323730923
 20
669.9923726125
 10
208.6675437888
 20
664.7325645251
 10
204.0386669069
 20
659.0310542049
 10
200.0
 20
653.0
 10
195.8389325902
 20
645.3067065187
 10
192.3562618214
 20
637.2599272805
 10
189.4606334017
 20
628.9406555205
 10
187.0606930393
 20
620.4298844738
 10
185.0650864424
 20
611.8086073757
 10
183.3824593191
 20
603.1578174614
 10
182.5103168779
 20
596.9616098333
 10
182.7096208995
 20
587.0103656708
 10
183.9358863522
 20
577.0005595206
 10
185.0
 20
567.0
  0
LWPOLYLINE
  5
1C6
330
1F
100
AcDbEntity
  8
0
  6
Continuous
 62
     7
100
AcDbPolyline
 90
       31
 70
   128
 43
0.0
 10
185.9999895096
 20
568.0
 10
187.1890525469
 20
553.9325062713
 10
187.9256285593
 20
539.7615974313
 10
188.9638555947
 20
525.6596319989
 10
191.0578612107
 20
511.798968493
 10
194.6262508613
 20
499.2660543406
 10
198.5605333218
 20
490.8702990025
 10
202.8824299565
 20
484.1021975028
 10
207.9401518483
 20
477.8083687259
 10
213.6003294932
 20
472.0636127123
 10
219.7295933875
 20
466.9427295021
 10
224.4738182936
 20
463.8898201652
 10
229.2535950541
 20
461.9962616324
 10
234.3632306986
 20
460.8560005539
 10
240.8496185498
 20
460.3702358672
 10
247.2704691138
 20
460.7573604537
 10
249.6578957994
 20
461.1056420022
 10
255.2768247854
 20
462.1702466778
 10
260.8443565447
 20
463.4853130321
 10
266.3693016106
 20
465.0067386089
 10
271.8604705164
 20
466.6904209519
 10
288.0898553302
 20
472.2285964896
 10
304.330367184
 20
477.6507094547
 10
320.814271394
 20
481.7941206906
 10
332.5453302942
 20
483.2885496728
 10
342.292154784
 20
483.2930981063
 10
352.035716088
 20
482.3891434992
 10
361.7771477339
 20
480.8922711184
 10
371.5175832494
 20
479.1180662304
 10
381.2581561622
 20
477.3821141021
 10
391.0
 20
476.0
  0
LWPOLYLINE
  5
1C7
330
1F
100
AcDbEntity
  8
0
  6
Continuous
 62
     7
100
AcDbPolyline
 90
       20
 70
   128
 43
0.0
 10
423.999786377
 20
412.0
 10
408.7982260108
 20
414.4001503525
 10
393.4117237342
 20
417.2129213531
 10
384.8930838974
 20
418.1225375158
 10
376.5507823844
 20
418.0514806245
 10
368.4689158003
 20
416.6012636933
 10
365.3835030612
 20
415.5672413755
 10
358.5709660915
 20
412.6653946206
 10
349.6461115051
 20
408.9518403837
 10
341.9562753784
 20
405.898248964
 10
335.3885284114
 20
403.4183173286
 10
329.8299413044
 20
401.4257424448
 10
322.3597658042
 20
398.9070226848
 10
316.9342819745
 20
397.1261375354
 10
312.9942058138
 20
395.6556699704
 10
309.9802533208
 20
394.0682029638
 10
307.3331404943
 20
391.9363194895
 10
304.4935833329
 20
388.8326025215
 10
300.9022978352
 20
384.3296350337
 10
296.0
 20
378.0
  0
LWPOLYLINE
  5
1C8
330
1F
100
AcDbEntity
  8
0
  6
Continuous
 62
     7
100
AcDbPolyline
 90
       17
 70
   128
 43
0.0
 10
295.9997653961
 20
378.0
 10
309.351528166
 20
384.8220775689
 10
322.5680819374
 20
392.0018879926
 10
335.8926152245
 20
398.8955121325
 10
349.5680819374
 20
404.8590308497
 10
362.6678165722
 20
408.9704055143
 10
373.8802249414
 20
411.1068761955
 10
385.300934796
 20
412.1618566637
 10
391.047160439
 20
412.3161834792
 10
396.7947706439
 20
412.239012235
 10
402.5268684741
 20
411.9433010956
 10
408.2265569931
 20
411.4420082256
 10
412.7279819641
 20
410.8818129551
 10
414.8104826801
 20
410.2666822143
 10
416.7617014035
 20
409.3143437481
 10
422.9448133772
 20
404.3214648426
 10
429.0
 20
399.0
  0
LWPOLYLINE
  5
1C9
330
1F
100
AcDbEntity
  8
0
  6
Continuous
 62
     7
100
AcDbPolyline
 90
       36
 70
   128
 43
0.0
 10
428.9999008179
 20
336.9999999948
 10
419.7734644622
 20
336.9475243521
 10
410.535792736
 20
337.0421487745
 10
401.3070299667
 20
337.0190931448
 10
392.1072213074
 20
336.6135773459
 10
384.0108656985
 20
335.6146657528
 10
378.1099266136
 20
333.3053171752
 10
372.2975956291
 20
330.2965946142
 10
366.6737403838
 20
327.94656934
 10
361.1078762565
 20
327.4446928721
 10
359.8898361271
 20
327.7061573041
 10
358.0371140478
 20
328.3709507818
 10
354.4713869392
 20
329.8083581349
 10
350.9398887648
 20
331.3305368075
 10
340.0616001533
 20
336.6302246913
 10
324.9112478535
 20
345.5151427945
 10
310.4338172992
 20
355.5695777849
 10
298.236074318
 20
365.1431283117
 10
293.0266046729
 20
369.514253819
 10
290.7645289786
 20
371.4613562132
 10
289.7750065032
 20
372.3221000609
 10
289.3407347562
 20
372.7015551107
 10
289.1498714076
 20
372.868651943
 10
289.0659333728
 20
372.9422006322
 10
289.0290087357
 20
372.974567074
 10
289.012763463
 20
372.9888092773
 10
288.9999999922
 20
372.9999999948
 10
275.5464368574
 20
384.9466045532
 10
264.030493246
 20
395.4730360419
 10
254.3105382979
 20
404.6705160762
 10
246.244941153
 20
412.6302662713
 10
239.6920709512
 20
419.4435082426
 10
232.7897687752
 20
427.2295991418
 10
228.1861798415
 20
433.1976404007
 10
225.9285267965
 20
436.7744568355
 10
224.6615439829
 20
439.5048512766
  0
LWPOLYLINE
  5
1CA
330
1F
100
AcDbEntity
  8
0
  6
Continuous
 62
     7
100
AcDbPolyline
 90
       26
 70
   128
 43
0.0
 10
224.6614694595
 20
439.5048512766
 10
228.6883540211
 20
433.1493325629
 10
232.719907588
 20
426.7977527482
 10
236.8339373274
 20
420.5146589372
 10
241.1081758831
 20
414.3645982343
 10
245.6203558988
 20
408.4121177441
 10
250.4482100185
 20
402.7217645712
 10
256.7765382816
 20
396.1736482133
 10
278.4760158657
 20
376.1290830287
 10
301.5524743759
 20
357.6226961891
 10
315.7962365103
 20
347.2871332316
 10
326.5254597421
 20
339.943037724
 10
334.6936864048
 20
334.7178762652
 10
343.1740259153
 20
329.997986894
 10
351.9712904073
 20
326.1811963515
 10
361.0902920142
 20
323.665331379
 10
372.1791587702
 20
322.9586750016
 10
383.6247002294
 20
324.9420150761
 10
394.957985701
 20
328.492553115
 10
400.2985350012
 20
330.3296341744
 10
405.6560813322
 20
332.0797536533
 10
411.0440634957
 20
333.6034582511
 10
416.4759202936
 20
334.7612946674
 10
419.340704794
 20
335.1423692549
 10
427.6644370226
 20
334.4498609924
 10
436.0
 20
333.0
  0
LWPOLYLINE
  5
1CB
330
1F
100
AcDbEntity
  8
0
  6
Continuous
 62
     7
100
AcDbPolyline
 90
       14
 70
   128
 43
0.0
 10
435.9998703003
 20
333.0
 10
435.4775948299
 20
347.9822683202
 10
435.2072711054
 20
360.1815582409
 10
435.1286652427
 20
369.9505616762
 10
435.181413658
 20
377.6419705399
 10
435.3051527675
 20
383.6084767461
 10
435.4395189873
 20
388.2027722087
 10
435.5241487338
 20
391.7775488418
 10
435.498678423
 20
394.6854985593
 10
435.2174681896
 20
397.9384103556
 10
434.5469255285
 20
401.3955885144
 10
433.3671201418
 20
405.7577609192
 10
431.5581217316
 20
411.7256554532
 10
429.0
 20
420.0
  0
LWPOLYLINE
  5
1CC
330
1F
100
AcDbEntity
  8
0
  6
Continuous
 62
     7
100
AcDbPolyline
 90
       25
 70
   128
 43
0.0
 10
428.9999008179
 20
420.0
 10
435.7993529736
 20
405.8094805072
 10
442.6985883061
 20
391.6525029249
 10
448.1994706148
 20
377.0259385968
 10
451.9695922708
 20
360.8769443255
 10
453.6335512427
 20
351.3345939985
 10
454.6095216599
 20
341.7551551795
 10
454.6266153598
 20
332.2299756189
 10
453.4139441799
 20
322.8504030672
 10
451.2818215596
 20
315.7958100703
 10
448.0510253894
 20
309.6798933259
 10
443.8471403547
 20
304.0302982044
 10
438.0419587579
 20
298.0767149432
 10
431.640060369
 20
292.8644660575
 10
422.8164458444
 20
287.0308836781
 10
412.0494785923
 20
281.1044104819
 10
400.8091865749
 20
276.044887552
 10
389.2143926487
 20
271.8592949932
 10
379.0839130784
 20
268.9725125042
 10
372.2287514841
 20
267.6122312013
 10
367.5961168186
 20
267.8524936311
 10
362.9511380295
 20
268.8807949597
 10
358.2996014248
 20
270.3277419532
 10
353.6472933123
 20
271.8239413779
 10
349.0
 20
273.0
  0
LWPOLYLINE
  5
1CD
330
1F
100
AcDbEntity
  8
0
  6
Continuous
 62
     7
100
AcDbPolyline
 90
       12
 70
   128
 43
0.0
 10
360.9998226166
 20
282.0
 10
353.9190059563
 20
284.9342006087
 10
346.8932833146
 20
288.0596777371
 10
339.8287213094
 20
291.0507443381
 10
332.6312091748
 20
293.581713365
 10
324.5421405718
 20
295.457340878
 10
314.134660232
 20
296.7325239857
 10
303.6276947825
 20
297.2057352851
 10
293.0707965738
 20
297.2000159561
 10
271.958893871
 20
297.027072
 10
253.4787095162
 20
297.451584
 10
235.0
 20
298.0
  0
LWPOLYLINE
  5
1CE
330
1F
100
AcDbEntity
  8
0
  6
Continuous
 62
     7
100
AcDbPolyline
 90
        8
 70
   128
 43
0.0
 10
210.9999656677
 20
387.0
 10
178.3734533172
 20
388.2284046935
 10
171.9675587419
 20
388.3265885067
 10
165.5648100877
 20
388.2690637534
 10
159.1661366485
 20
388.0098346807
 10
157.1272108554
 20
387.7770752749
 10
150.5150793313
 20
385.6399211541
 10
144.0
 20
383.0
  0
LWPOLYLINE
  5
1CF
330
1F
100
AcDbEntity
  8
0
  6
Continuous
 62
     7
100
AcDbPolyline
 90
       15
 70
   128
 43
0.0
 10
139.9999856949
 20
398.0
 10
144.5050449446
 20
402.4542215488
 10
149.0839596465
 20
406.8653577703
 10
152.562813908
 20
411.9181160274
 10
153.6287301399
 20
414.8751443318
 10
154.8478763006
 20
419.3218438359
 10
155.7791517162
 20
423.8437512414
 10
156.4995298719
 20
428.4212357913
 10
158.2496423269
 20
442.9503482432
 10
159.8920830768
 20
452.6710016499
 10
161.6786693383
 20
458.8631984484
 10
163.420379258
 20
462.0519725272
 10
165.5717808947
 20
465.0537315232
 10
167.8569594187
 20
467.9944243697
 10
170.0
 20
471.0
  0
LWPOLYLINE
  5
1D0
330
1F
100
AcDbEntity
  8
0
  6
Continuous
 62
     7
100
AcDbPolyline
 90
       10
 70
   128
 43
0.0
 10
169.9999570847
 20
471.0
 10
166.3893056609
 20
482.0255237222
 10
162.7846521493
 20
493.0525528969
 10
159.9565843867
 20
504.2204416187
 10
158.1892622105
 20
513.6082910844
 10
157.2264838939
 20
523.0918451423
 10
158.0763319218
 20
532.3448922543
 10
161.9867934843
 20
543.2561496198
 10
167.5015820842
 20
553.6253090039
 10
173.0
 20
564.0
  0
LWPOLYLINE
  5
1D1
330
1F
100
AcDbEntity
  8
0
  6
Continuous
 62
     7
100
AcDbPolyline
 90
       21
 70
   128
 43
0.0
 10
255.9998035431
 20
675.0
 10
262.0740437316
 20
677.7595576814
 10
264.7848272065
 20
678.7201510182
 10
266.0134290257
 20
678.9424394878
 10
266.5633801595
 20
678.9885682139
 10
266.8073785006
 20
678.9977622672
 10
266.9151464044
 20
678.9995646846
 10
266.9626448921
 20
678.9999155449
 10
266.9835599604
 20
678.9999836343
 10
266.9927656474
 20
678.9999968303
 10
266.9968167425
 20
678.9999993862
 10
267.0
 20
679.0
 10
275.2529402727
 20
679.1043163861
 10
281.5738926509
 20
679.3616555455
 10
286.2468385791
 20
679.6886024796
 10
290.7874547869
 20
680.1270671492
 10
293.2174521066
 20
680.2529399455
 10
294.495267913
 20
679.7846952486
 10
295.5793395809
 20
678.4408074387
 10
297.4281044849
 20
675.9397508958
 10
301.0
 20
672.0
  0
LWPOLYLINE
  5
1D2
330
1F
100
AcDbEntity
  8
0
  6
Continuous
 62
     7
100
AcDbPolyline
 90
        9
 70
   128
 43
0.0
 10
315.9999847412
 20
677.0
 10
322.2742958321
 20
677.7768824411
 10
329.086201861
 20
678.3041028923
 10
335.3550069594
 20
677.1792718974
 10
337.1371299857
 20
676.1948173878
 10
338.6988031119
 20
674.8190402054
 10
340.0
 20
673.0
 10
343.8600958224
 20
665.6595450692
 10
347.0
 20
658.0
  0
LWPOLYLINE
  5
1D3
330
1F
100
AcDbEntity
  8
0
  6
Continuous
 62
     7
100
AcDbPolyline
 90
        7
 70
   128
 43
0.0
 10
301.9998073578
 20
676.0
 10
307.4425685313
 20
672.7591457344
 10
311.755863518
 20
668.1266623407
 10
315.0967446905
 20
662.4662786669
 10
317.622071779
 20
656.141723561
 10
320.3199773128
 20
645.7360975996
 10
322.0
 20
636.0
  0
LWPOLYLINE
  5
1D4
330
1F
100
AcDbEntity
  8
0
  6
Continuous
 62
     7
100
AcDbPolyline
 90
       10
 70
   128
 43
0.0
 10
315.9999847412
 20
637.0
 10
315.3588788269
 20
642.0311838478
 10
314.0890033068
 20
646.8952190114
 10
312.5643475543
 20
649.7830927791
 10
310.2670992724
 20
652.2037443009
 10
307.0
 20
654.0
 10
302.1765349493
 20
655.7684815723
 10
299.2157836149
 20
656.6553169531
 10
296.897140473
 20
656.9644938574
 10
294.0
 20
657.0
  0
LWPOLYLINE
  5
1D5
330
1F
100
AcDbEntity
  8
0
  6
Continuous
 62
     7
100
AcDbPolyline
 90
       14
 70
   128
 43
0.0
 10
309.9999427795
 20
657.0
 10
308.9031619083
 20
663.3148605222
 10
307.7889714505
 20
665.299605833
 10
305.7725698265
 20
666.5237014231
 10
303.2817575337
 20
666.9634174541
 10
299.5562664236
 20
666.9586487038
 10
292.2919994308
 20
666.6831878914
 10
279.3584871567
 20
665.606427914
 10
274.782300373
 20
664.9318656786
 10
270.2432930418
 20
664.0537067671
 10
268.8894648912
 20
663.7817643052
 10
267.7069527313
 20
663.6015818311
 10
266.5179579961
 20
663.4588246502
 10
262.0
 20
663.0
  0
LWPOLYLINE
  5
1D6
330
1F
100
AcDbEntity
  8
0
  6
Continuous
 62
     7
100
AcDbPolyline
 90
        7
 70
   128
 43
0.0
 10
197.9999542236
 20
636.0
 10
201.8924669858
 20
644.8312222816
 10
207.7155387643
 20
653.8796962214
 10
215.0569409533
 20
662.0852906192
 10
221.6217764856
 20
667.2506455324
 10
228.6694552061
 20
670.7269571419
 10
236.0
 20
672.0
  0
LWPOLYLINE
  5
1D7
330
1F
100
AcDbEntity
  8
0
  6
Continuous
 62
     7
100
AcDbPolyline
 90
        5
 70
   128
 43
0.0
 10
312.9999637604
 20
671.0
 10
324.9294596164
 20
663.3419033672
 10
334.9007176838
 20
653.5931444757
 10
341.4662241702
 20
644.7241214264
 10
347.0
 20
635.0
  0
LWPOLYLINE
  5
1D8
330
1F
100
AcDbEntity
  8
0
  6
Continuous
 62
     7
100
AcDbPolyline
 90
       29
 70
   128
 43
0.0
 10
192.999958992
 20
668.0
 10
188.8387807794
 20
658.9542361273
 10
183.865807621
 20
650.1325182538
 10
179.9449112995
 20
640.8099136843
 10
177.7737613583
 20
632.7869789732
 10
175.8014853583
 20
624.7104142891
 10
174.9662666265
 20
621.1485820148
 10
174.1366358452
 20
617.585938235
 10
172.9556729945
 20
611.7830717992
 10
172.0677533842
 20
605.423737487
 10
171.4751792573
 20
598.9891410295
 10
170.6942969919
 20
584.8303900738
 10
170.5823954397
 20
582.6327945413
 10
170.4613484109
 20
580.4487586266
 10
170.326822459
 20
578.2804814708
 10
170.1744841375
 20
576.1301622149
 10
170.0
 20
574.0
 10
169.5312544632
 20
571.9241454686
 10
168.6483380463
 20
570.5870334024
 10
166.0406157094
 20
568.426368243
 10
164.0
 20
566.0
 10
161.9293496644
 20
561.0282325191
 10
160.7712641048
 20
555.1666650503
 10
160.102650265
 20
550.1453096381
 10
159.3662159962
 20
545.5431512873
 10
158.7581019296
 20
543.3344144085
 10
158.0297870781
 20
542.1925526196
 10
155.5811169238
 20
540.0578453872
 10
153.0
 20
538.0
  0
LWPOLYLINE
  5
1D9
330
1F
100
AcDbEntity
  8
0
  6
Continuous
 62
     7
100
AcDbPolyline
 90
       35
 70
   128
 43
0.0
 10
152.999997139
 20
538.0
 10
151.2484788081
 20
544.431955534
 10
148.6504323854
 20
550.9871258111
 10
146.4771697699
 20
557.5487331826
 10
146.0
 20
564.0
 10
146.6936390688
 20
568.6535695783
 10
147.7569150695
 20
572.0838726296
 10
149.6917335354
 20
574.7222393661
 10
153.0
 20
577.0
 10
156.0387977712
 20
578.233023768
 10
159.2620595746
 20
579.3029499425
 10
161.2341245876
 20
580.1782774314
 10
162.8692893042
 20
581.3600968212
 10
164.0
 20
583.0
 10
165.3578826656
 20
586.299757693
 10
165.7960873493
 20
587.7962687463
 10
165.9282730754
 20
588.4669958425
 10
165.9721602169
 20
588.7647984614
 10
165.9884908288
 20
588.8963772825
 10
165.9950810079
 20
588.9543798454
 10
165.9978638699
 20
588.9799220499
 10
165.9990655798
 20
588.9911647165
 10
165.9995899166
 20
588.9961122844
 10
165.9998197689
 20
588.9982893682
 10
166.0
 20
589.0
 10
166.9698922077
 20
598.1511547917
 10
167.701681663
 20
605.0410704934
 10
168.2138959803
 20
610.0353285709
 10
168.6110432292
 20
614.7720670976
 10
168.6183642484
 20
617.2999717137
 10
168.2983897366
 20
618.8528798656
 10
167.7136503923
 20
620.6646289996
 10
167.2076119464
 20
622.625564744
 10
166.6302192775
 20
625.6154945889
 10
166.0
 20
630.0
  0
LWPOLYLINE
  5
1DA
330
1F
100
AcDbEntity
  8
0
  6
Continuous
 62
     7
100
AcDbPolyline
 90
       40
 70
   128
 43
0.0
 10
159.9999666214
 20
632.0
 10
159.551255997
 20
631.3885581536
 10
159.2748841015
 20
631.100669854
 10
159.1291800778
 20
631.0263985667
 10
159.0586007274
 20
631.0077854944
 10
159.0261396524
 20
631.0026530466
 10
159.0115714582
 20
631.0010151209
 10
159.0051050996
 20
631.0004169578
 10
159.0022488968
 20
631.0001776932
 10
159.000990029
 20
631.0000770666
 10
159.0004357124
 20
631.0000336927
 10
159.0001917328
 20
631.0000147828
 10
159.0
 20
631.0
 10
150.2674425387
 20
630.2675594943
 10
141.5377952648
 20
629.4840249529
 10
132.8050958431
 20
628.7540768392
 10
124.0633819387
 20
628.1823956167
 10
116.8808181621
 20
627.8871011827
 10
104.0592293429
 20
627.6422424121
 10
98.4222489968
 20
627.7596077492
 10
95.9448642438
 20
627.8761749904
 10
95.296401988
 20
627.9141641642
 10
94.6481112892
 20
627.9554113935
 10
94.0
 20
628.0
 10
92.8973450947
 20
628.7751896361
 10
92.4089965761
 20
629.4921036731
 10
92.1866496874
 20
629.791179078
 10
92.0837576608
 20
629.9116923711
 10
92.0371979414
 20
629.9618992399
 10
92.016436244
 20
629.983387101
 10
92.0072455427
 20
629.9927200977
 10
92.0031906885
 20
629.9968026459
 10
92.0014044175
 20
629.9985942909
 10
92.0006180434
 20
629.9993817064
 10
92.0002719584
 20
629.9997279931
 10
92.0
 20
630.0
 10
85.9680016627
 20
635.9801959432
 10
80.3556914309
 20
642.1728355182
 10
75.8155354836
 20
649.029057334
 10
73.0
 20
657.0
  0
LWPOLYLINE
  5
1DB
330
1F
100
AcDbEntity
  8
0
  6
Continuous
 62
     7
100
AcDbPolyline
 90
        8
 70
   128
 43
0.0
 10
239.9998903275
 20
668.0
 10
244.5982919743
 20
664.8552122546
 10
248.8321951069
 20
659.2156025956
 10
251.8230865321
 20
653.6548566685
 10
254.4534413053
 20
647.6041352728
 10
257.0320069052
 20
640.4027850717
 10
258.9144101192
 20
633.9415321912
 10
260.0
 20
629.0
  0
LWPOLYLINE
  5
1DC
330
1F
100
AcDbEntity
  8
0
  6
Continuous
 62
     7
100
AcDbPolyline
 90
       37
 70
   128
 43
0.0
 10
259.9999904633
 20
629.0
 10
253.8307860375
 20
627.7410049007
 10
246.249025073
 20
626.0406128962
 10
238.1109455184
 20
623.907195332
 10
230.2727757855
 20
621.3491235538
 10
223.674739664
 20
618.4205143718
 10
222.2344085048
 20
617.5876726728
 10
220.942072702
 20
616.7277866356
 10
219.9590002291
 20
615.9654468185
 10
218.9123152241
 20
614.754715669
 10
217.2743764626
 20
610.8036934187
 10
215.6945104883
 20
606.0592274301
 10
215.2288400163
 20
604.0446748664
 10
215.0
 20
602.0
 10
214.7614789725
 20
594.287984188
 10
215.2226643244
 20
588.4026344462
 10
217.0725175141
 20
583.3159674813
 10
219.2399889796
 20
580.0856118055
 10
221.3496864986
 20
577.653165124
 10
222.3853003818
 20
576.8998149162
 10
223.5509350531
 20
576.2446889887
 10
225.9891797038
 20
574.7216984728
 10
226.7049204111
 20
573.8474302424
 10
226.9035363129
 20
573.3930781056
 10
226.9643908829
 20
573.1771059412
 10
226.9856871033
 20
573.0787507308
 10
226.9939673911
 20
573.0348116059
 10
226.9973972001
 20
573.0153484791
 10
226.9988647674
 20
573.0067594171
 10
226.9995024352
 20
573.0029753229
 10
226.9997814468
 20
573.0013093705
 10
227.0
 20
573.0
 10
228.3670809305
 20
563.7078355804
 10
229.4315772286
 20
556.3415001189
 10
230.9125330613
 20
550.0212468673
 10
233.5289925961
 20
543.8673290771
 10
238.0
 20
537.0
  0
LWPOLYLINE
  5
1DD
330
1F
100
AcDbEntity
  8
0
  6
Continuous
 62
     7
100
AcDbPolyline
 90
       20
 70
   128
 43
0.0
 10
222.9999303818
 20
533.0
 10
216.4347780695
 20
541.9245072214
 10
212.173015328
 20
550.6553685588
 10
209.4419094474
 20
560.0395265762
 10
207.4686580996
 20
570.9239238372
 10
206.3803934081
 20
578.782870887
 10
205.690542155
 20
588.3913753394
 10
205.7155247402
 20
598.3546005457
 10
206.518340291
 20
608.4656939027
 10
208.1619879348
 20
618.5178028073
 10
210.7094667987
 20
628.3040746565
 10
213.2511130975
 20
635.3448882067
 10
216.3631792236
 20
642.0325478821
 10
220.0722429337
 20
648.2797877408
 10
222.7527961396
 20
651.9672680925
 10
224.2374447446
 20
653.6997555546
 10
225.8137575889
 20
655.354284555
 10
227.4635315426
 20
656.9455317266
 10
229.1685634759
 20
658.4881737026
 10
240.0
 20
668.0
  0
LWPOLYLINE
  5
1DE
330
1F
100
AcDbEntity
  8
0
  6
Continuous
 62
     7
100
AcDbPolyline
 90
        8
 70
   128
 43
0.0
 10
265.9997940063
 20
660.0
 10
268.8993449046
 20
660.7628681988
 10
271.7879916873
 20
661.6025528132
 10
274.6878584515
 20
662.3616738698
 10
277.6208633006
 20
662.8828513954
 10
282.2385877012
 20
663.0983101851
 10
294.118352318
 20
662.6946952159
 10
306.0
 20
662.0
  0
LWPOLYLINE
  5
1DF
330
1F
100
AcDbEntity
  8
0
  6
Continuous
 62
     7
100
AcDbPolyline
 90
       19
 70
   128
 43
0.0
 10
275.9997844696
 20
656.0
 10
277.3454029208
 20
654.1528735305
 10
278.1744599211
 20
653.2883025305
 10
278.6119360047
 20
653.0711089367
 10
278.8239388695
 20
653.0193583833
 10
278.9214613578
 20
653.0061112332
 10
278.9652318317
 20
653.002214799
 10
278.9846608111
 20
653.0008820142
 10
278.9932427549
 20
653.0003701189
 10
278.9970252607
 20
653.0001593687
 10
278.9986908142
 20
653.0000694474
 10
278.9994239
 20
653.0000304262
 10
279.0
 20
653.0
 10
290.2294767977
 20
653.120926381
 10
299.6793102317
 20
652.7926086596
 10
303.7181070148
 20
651.5390269395
 10
307.2894885499
 20
649.0679866084
 10
310.3859533679
 20
645.0111051381
 10
313.0
 20
639.0
  0
LWPOLYLINE
  5
1E0
330
1F
100
AcDbEntity
  8
0
  6
Continuous
 62
     7
100
AcDbPolyline
 90
        8
 70
   128
 43
0.0
 10
501.9998550415
 20
436.0
 10
493.6458025451
 20
433.757941282
 10
484.9913036272
 20
432.4805241979
 10
480.5051036183
 20
431.65812607
 10
476.1444154634
 20
430.4301210679
 10
473.8072681876
 20
429.3929614917
 10
470.2484769335
 20
425.9317878981
 10
467.0000054454
 20
422.0000022076
  0
LWPOLYLINE
  5
1E1
330
1F
100
AcDbEntity
  8
0
  6
Continuous
 62
     7
100
AcDbPolyline
 90
       13
 70
   128
 43
0.0
 10
438.9998912811
 20
457.0
 10
443.4180278937
 20
466.6093364442
 10
447.8949156106
 20
476.1993080792
 10
448.9606169988
 20
478.7461099199
 10
449.9493888471
 20
481.3182214844
 10
450.8444266886
 20
483.9211714214
 10
451.6289260563
 20
486.5604883798
 10
452.9459105034
 20
492.0931419024
 10
454.6241544638
 20
500.8201425941
 10
456.7470498494
 20
523.3814605065
 10
455.7418667048
 20
545.2134629024
 10
452.0217888238
 20
566.8937694957
 10
446.0
 20
589.0
  0
LWPOLYLINE
  5
1E2
330
1F
100
AcDbEntity
  8
0
  6
Continuous
 62
     7
100
AcDbPolyline
 90
       21
 70
   128
 43
0.0
 10
355.9999465942
 20
620.0
 10
356.6203495917
 20
619.5517155163
 10
356.9088684172
 20
619.2753761474
 10
356.9792287453
 20
619.1294703711
 10
356.9949966515
 20
619.0587442486
 10
356.9986328506
 20
619.0262059874
 10
356.999562841
 20
619.0116012732
 10
356.9998397191
 20
619.0051183406
 10
356.9999357057
 20
619.0022547467
 10
356.9999729183
 20
619.0009926075
 10
356.999988318
 20
619.0004368479
 10
356.9999949052
 20
619.0001922325
 10
357.0
 20
619.0
 10
357.2919224417
 20
615.5387985644
 10
357.8612300494
 20
610.3592484683
 10
358.4382413198
 20
604.0471242469
 10
358.7532747496
 20
597.1882004358
 10
358.5366488358
 20
590.3682515701
 10
357.518682075
 20
584.1730521854
 10
355.4296929642
 20
579.1883768169
 10
352.0
 20
576.0
  0
LWPOLYLINE
  5
1E3
330
1F
100
AcDbEntity
  8
0
  6
Continuous
 62
     7
100
AcDbPolyline
 90
       18
 70
   128
 43
0.0
 10
351.9999980927
 20
576.0
 10
352.039932762
 20
582.8154722649
 10
352.2993108686
 20
589.6918893988
 10
352.408276824
 20
596.5472048479
 10
351.9969731321
 20
603.2993720588
 10
350.6955422971
 20
609.8663444777
 10
349.5285273923
 20
613.6765587682
 10
348.6788760335
 20
617.9721722241
 10
347.1072271699
 20
621.8576649704
 10
345.9975472299
 20
622.9850702876
 10
344.4934865959
 20
623.7348983087
 10
342.2421553171
 20
624.0481202023
 10
339.3158676263
 20
624.1702585631
 10
337.0597427152
 20
624.1381112613
 10
334.3419683848
 20
623.7423765976
 10
332.2671661484
 20
622.919983014
 10
330.0737165166
 20
621.6721257388
 10
327.0
 20
620.0
  0
LWPOLYLINE
  5
1E4
330
1F
100
AcDbEntity
  8
0
  6
Continuous
 62
     7
100
AcDbPolyline
 90
       11
 70
   128
 43
0.0
 10
307.9998493195
 20
631.0
 10
306.8358473873
 20
629.6102289191
 10
306.2422714256
 20
629.1207528616
 10
306.0744021797
 20
629.0325641545
 10
306.0055385217
 20
629.0022911294
 10
305.1203780795
 20
628.6383009894
 10
301.9214057918
 20
627.3424655897
 10
295.5240722817
 20
625.0476590834
 10
289.8040942415
 20
623.8145963169
 10
283.9124205286
 20
623.7598517894
 10
277.0
 20
625.0
  0
LWPOLYLINE
  5
1E5
330
1F
100
AcDbEntity
  8
0
  6
Continuous
 62
     7
100
AcDbPolyline
 90
       13
 70
   128
 43
0.0
 10
184.9999427795
 20
573.0
 10
185.4128154294
 20
579.2783937245
 10
186.058028877
 20
588.1387069779
 10
187.0308426726
 20
598.4093601545
 10
188.4264591462
 20
608.9187736492
 10
190.0799453309
 20
617.4341946358
 10
192.1994523161
 20
624.4288416693
 10
193.1737756531
 20
626.5864281625
 10
194.0291417539
 20
628.0426453362
 10
194.1759300789
 20
628.2304055658
 10
194.3388139963
 20
628.3999329945
 10
196.0752829957
 20
629.3065884936
 10
198.0
 20
630.0
  0
LWPOLYLINE
  5
1E6
330
1F
100
AcDbEntity
  8
0
  6
Continuous
 62
     7
100
AcDbPolyline
 90
       18
 70
   128
 43
0.0
 10
227.9999256134
 20
578.0
 10
224.9425377839
 20
580.0224340214
 10
221.99710149
 20
582.1830708233
 10
220.0
 20
585.0
 10
218.1865801044
 20
593.9497878694
 10
218.035845759
 20
596.2393077213
 10
218.0930002157
 20
602.7854251065
 10
219.6503765837
 20
609.0259839996
 10
222.914018777
 20
613.1080716102
 10
225.9006995064
 20
614.9861425883
 10
229.5899051478
 20
616.559450109
 10
233.9830555763
 20
618.0540805646
 10
239.0815706669
 20
619.6961203473
 10
242.2938074993
 20
620.7879088854
 10
244.875142769
 20
621.7034501087
 10
247.3240697745
 20
622.5464525916
 10
253.8460712251
 20
624.1460624144
 10
261.0
 20
624.0
  0
LWPOLYLINE
  5
1E7
330
1F
100
AcDbEntity
  8
0
  6
Continuous
 62
     7
100
AcDbPolyline
 90
        7
 70
   128
 43
0.0
 10
244.9998855591
 20
619.0
 10
238.3105272089
 20
615.1940977928
 10
233.8801988125
 20
610.6650434145
 10
231.1830571959
 20
605.4673469809
 10
229.6931447443
 20
599.655518608
 10
228.5258910056
 20
589.4129586043
 10
227.0
 20
578.0
  0
LWPOLYLINE
  5
1E8
330
1F
100
AcDbEntity
  8
0
  6
Continuous
 62
     7
100
AcDbPolyline
 90
       30
 70
   128
 43
0.0
 10
333.9998722076
 20
618.0
 10
336.0731314969
 20
616.5344019077
 10
338.2727315902
 20
615.5140241552
 10
340.5619087432
 20
614.0327287209
 10
341.4198098689
 20
613.0246160014
 10
341.7560422519
 20
612.4791088683
 10
341.8949491083
 20
612.2165438454
 10
341.9542293846
 20
612.0964120339
 10
341.9799491031
 20
612.0426424903
 10
341.9911947363
 20
612.0188056807
 10
341.9961290057
 20
612.0082828351
 10
341.998297406
 20
612.0036460624
 10
341.9992509833
 20
612.0016045802
 10
342.0
 20
612.0
 10
345.2564668367
 20
602.6310686074
 10
345.7830164316
 20
594.9530078037
 10
344.0391803116
 20
588.915043579
 10
339.9357148541
 20
584.0195421762
 10
334.1946809772
 20
581.0632336869
 10
327.4703725933
 20
579.9738246481
 10
320.4170836148
 20
580.6790215965
 10
313.6891079538
 20
583.1065310691
 10
307.9407395228
 20
587.1840596026
 10
303.4734054255
 20
593.6205343179
 10
302.9158135957
 20
595.1086606381
 10
302.4797374671
 20
596.6684602124
 10
302.1721439613
 20
598.2991632599
 10
302.0
 20
600.0
 10
302.6894707252
 20
604.028997671
 10
304.0
 20
608.0
  0
LWPOLYLINE
  5
1E9
330
1F
100
AcDbEntity
  8
0
  6
Continuous
 62
     7
100
AcDbPolyline
 90
       25
 70
   128
 43
0.0
 10
246.9999790192
 20
613.0
 10
245.0935522709
 20
611.0990979707
 10
243.7209264289
 20
609.3686159172
 10
242.7424728393
 20
607.3285583526
 10
242.3304809262
 20
606.1238593369
 10
242.1467120015
 20
605.5154779356
 10
242.064853259
 20
605.2310216182
 10
242.0285976175
 20
605.1024775711
 10
242.0125953404
 20
605.0452515293
 10
242.005544378
 20
605.019942012
 10
242.002439999
 20
605.0087805604
 10
242.0010736913
 20
605.0038646234
 10
242.0
 20
605.0
 10
240.5004438419
 20
594.77729247
 10
241.8483001978
 20
586.3867097033
 10
245.5256847403
 20
579.8089437726
 10
251.802429834
 20
574.5517990924
 10
259.6346584162
 20
571.5370729547
 10
268.2849922161
 20
570.7372741895
 10
277.0160529627
 20
572.1249116267
 10
285.0904623852
 20
575.6724940963
 10
291.7708422129
 20
581.3525304284
 10
295.0858304609
 20
586.3103420203
 10
297.2350438734
 20
592.1955470548
 10
298.0
 20
599.0
  0
LWPOLYLINE
  5
1EA
330
1F
100
AcDbEntity
  8
0
  6
Continuous
 62
     7
100
AcDbPolyline
 90
       15
 70
   128
 43
0.0
 10
297.9998588562
 20
599.0
 10
299.6605177959
 20
592.9255471767
 10
302.0407791417
 20
587.6828682565
 10
306.104648158
 20
583.2797738309
 10
309.9185351901
 20
580.8241617935
 10
312.8366297012
 20
579.0952210369
 10
314.0827459959
 20
578.4447260638
 10
315.3549213175
 20
577.8651459243
 10
316.6587934057
 20
577.376798082
 10
318.0
 20
577.0
 10
322.2052275731
 20
576.1974842217
 10
326.2101250179
 20
575.8033388689
 10
333.6880311658
 20
576.3819990334
 10
340.5719217309
 20
579.0196596812
 10
347.0
 20
584.0
  0
LWPOLYLINE
  5
1EB
330
1F
100
AcDbEntity
  8
0
  6
Continuous
 62
     7
100
AcDbPolyline
 90
       13
 70
   128
 43
0.0
 10
336.9998931885
 20
565.0
 10
325.2320414422
 20
559.444837315
 10
315.2134317887
 20
555.5538151998
 10
306.3693176937
 20
553.2372563763
 10
298.1248458115
 20
552.4054835665
 10
289.9051627962
 20
552.9688194921
 10
283.0897588721
 20
554.3317343744
 10
275.6559369341
 20
556.4570546619
 10
267.3248595903
 20
559.3012816457
 10
259.3950973858
 20
562.2273870643
 10
256.6273865376
 20
563.2843542014
 10
244.5535458604
 20
568.4569055239
 10
233.0
 20
575.0
  0
LWPOLYLINE
  5
1EC
330
1F
100
AcDbEntity
  8
0
  6
Continuous
 62
     7
100
AcDbPolyline
 90
        6
 70
   128
 43
0.0
 10
232.999920845
 20
575.0
 10
233.2210562736
 20
586.7515470528
 10
234.4602901495
 20
598.7859135193
 10
236.2884114352
 20
604.6066710934
 10
239.3580661316
 20
609.7630513686
 10
244.0
 20
614.0
  0
LWPOLYLINE
  5
1ED
330
1F
100
AcDbEntity
  8
0
  6
Continuous
 62
     7
100
AcDbPolyline
 90
       32
 70
   128
 43
0.0
 10
294.9998378754
 20
601.0
 10
294.3533604265
 20
600.490278897
 10
294.1145514393
 20
600.2394736612
 10
294.0404216263
 20
600.1111606142
 10
294.0156779256
 20
600.0501337522
 10
294.0064753279
 20
600.0223043038
 10
294.0027659876
 20
600.0098621514
 10
294.001200827
 20
600.0043487522
 10
294.0005252169
 20
600.0019152772
 10
294.0002304854
 20
600.000843076
 10
294.0001012954
 20
600.000371022
 10
294.0
 20
600.0
 10
292.3744307334
 20
591.547880137
 10
291.5772846607
 20
588.8271843029
 10
288.3058413835
 20
584.4006700502
 10
283.2476757351
 20
580.4221205622
 10
277.4910078727
 20
577.2813753427
 10
275.6049833056
 20
576.4880186631
 10
273.8025651826
 20
575.8455053473
 10
272.1240579538
 20
575.3682738954
 10
270.6097660695
 20
575.0707628074
 10
267.2098661981
 20
574.8622534668
 10
262.5270136073
 20
575.1467805613
 10
258.3054707212
 20
576.0639986437
 10
254.5745306376
 20
577.5529647269
 10
250.4137338207
 20
580.3223050592
 10
247.2466318742
 20
583.8552857433
 10
245.1426602896
 20
588.0074493285
 10
244.1712545585
 20
592.6343383643
 10
244.7578279832
 20
599.292306013
 10
247.6458805198
 20
606.1949991118
 10
253.0
 20
613.0
  0
LWPOLYLINE
  5
1EE
330
1F
100
AcDbEntity
  8
0
  6
Continuous
 62
     7
100
AcDbPolyline
 90
       31
 70
   128
 43
0.0
 10
396.999835968
 20
493.0
 10
394.1140859954
 20
492.9327325326
 10
391.08658266
 20
492.5736480542
 10
388.8577498119
 20
492.5510165727
 10
386.9633132624
 20
493.133844104
 10
385.8498891387
 20
494.2011503418
 10
384.455552119
 20
496.6020454077
 10
383.1282016814
 20
500.7849350669
 10
381.9920310532
 20
508.8561534234
 10
380.5576431627
 20
515.3236648838
 10
378.4467226612
 20
519.8028681072
 10
376.5054071111
 20
524.2969908906
 10
375.9831978184
 20
530.1542936788
 10
376.8404819128
 20
537.4951705493
 10
377.3766233904
 20
540.9201630574
 10
377.8088688732
 20
544.3501447903
 10
377.9992776617
 20
547.7890742609
 10
377.7957908738
 20
554.4354730348
 10
377.1035968535
 20
561.3955505076
 10
375.8819887084
 20
568.3448680848
 10
374.7405586143
 20
572.9579671957
 10
373.3282012899
 20
577.4740024092
 10
371.632519351
 20
581.8558754358
 10
369.6411154132
 20
586.0664879861
 10
367.8525985804
 20
589.2339832863
 10
367.2346779888
 20
590.043238701
 10
366.5225510041
 20
590.7924329089
 10
363.473613205
 20
593.6056880905
 10
361.8302821328
 20
596.8518760371
 10
362.2309423994
 20
599.9114855418
 10
363.0
 20
603.0
  0
LWPOLYLINE
  5
1EF
330
1F
100
AcDbEntity
  8
0
  6
Continuous
 62
     7
100
AcDbPolyline
 90
       72
 70
   128
 43
0.0
 10
362.9999160767
 20
603.0
 10
365.7863368914
 20
603.697984
 10
367.0195339984
 20
603.9322943939
 10
367.567020949
 20
603.9861054941
 10
367.8091568494
 20
603.9972430094
 10
367.9159623128
 20
603.9994605381
 10
367.9630103038
 20
603.9998950739
 10
367.9837219777
 20
603.9999796449
 10
367.9928371739
 20
603.9999960557
 10
367.9968482603
 20
603.9999992361
 10
367.9986132159
 20
603.9999998521
 10
368.0
 20
604.0
 10
382.7505766284
 20
604.2090831918
 10
395.2399455833
 20
604.5745180152
 10
405.72851169
 20
604.7035823424
 10
414.4766797737
 20
604.2035540455
 10
421.7448546594
 20
602.6817109968
 10
427.4229238648
 20
599.9929713805
 10
432.2503148553
 20
595.7527153359
 10
436.4387463983
 20
589.641645228
 10
437.5818565006
 20
587.4376636184
 10
438.6932915605
 20
585.0353813536
 10
439.7784671847
 20
582.4266310408
 10
440.8427989797
 20
579.6032452869
 10
441.8917025521
 20
576.5570566988
 10
442.9305935086
 20
573.2798978837
 10
443.9648874557
 20
569.7636014484
 10
445.0
 20
566.0
 10
447.3291283207
 20
555.5896337959
 10
448.8812954799
 20
545.0096719143
 10
449.7427493861
 20
534.3402896533
 10
449.9991246821
 20
523.6564726147
 10
449.1214137515
 20
511.4642881653
 10
447.9671244105
 20
503.874213806
 10
446.3948424471
 20
496.1460097869
 10
444.450368742
 20
488.5964319698
 10
442.1795041754
 20
481.5422362162
 10
439.6280496276
 20
475.3001783878
 10
438.3714565528
 20
472.684561138
 10
437.4314962681
 20
470.6225212919
 10
434.6093367229
 20
464.8578258074
 10
433.2234954459
 20
462.8022308874
 10
432.5113450368
 20
462.164828053
 10
432.2190662504
 20
462.0327213351
 10
432.095182355
 20
462.0064039027
 10
432.0416415232
 20
462.0012456777
 10
432.0182756228
 20
462.0002416643
 10
432.0080322063
 20
462.0000468289
 10
432.0035324121
 20
462.0000090697
 10
432.0015539206
 20
462.0000017562
 10
432.0006836591
 20
462.00000034
 10
432.0
 20
462.0
 10
431.998829269
 20
462.0004612193
 10
431.9974055396
 20
462.0014687569
 10
431.993766441
 20
462.0046723305
 10
431.9837996284
 20
462.014835206
 10
431.9551056471
 20
462.0469428087
 10
431.8700545594
 20
462.1476211732
 10
431.6156741978
 20
462.4589499322
 10
430.8648276727
 20
463.3964052954
 10
428.7505860972
 20
466.0708361227
 10
423.4901232235
 20
472.8058567736
 10
420.2896744593
 20
476.9531091628
 10
417.3990387556
 20
480.7517766484
 10
415.1877185565
 20
483.7384091393
 10
414.5090292132
 20
484.7647028515
 10
413.2260789723
 20
487.2334894387
 10
412.2722796146
 20
488.7750585395
 10
411.0
 20
490.0
 10
407.8037645759
 20
491.5071897993
 10
402.4656051226
 20
492.5037617407
 10
397.0
 20
493.0
  0
LWPOLYLINE
  5
1F0
330
1F
100
AcDbEntity
  8
0
  6
Continuous
 62
     7
100
AcDbPolyline
 90
       10
 70
   128
 43
0.0
 10
361.9999885559
 20
590.0
 10
363.5483864894
 20
586.5508599897
 10
365.3452608609
 20
583.6195538702
 10
367.1116632796
 20
580.3498490774
 10
368.7756679595
 20
575.4680724347
 10
370.5936243567
 20
568.7980251912
 10
372.1144563716
 20
561.6845121782
 10
373.072968336
 20
551.3613025908
 10
373.0851297254
 20
541.6815196892
 10
373.0
 20
532.0
  0
LWPOLYLINE
  5
1F1
330
1F
100
AcDbEntity
  8
0
  6
Continuous
 62
     7
100
AcDbPolyline
 90
       27
 70
   128
 43
0.0
 10
54.9999773502
 20
567.0
 10
76.3636852469
 20
570.1421703614
 10
98.0180659216
 20
572.1914963993
 10
117.1051623951
 20
572.6934336625
 10
125.4639026898
 20
572.4354994679
 10
129.1280889484
 20
572.2179237489
 10
130.7371756341
 20
572.1010692586
 10
131.3687521766
 20
572.051560235
 10
132.0
 20
572.0
 10
133.2057216014
 20
571.4112896044
 10
134.1596370326
 20
570.3710301512
 10
136.2223001585
 20
566.8327525084
 10
138.0911802874
 20
562.4464559924
 10
138.6743370908
 20
560.8914604077
 10
138.8722310949
 20
560.3499076195
 10
138.9468852117
 20
560.1452076672
 10
138.9772387119
 20
560.0621497159
 10
138.9901036914
 20
560.0270046582
 10
138.9956686572
 20
560.0118156466
 10
138.9980986735
 20
560.0051859996
 10
138.9991642811
 20
560.0022793428
 10
138.9996324511
 20
560.0010024272
 10
139.0
 20
560.0
 10
146.0803455953
 20
536.5408743675
 10
150.7739857889
 20
512.9991262489
 10
154.080633088
 20
489.2078150059
 10
157.0
 20
465.0
  0
LWPOLYLINE
  5
1F2
330
1F
100
AcDbEntity
  8
0
  6
Continuous
 62
     7
100
AcDbPolyline
 90
       19
 70
   128
 43
0.0
 10
156.9999456406
 20
463.0
 10
152.5857009239
 20
457.0321411263
 10
149.928940104
 20
450.2008768437
 10
148.5489364298
 20
442.7546899368
 10
147.964908791
 20
434.9420631899
 10
147.6621659168
 20
426.0636825678
 10
147.0793407123
 20
417.386437037
 10
146.6263403573
 20
414.108731929
 10
145.994436814
 20
410.976943105
 10
145.6197306076
 20
409.9177705483
 10
145.0665135095
 20
409.0067856031
 10
142.546529692
 20
406.9557991732
 10
139.2783343264
 20
405.5595447493
 10
135.9318574315
 20
404.2871683646
 10
133.7736322837
 20
403.0948392
 10
132.2308361378
 20
401.4496320591
 10
131.7282291809
 20
400.2810832916
 10
131.4867735358
 20
399.3257092055
 10
131.0
 20
394.0
  0
LWPOLYLINE
  5
1F3
330
1F
100
AcDbEntity
  8
0
  6
Continuous
 62
     7
100
AcDbPolyline
 90
       31
 70
   128
 43
0.0
 10
80.9999704361
 20
395.0
 10
81.1361321132
 20
436.4409075071
 10
81.124204762
 20
454.6744279949
 10
81.070332716
 20
462.6968528639
 10
81.0342579381
 20
466.2266373361
 10
81.0157380661
 20
467.7797248582
 10
81.0070554088
 20
468.4630798086
 10
81.0035535368
 20
468.7315400765
 10
81.0
 20
469.0
 10
80.8498598849
 20
469.2893963597
 10
80.5210066526
 20
469.5015349913
 10
80.14820943
 20
469.7418514561
 10
80.040896532
 20
469.8749751183
 10
80.0125520429
 20
469.942440166
 10
80.0044066401
 20
469.9741517407
 10
80.0017174811
 20
469.9885232948
 10
80.0007123665
 20
469.9949300111
 10
80.0003050148
 20
469.9977652691
 10
80.0001325719
 20
469.9990159549
 10
80.0000580149
 20
469.9995668722
 10
80.0000254652
 20
469.9998093951
 10
80.0
 20
470.0
 10
76.5978040042
 20
495.7781156147
 10
72.405563413
 20
520.337658544
 10
70.6489994602
 20
528.0411075381
 10
68.5896446322
 20
535.8168201871
 10
66.1737534511
 20
543.7108598982
 10
63.8671485637
 20
550.3576199457
 10
63.1850372369
 20
552.0123818755
 10
59.1877285147
 20
559.5275420448
 10
55.0
 20
567.0
  0
LWPOLYLINE
  5
1F4
330
1F
100
AcDbEntity
  8
0
  6
Continuous
 62
     7
100
AcDbPolyline
 90
        6
 70
   128
 43
0.0
 10
242.9999113083
 20
564.0
 10
241.0683738543
 20
560.4119442159
 10
239.7751898715
 20
558.2818730101
 10
238.9725097967
 20
556.4270861421
 10
239.5868093867
 20
554.3360325409
 10
241.0
 20
551.0
  0
LWPOLYLINE
  5
1F5
330
1F
100
AcDbEntity
  8
0
  6
Continuous
 62
     7
100
AcDbPolyline
 90
        7
 70
   128
 43
0.0
 10
244.9998855591
 20
538.0
 10
242.0445484729
 20
540.7107860066
 10
239.0855285764
 20
543.5603112625
 10
236.7763321923
 20
546.8319367668
 10
235.4438861924
 20
551.4880902394
 10
233.7216005578
 20
560.6965052827
 10
233.0
 20
570.0
  0
LWPOLYLINE
  5
1F6
330
1F
100
AcDbEntity
  8
0
  6
Continuous
 62
     7
100
AcDbPolyline
 90
       19
 70
   128
 43
0.0
 10
46.8308329582
 20
563.2609614103
 10
54.5505567428
 20
553.2864811738
 10
60.5106641372
 20
541.2007570751
 10
64.971492318
 20
527.8341155558
 10
68.1933638047
 20
514.0168830573
 10
70.4366011168
 20
500.5793860212
 10
71.8830140849
 20
489.0785793531
 10
72.6896412358
 20
482.490856706
 10
73.8437041929
 20
473.4343207557
 10
74.8873321304
 20
464.3689660753
 10
75.6417936254
 20
455.2830762149
 10
76.0688859125
 20
444.8329984183
 10
76.3374507783
 20
431.9933676372
 10
75.9933454893
 20
419.1781824098
 10
75.5976779369
 20
414.1713595249
 10
75.0159801707
 20
409.1890216069
 10
74.2224521976
 20
404.2370105358
 10
73.8498862275
 20
402.2601495422
 10
73.1637936339
 20
395.6733334437
  0
LWPOLYLINE
  5
1F7
330
1F
100
AcDbEntity
  8
0
  6
Continuous
 62
     7
100
AcDbPolyline
 90
       29
 70
   128
 43
0.0
 10
44.5275902748
 20
376.5911515648
 10
42.6482630882
 20
382.1624699
 10
40.432258314
 20
387.6457355809
 10
38.3985505574
 20
393.7795709858
 10
35.6550559999
 20
403.3703667644
 10
33.0737936756
 20
413.0046249583
 10
30.8323353132
 20
422.5103902183
 10
28.3189670748
 20
434.9738189059
 10
27.1382784232
 20
446.8307401933
 10
27.0715799396
 20
451.1668815585
 10
27.0070035149
 20
456.0057057873
 10
26.9579825357
 20
460.7677886592
 10
26.9288073687
 20
465.4595543601
 10
26.9237683806
 20
470.0874270758
 10
26.9471559381
 20
474.6578309922
 10
27.0032604079
 20
479.1771902953
 10
27.0963721566
 20
483.6519291708
 10
27.9246992744
 20
501.2331641149
 10
29.6883721898
 20
518.614407088
 10
32.2321724258
 20
534.0709650237
 10
32.6445145555
 20
536.1218843381
 10
33.0765533812
 20
538.1810417344
 10
33.5287091091
 20
540.2490664092
 10
34.0014019456
 20
542.3265875589
 10
34.495052097
 20
544.4142343801
 10
35.0100797696
 20
546.5126360692
 10
37.8785288659
 20
552.4360066601
 10
42.4158202375
 20
558.2482218483
 10
46.830847615
 20
563.2609614103
  0
LWPOLYLINE
  5
1F8
330
1F
100
AcDbEntity
  8
0
  6
Continuous
 62
     7
100
AcDbPolyline
 90
       36
 70
   128
 43
0.0
 10
337.9998207092
 20
561.0
 10
334.2774037436
 20
556.4415952217
 10
329.5918018614
 20
551.4779505922
 10
325.4894114268
 20
548.2069839077
 10
321.2235970485
 20
546.2314755927
 10
317.2577931124
 20
545.7167234025
 10
312.4424095582
 20
545.4004763054
 10
307.614614308
 20
545.2581132643
 10
296.2102373482
 20
545.24083724
 10
291.0265981448
 20
545.2063068959
 10
285.8504160175
 20
545.0443227712
 10
282.8998594708
 20
544.8549897365
 10
280.386423714
 20
544.6293098744
 10
277.8731521426
 20
544.38450474
 10
272.3442300222
 20
543.9749891393
 10
269.9114934193
 20
543.9359088597
 10
268.8410653736
 20
543.9602028268
 10
268.4205344811
 20
543.9777131039
 10
268.0
 20
544.0
 10
267.4867068433
 20
544.4423896483
 10
267.2453356538
 20
544.8064274188
 10
267.1174336717
 20
544.9314540432
 10
267.0538010708
 20
544.9736209662
 10
267.024109913
 20
544.9891731702
 10
267.0106951821
 20
544.9953912732
 10
267.0047228701
 20
544.998002531
 10
267.0020813676
 20
544.999127023
 10
267.0009164429
 20
544.9996170367
 10
267.0004033591
 20
544.9998317183
 10
267.0001775021
 20
544.9999259991
 10
267.0
 20
545.0
 10
259.9981570658
 20
547.5935033245
 10
253.3714826372
 20
550.3841767285
 10
249.6258748672
 20
552.9026789463
 10
246.7426310079
 20
556.3315838337
 10
245.0
 20
561.0
  0
LWPOLYLINE
  5
1F9
330
1F
100
AcDbEntity
  8
0
  6
Continuous
 62
     7
100
AcDbPolyline
 90
        6
 70
   128
 43
0.0
 10
333.9998722076
 20
542.0
 10
326.427029458
 20
535.6089367652
 10
318.5252087384
 20
531.0634818963
 10
310.1726011521
 20
527.9576645983
 10
299.5838754088
 20
525.5932365706
 10
288.0
 20
524.0
  0
LWPOLYLINE
  5
1FA
330
1F
100
AcDbEntity
  8
0
  6
Continuous
 62
     7
100
AcDbPolyline
 90
        6
 70
   128
 43
0.0
 10
346.9998836517
 20
541.0
 10
342.8061575611
 20
534.6659690872
 10
337.3765482472
 20
529.5218660912
 10
331.0089863037
 20
525.4945501089
 10
322.7053074071
 20
522.0823153113
 10
314.0
 20
520.0
  0
LWPOLYLINE
  5
1FB
330
1F
100
AcDbEntity
  8
0
  6
Continuous
 62
     7
100
AcDbPolyline
 90
       36
 70
   128
 43
0.0
 10
312.9999637604
 20
521.0
 10
307.4714008577
 20
520.5091731927
 10
302.0187541393
 20
519.5832987029
 10
297.6806886501
 20
518.1287910813
 10
293.9411957896
 20
516.6902094737
 10
291.6885233366
 20
516.1056314766
 10
288.4186118266
 20
515.7002635281
 10
284.727105883
 20
515.3564681043
 10
279.8420208591
 20
515.071887163
 10
277.6905215949
 20
515.0141622535
 10
276.7438040011
 20
515.0027626737
 10
276.3272661167
 20
515.0005366307
 10
276.0
 20
515.0
 10
275.710585965
 20
515.1474887004
 10
275.4984492973
 20
515.4766365343
 10
275.2581437988
 20
515.8510787748
 10
275.125023818
 20
515.9589438985
 10
275.0575596157
 20
515.9874152103
 10
275.025848216
 20
515.9955868622
 10
275.0114766968
 20
515.9982812475
 10
275.0050699872
 20
515.9992873862
 10
275.0022347306
 20
515.9996949372
 10
275.000984045
 20
515.9998674188
 10
275.0004331278
 20
515.9999419833
 10
275.0001906049
 20
515.9999745345
 10
275.0
 20
516.0
 10
270.3398113654
 20
516.3966671266
 10
265.6601886346
 20
516.6033328734
 10
261.0
 20
517.0
 10
257.0970293362
 20
517.8487670212
 10
251.1765992757
 20
519.5521442928
 10
240.2468825739
 20
523.3722729635
 10
235.0921918984
 20
525.5551008634
 10
230.8030326284
 20
527.7629367024
 10
228.3620199644
 20
529.4385847288
 10
227.0
 20
531.0
  0
LWPOLYLINE
  5
1FC
330
1F
100
AcDbEntity
  8
0
  6
Continuous
 62
     7
100
AcDbPolyline
 90
       15
 70
   128
 43
0.0
 10
238.9999628067
 20
533.0
 10
244.6387926696
 20
531.8888508868
 10
250.1883813741
 20
530.2955052359
 10
255.688815673
 20
528.3886536498
 10
261.1801451256
 20
526.3369867307
 10
266.7024192914
 20
524.3091950812
 10
272.2956877298
 20
522.4739693035
 10
278.0
 20
521.0
 10
288.6346282915
 20
519.6918128326
 10
300.5980679089
 20
520.0303411506
 10
312.8533218702
 20
522.22300449
 10
321.6124470076
 20
525.2090539172
 10
329.5149238095
 20
529.4422329001
 10
336.1232691742
 20
535.0100465554
 10
341.0
 20
542.0
  0
LWPOLYLINE
  5
1FD
330
1F
100
AcDbEntity
  8
0
  6
Continuous
 62
     7
100
AcDbPolyline
 90
       15
 70
   128
 43
0.0
 10
352.9999256134
 20
541.0
 10
356.1747225487
 20
540.5276445809
 10
359.3584855608
 20
540.0830427219
 10
362.4156820853
 20
539.2498910207
 10
364.6219774827
 20
537.4815713979
 10
366.793938987
 20
534.1541265854
 10
368.5512366791
 20
530.8908069827
 10
370.0063922193
 20
527.9692704351
 10
371.6332677144
 20
524.558781625
 10
373.6322892823
 20
519.9373351554
 10
375.7802213232
 20
514.040308772
 10
377.8071488524
 20
507.7696853558
 10
379.5210592601
 20
502.3398611084
 10
380.7684268526
 20
498.1723784699
 10
382.0
 20
494.0
  0
LWPOLYLINE
  5
1FE
330
1F
100
AcDbEntity
  8
0
  6
Continuous
 62
     7
100
AcDbPolyline
 90
        5
 70
   128
 43
0.0
 10
205.9999704361
 20
526.0
 10
212.3016351023
 20
527.4502138902
 10
217.6317394141
 20
527.8258977187
 10
221.3968391881
 20
526.4883351947
 10
225.0
 20
523.0
  0
LWPOLYLINE
  5
1FF
330
1F
100
AcDbEntity
  8
0
  6
Continuous
 62
     7
100
AcDbPolyline
 90
       10
 70
   128
 43
0.0
 10
324.9998092651
 20
512.0
 10
328.4596153769
 20
516.2457559892
 10
332.7653109018
 20
521.1950192014
 10
336.4122238839
 20
523.6836565426
 10
340.3098953441
 20
523.810765761
 10
343.7895089623
 20
521.1991915136
 10
347.1302573874
 20
517.4641466245
 10
350.9445062745
 20
511.7432868284
 10
353.5917784098
 20
504.6717110389
 10
355.0
 20
496.0
  0
LWPOLYLINE
  5
200
330
1F
100
AcDbEntity
  8
0
  6
Continuous
 62
     7
100
AcDbPolyline
 90
       16
 70
   128
 43
0.0
 10
364.9997711182
 20
499.0
 10
364.3493441215
 20
498.4913284862
 10
364.110887027
 20
498.2404312895
 10
364.0383466006
 20
498.1117028849
 10
364.0146672139
 20
498.0503978836
 10
364.0060110078
 20
498.0224256455
 10
364.0025578319
 20
498.0099165492
 10
364.0011084872
 20
498.0043728835
 10
364.0004844415
 20
498.0019259332
 10
364.0002125159
 20
498.000847772
 10
364.0000933834
 20
498.0003730897
 10
364.0
 20
498.0
 10
363.0621053158
 20
493.070303383
 10
362.5132199422
 20
490.8190232103
 10
360.8954787901
 20
489.2563265318
 10
357.0
 20
488.0
  0
LWPOLYLINE
  5
201
330
1F
100
AcDbEntity
  8
0
  6
Continuous
 62
     7
100
AcDbPolyline
 90
        5
 70
   128
 43
0.0
 10
285.9997749329
 20
509.0
 10
291.5304950722
 20
511.6810311679
 10
297.0470718448
 20
514.3002792077
 10
303.1625793446
 20
514.972928
 10
319.0
 20
514.0
  0
LWPOLYLINE
  5
202
330
1F
100
AcDbEntity
  8
0
  6
Continuous
 62
     7
100
AcDbPolyline
 90
        6
 70
   128
 43
0.0
 10
306.9999217987
 20
509.0
 10
302.2401822954
 20
510.2432459088
 10
298.8979582168
 20
510.3438984918
 10
296.2041581621
 20
509.5833344186
 10
292.8155316631
 20
507.9640580503
 10
288.0
 20
506.0
  0
LWPOLYLINE
  5
203
330
1F
100
AcDbEntity
  8
0
  6
Continuous
 62
     7
100
AcDbPolyline
 90
       27
 70
   128
 43
0.0
 10
232.999920845
 20
466.0
 10
232.4871409623
 20
466.6362756792
 10
232.2366106597
 20
466.8759927093
 10
232.1095393988
 20
466.9542238631
 10
232.0493440842
 20
466.9817139782
 10
232.021941531
 20
466.992326515
 10
232.0096995196
 20
466.9966968761
 10
232.0042766072
 20
466.9985608942
 10
232.0018834195
 20
466.999369564
 10
232.0008290365
 20
466.9997231452
 10
232.0003648404
 20
466.9998782879
 10
232.0
 20
467.0
 10
229.1951909023
 20
467.5418910326
 10
227.9524397603
 20
467.7478069148
 10
227.4154047663
 20
467.8752202098
 10
227.1819770317
 20
467.9420804287
 10
227.079907073
 20
467.9739022758
 10
227.0351269311
 20
467.9883958217
 10
227.0154495633
 20
467.9948704898
 10
227.006796586
 20
467.9977384147
 10
227.0029902609
 20
467.9990040102
 10
227.0013156689
 20
467.9995615916
 10
227.0
 20
468.0
 10
219.8171168899
 20
472.1069425507
 10
214.1808547997
 20
478.478999104
 10
210.2041653097
 20
486.1115561053
 10
208.0
 20
494.0
  0
LWPOLYLINE
  5
204
330
1F
100
AcDbEntity
  8
0
  6
Continuous
 62
     7
100
AcDbPolyline
 90
       11
 70
   128
 43
0.0
 10
254.9998760223
 20
501.0
 10
257.7270316679
 20
503.1631607494
 10
260.7377149282
 20
506.2512439054
 10
262.8271082054
 20
508.1815676628
 10
264.9295991855
 20
509.5596018532
 10
267.0
 20
510.0
 10
271.570839955
 20
509.5095795028
 10
276.8407466267
 20
508.2254037962
 10
281.190279985
 20
505.5785261915
 10
282.5138316623
 20
503.5662783371
 10
283.0
 20
501.0
  0
LWPOLYLINE
  5
205
330
1F
100
AcDbEntity
  8
0
  6
Continuous
 62
     7
100
AcDbPolyline
 90
       11
 70
   128
 43
0.0
 10
251.9998550415
 20
469.0
 10
245.4432237895
 20
474.9182910129
 10
240.2278303198
 20
481.8453891962
 10
238.3757080397
 20
486.1907429077
 10
237.5776323692
 20
490.8859689786
 10
237.927790701
 20
495.3167350161
 10
238.2027859259
 20
496.5245073762
 10
238.5592611476
 20
497.75221328
 10
239.0
 20
499.0
 10
241.2213618843
 20
501.181079413
 10
244.0
 20
503.0
  0
LWPOLYLINE
  5
206
330
1F
100
AcDbEntity
  8
0
  6
Continuous
 62
     7
100
AcDbPolyline
 90
       10
 70
   128
 43
0.0
 10
317.9998397827
 20
507.0
 10
316.3323817208
 20
502.0784638823
 10
313.7043365355
 20
498.1417066907
 10
310.2679914369
 20
494.381067741
 10
307.091554026
 20
490.9802183265
 10
305.0335086846
 20
488.498838407
 10
302.8771965429
 20
486.1370801234
 10
298.782807501
 20
483.4619610005
 10
293.9599420845
 20
482.532287834
 10
289.0
 20
482.0
  0
LWPOLYLINE
  5
207
330
1F
100
AcDbEntity
  8
0
  6
Continuous
 62
     7
100
AcDbPolyline
 90
       48
 70
   128
 43
0.0
 10
388.9999389648
 20
489.0
 10
390.0916244368
 20
488.3527399272
 10
390.5869105901
 20
488.1139853057
 10
390.8149717528
 20
488.0401010451
 10
390.9178973087
 20
488.0155217756
 10
390.9637362912
 20
488.0064035927
 10
390.9840167333
 20
488.0027338285
 10
390.9929620545
 20
488.001186561
 10
390.9969022733
 20
488.0005189173
 10
390.9986368005
 20
488.0002277092
 10
390.9994001535
 20
488.000100073
 10
391.0
 20
488.0
 10
397.3104858961
 20
487.89430411
 10
403.5145666631
 20
487.6529217045
 10
404.7679639081
 20
487.2887158737
 10
405.942458728
 20
486.7415223037
 10
407.0588741768
 20
485.9500774516
 10
409.4284829027
 20
483.7585558955
 10
411.6172069666
 20
481.4004467794
 10
419.0469172852
 20
471.049865605
 10
421.2230357565
 20
467.5765605157
 10
423.4103639224
 20
464.108473382
 10
425.6683495822
 20
460.6993203058
 10
428.0564405351
 20
457.4028173892
 10
431.1524608843
 20
453.6577514842
 10
436.0423895356
 20
448.0643536474
 10
441.0024066857
 20
442.5332113785
 10
446.0190770223
 20
437.0524008556
 10
463.9317837414
 20
417.9858111708
 10
466.2863267166
 20
415.4968815133
 10
468.6386880909
 20
413.0060267618
 10
470.9875519854
 20
410.5120790756
 10
473.3316025211
 20
408.0138706138
 10
475.6695238189
 20
405.5102335355
 10
478.0
 20
403.0
 10
483.9007910804
 20
397.7587235186
 10
489.5533023769
 20
392.3751438326
 10
491.5373866041
 20
389.1825707317
 10
493.0286480406
 20
383.6276791037
 10
493.432722826
 20
376.8197915575
 10
493.1584659127
 20
369.8705860371
 10
492.9802654615
 20
362.9577781938
 10
493.672509633
 20
356.2590836788
 10
495.7305625503
 20
350.503919549
 10
498.6702401288
 20
346.5500340454
 10
503.8179912256
 20
342.1555858181
 10
509.5567467096
 20
338.1833446818
 10
515.0
 20
334.0
  0
LWPOLYLINE
  5
208
330
1F
100
AcDbEntity
  8
0
  6
Continuous
 62
     7
100
AcDbPolyline
 90
       10
 70
   128
 43
0.0
 10
514.9998664856
 20
334.0
 10
512.4384593255
 20
330.4547954447
 10
509.9219153645
 20
326.8390054882
 10
508.7895342821
 20
325.6439966378
 10
507.5103771716
 20
324.6792322658
 10
506.0410869197
 20
324.0127257666
 10
500.531096614
 20
322.5156024132
 10
486.8566957749
 20
320.1752925832
 10
472.935268718
 20
319.1970238012
 10
459.0
 20
319.0
  0
LWPOLYLINE
  5
209
330
1F
100
AcDbEntity
  8
0
  6
Continuous
 62
     7
100
AcDbPolyline
 90
        8
 70
   128
 43
0.0
 10
491.9998645782
 20
385.0
 10
488.8756793092
 20
385.7609701593
 10
485.7612318489
 20
386.597152206
 10
482.6364295371
 20
387.3544534927
 10
479.4810442919
 20
387.8787813726
 10
474.8812303213
 20
388.0936728839
 10
463.4414353749
 20
387.6892850313
 10
452.0
 20
387.0
  0
LWPOLYLINE
  5
20A
330
1F
100
AcDbEntity
  8
0
  6
Continuous
 62
     7
100
AcDbPolyline
 90
       56
 70
   128
 43
0.0
 10
477.9999256134
 20
422.0
 10
478.5110748858
 20
422.6419112657
 10
478.7617615086
 20
422.8811345283
 10
478.8895388183
 20
422.9571354914
 10
478.9502069301
 20
422.9831321856
 10
478.9778522053
 20
422.9929780382
 10
478.990208012
 20
422.9969889553
 10
478.995682373
 20
422.9986904633
 10
478.998098467
 20
422.9994267791
 10
478.999162981
 20
422.9997483596
 10
478.9996316449
 20
422.9998893899
 10
479.0
 20
423.0
 10
483.2346355197
 20
424.1954892589
 10
487.4961438605
 20
425.2951670348
 10
491.7668257499
 20
426.3626177426
 10
496.0289819153
 20
427.4614257976
 10
498.7243711318
 20
428.2341450338
 10
499.7696724773
 20
428.6535729941
 10
500.8065493787
 20
429.1050936657
 10
501.8483384943
 20
429.5234858538
 10
502.908376482
 20
429.8435283635
 10
504.0
 20
430.0
 10
512.4131891473
 20
429.7452480455
 10
514.6131177492
 20
429.5242748265
 10
516.8091410515
 20
429.2704927868
 10
519.0
 20
429.0
 10
522.5172203717
 20
427.6688794456
 10
525.8514622408
 20
424.9442567108
 10
528.8720453725
 20
421.3923091093
 10
532.1574995302
 20
416.3963417501
 10
533.2803840752
 20
414.3894920761
 10
533.7019376073
 20
413.5870185907
 10
533.8725270522
 20
413.2532275238
 10
533.9446300696
 20
413.1104109822
 10
533.9757768454
 20
413.0483829618
 10
533.9893688906
 20
413.0212499822
 10
533.9953275585
 20
413.0093425164
 10
533.9979451418
 20
413.0041092583
 10
534.0
 20
413.0
 10
540.5028175887
 20
397.0528254994
 10
544.5321346142
 20
380.5988307079
 10
546.3200665138
 20
363.8176705952
 10
545.641453824
 20
341.4700140829
 10
544.3713188114
 20
331.6620875766
 10
543.6421977784
 20
327.3652480172
 10
543.434797739
 20
326.2423522361
 10
543.2207086149
 20
325.120584942
 10
543.0
 20
324.0
 10
542.0853847722
 20
322.416923181
 10
540.2536718962
 20
321.234071436
 10
534.9815000548
 20
319.816065488
 10
532.112314517
 20
319.4544224449
 10
529.468578186
 20
319.2400267959
 10
527.3359277758
 20
319.1096341209
 10
526.0
 20
319.0
 10
506.0
 20
317.0
  0
LWPOLYLINE
  5
20B
330
1F
100
AcDbEntity
  8
0
  6
Continuous
 62
     7
100
AcDbPolyline
 90
       20
 70
   128
 43
0.0
 10
505.9995651245
 20
317.0
 10
508.105935549
 20
318.3122136903
 10
510.5651164667
 20
319.1370852565
 10
512.6439491809
 20
319.9720230028
 10
513.4452285107
 20
320.4913181756
 10
513.7650179344
 20
320.7638995152
 10
513.8984588251
 20
320.8936218496
 10
513.9556875332
 20
320.9527008692
 10
513.9805739272
 20
320.9790921422
 10
513.9914664065
 20
320.9907818385
 10
513.9962479102
 20
320.9959403817
 10
513.9983496019
 20
320.9982130652
 10
514.0
 20
321.0
 10
517.9328083951
 20
326.5886820412
 10
519.2479180248
 20
331.6785982005
 10
518.4244913583
 20
336.3100339845
 10
515.9416908646
 20
340.5232748996
 10
510.878224076
 20
345.5600333719
 10
504.8523962814
 20
350.0204445484
 10
499.0
 20
354.0
  0
LWPOLYLINE
  5
20C
330
1F
100
AcDbEntity
  8
0
  6
Continuous
 62
     7
100
AcDbPolyline
 90
       13
 70
   128
 43
0.0
 10
498.9998340607
 20
354.0
 10
498.6931445503
 20
364.1712277363
 10
498.8675177739
 20
371.8717371973
 10
499.343230206
 20
377.5054454251
 10
499.9403923813
 20
381.4762694614
 10
500.4791148349
 20
384.188126348
 10
500.7962866863
 20
386.4228672704
 10
500.3897225719
 20
388.1104928717
 10
498.9080758803
 20
390.0399036241
 10
496.0
 20
393.0
 10
493.125
 20
395.875
 10
490.25
 20
398.75
 10
473.0
 20
416.0
  0
LWPOLYLINE
  5
20D
330
1F
100
AcDbEntity
  8
0
  6
Continuous
 62
     7
100
AcDbPolyline
 90
       23
 70
   128
 43
0.0
 10
478.9998531342
 20
417.0
 10
479.5234465117
 20
416.3892847441
 10
479.7730491822
 20
416.147328212
 10
479.8959306243
 20
416.0589819408
 10
479.9533202763
 20
416.0247183572
 10
479.9792824738
 20
416.0106284941
 10
479.9908492044
 20
416.0046278609
 10
479.995966812
 20
416.0020267716
 10
479.9982240695
 20
416.0008899374
 10
479.9992183332
 20
416.0003912153
 10
479.9996560168
 20
416.0001720656
 10
480.0
 20
416.0
 10
485.2676480113
 20
413.7880509944
 10
486.8293590588
 20
413.0843985956
 10
491.4984335916
 20
409.5173354162
 10
495.9165478989
 20
403.624027102
 10
499.4945745716
 20
396.7750223502
 10
502.0667099644
 20
390.1498150855
 10
503.3879148047
 20
385.4196143247
 10
504.1357192523
 20
381.8358574374
 10
504.7708828565
 20
378.2269696965
 10
505.3675837335
 20
374.6095006885
 10
506.0
 20
371.0
  0
LWPOLYLINE
  5
20E
330
1F
100
AcDbEntity
  8
0
  6
Continuous
 62
     7
100
AcDbPolyline
 90
       23
 70
   128
 43
0.0
 10
505.9995651245
 20
371.0
 10
507.2314176463
 20
371.8969352805
 10
507.807798313
 20
372.4496399474
 10
507.9525940422
 20
372.7412906698
 10
507.9870944112
 20
372.882625913
 10
507.9959258445
 20
372.9476409052
 10
507.9985234674
 20
372.9768212211
 10
507.9994119905
 20
372.9897738741
 10
507.9997532541
 20
372.9954951699
 10
507.9998937542
 20
372.9980168405
 10
507.9999537017
 20
372.9991272094
 10
507.9999797159
 20
372.9996159333
 10
508.0
 20
373.0
 10
508.0247492954
 20
378.6832895842
 10
507.4867815685
 20
384.9306193085
 10
506.3007097974
 20
391.3639721926
 10
504.3811469602
 20
397.6053312561
 10
501.642706035
 20
403.2766795187
 10
498.0
 20
408.0
 10
493.794039739
 20
412.4906715386
 10
489.2119664836
 20
417.0472635898
 10
484.0239099865
 20
420.5802238462
 10
478.0
 20
422.0
  0
LWPOLYLINE
  5
20F
330
1F
100
AcDbEntity
  8
0
  6
Continuous
 62
     7
100
AcDbPolyline
 90
        9
 70
   128
 43
0.0
 10
217.9999351501
 20
238.0
 10
215.6085264662
 20
237.0197926739
 10
213.549156624
 20
235.8882563562
 10
211.5872491124
 20
234.6832803708
 10
209.4881625703
 20
233.4827540419
 10
207.0172556365
 20
232.3645666937
 10
201.9885071516
 20
230.8075065422
 10
187.1323592819
 20
228.4359576325
 10
172.0
 20
228.0
  0
LWPOLYLINE
  5
210
330
1F
100
AcDbEntity
  8
0
  6
Continuous
 62
     7
100
AcDbPolyline
 90
       11
 70
   128
 43
0.0
 10
180.999994278
 20
289.0
 10
178.6600107358
 20
314.6167243937
 10
174.9975071745
 20
339.8628549865
 10
173.646471054
 20
346.3783144703
 10
172.0843451854
 20
352.843772279
 10
170.2861464799
 20
359.2541266697
 10
168.2268918486
 20
365.6042758995
 10
166.8504038525
 20
369.3783855969
 10
166.4769358755
 20
370.1988182514
 10
163.7495420696
 20
374.592654197
 10
161.0
 20
379.0
  0
LWPOLYLINE
  5
211
330
1F
100
AcDbEntity
  8
0
  6
Continuous
 62
     7
100
AcDbPolyline
 90
       23
 70
   128
 43
0.0
 10
165.9998893738
 20
229.0
 10
163.6190908447
 20
228.8771032826
 10
161.2111525886
 20
229.8819678188
 10
156.6573379217
 20
234.161113412
 10
154.0909479621
 20
237.8010823338
 10
152.1373861073
 20
241.300734355
 10
151.0
 20
244.0
 10
147.5504766894
 20
257.4182402741
 10
146.9492514965
 20
260.2415615321
 10
145.3885356293
 20
268.240773421
 10
144.0514341655
 20
276.2872209534
 10
142.9414193375
 20
284.3713015668
 10
142.1802566291
 20
291.2528834961
 10
141.5872003705
 20
298.1487796456
 10
141.1643715636
 20
305.0531243212
 10
140.8672564117
 20
312.6741233421
 10
140.5843553346
 20
322.0397877906
 10
140.5926709903
 20
332.1457523065
 10
141.1487617574
 20
341.9421945691
 10
142.5049117359
 20
351.6084143752
 10
144.9237492318
 20
360.7618378194
 10
148.6679025512
 20
369.0198909962
 10
154.0
 20
376.0
  0
LWPOLYLINE
  5
212
330
1F
100
AcDbEntity
  8
0
  6
Continuous
 62
     7
100
AcDbPolyline
 90
       30
 70
   128
 43
0.0
 10
153.9999246597
 20
376.0
 10
158.0042945125
 20
373.6486756057
 10
160.6283465297
 20
370.0432356243
 10
162.7756969661
 20
365.0997913013
 10
165.978420322
 20
357.2915419627
 10
167.2037179403
 20
353.7968736952
 10
167.6710521325
 20
352.2371510956
 10
167.8596962095
 20
351.5456944314
 10
167.9391490687
 20
351.2403737011
 10
167.9733985712
 20
351.1058169549
 10
167.9883290379
 20
351.0465696814
 10
167.9948713096
 20
351.0204926431
 10
167.9977446423
 20
351.0090171473
 10
168.0
 20
351.0
 10
173.154172184
 20
325.3256663749
 10
175.8461179396
 20
298.8374629572
 10
175.6178320539
 20
272.5461820064
 10
174.6292331705
 20
262.4919231569
 10
173.8343510014
 20
256.8213780007
 10
173.577805592
 20
254.550317479
 10
173.3509265306
 20
252.1729298858
 10
173.1167725804
 20
249.7320609574
 10
172.8384025045
 20
247.2705564302
 10
172.1568421656
 20
243.1491982781
 10
171.0565291093
 20
239.3045652632
 10
169.7475443541
 20
236.4910202206
 10
169.161911598
 20
234.783077782
 10
168.1268136598
 20
231.2583799174
 10
167.2953667316
 20
229.8650450706
 10
166.0
 20
229.0
  0
LWPOLYLINE
  5
213
330
1F
100
AcDbEntity
  8
0
  6
Continuous
 62
     7
100
AcDbPolyline
 90
       15
 70
   128
 43
0.0
 10
547.9998588562
 20
314.0
 10
546.5757515112
 20
311.2822289431
 10
545.420110285
 20
309.0021132647
 10
544.1042440296
 20
308.0309233797
 10
542.9992742522
 20
307.7322117134
 10
541.5881842151
 20
307.371359234
 10
539.3506889888
 20
306.8362757025
 10
530.0951209597
 20
305.0131736868
 10
524.0241130432
 20
304.0677528204
 10
517.9904373051
 20
303.2517687633
 10
505.9699433245
 20
301.8821080127
 10
490.8698548643
 20
300.4876275619
 10
475.7824703949
 20
299.0189132496
 10
460.7963365591
 20
297.0112693157
 10
446.0
 20
294.0
  0
LWPOLYLINE
  5
214
330
1F
100
AcDbEntity
  8
0
  6
Continuous
 62
     7
100
AcDbPolyline
 90
       13
 70
   128
 43
0.0
 10
445.9998607635
 20
294.0
 10
446.8326596589
 20
295.4504311426
 10
448.2903556467
 20
297.7728672844
 10
451.0992364844
 20
301.8815485638
 10
453.485796621
 20
304.7045067764
 10
453.8708647773
 20
304.9609999088
 10
453.948542306
 20
304.9890048642
 10
453.9804095072
 20
304.996645577
 10
453.9939747046
 20
304.9990854507
 10
454.0989413914
 20
305.0141316674
 10
456.2404638236
 20
305.3186266682
 10
464.9232639637
 20
306.5267290033
 10
545.0
 20
316.0
  0
LWPOLYLINE
  5
215
330
1F
100
AcDbEntity
  8
0
  6
Continuous
 62
     7
100
AcDbPolyline
 90
        6
 70
   128
 43
0.0
 10
529.9997329712
 20
299.0
 10
524.1617399719
 20
294.3166531398
 10
517.8942184716
 20
291.2213432077
 10
511.2193544684
 20
289.2971972695
 10
502.8594183146
 20
287.9659574093
 10
494.0
 20
287.0
  0
LWPOLYLINE
  5
216
330
1F
100
AcDbEntity
  8
0
  6
Continuous
 62
     7
100
AcDbPolyline
 90
       52
 70
   128
 43
0.0
 10
202.9999494553
 20
276.0
 10
203.4494341182
 20
276.6043451904
 10
203.7258548629
 20
276.8917311603
 10
203.8712558904
 20
276.9691182453
 10
203.9416148155
 20
276.989998015
 10
203.9739599707
 20
276.9963225
 10
203.9884733186
 20
276.9985244262
 10
203.9949147861
 20
276.9993785519
 10
203.9977598886
 20
276.9997319638
 10
203.9990138435
 20
276.9998831112
 10
203.9995659928
 20
276.9999487718
 10
203.9998090178
 20
276.9999774989
 10
204.0
 20
277.0
 10
222.482687113
 20
278.6542267192
 10
230.6198943798
 20
279.3358083849
 10
234.1948034517
 20
279.688093963
 10
235.766161119
 20
279.858468213
 10
236.4572018696
 20
279.9368534114
 10
236.7286191666
 20
279.9682518363
 10
237.0
 20
280.0
 10
237.4999111938
 20
280.5007693732
 10
237.7410314759
 20
280.8610410759
 10
237.8746233823
 20
280.962539529
 10
237.9422896667
 20
280.9887884876
 10
237.9740865605
 20
280.9961458859
 10
237.988494835
 20
280.9985180552
 10
237.9949175328
 20
280.9993897729
 10
237.9977597873
 20
280.9997396342
 10
237.9990135446
 20
280.9998870169
 10
237.999565812
 20
280.9999505932
 10
237.9998089287
 20
280.9999783202
 10
238.0
 20
281.0
 10
246.4788084755
 20
281.9709994975
 10
254.95614173
 20
282.9556174203
 10
263.4333615061
 20
283.9412829144
 10
271.911829546
 20
284.9154251254
 10
280.392907592
 20
285.8654731992
 10
288.8779573865
 20
286.7788562814
 10
294.3537664561
 20
287.3113088058
 10
298.4595784913
 20
287.61441872
 10
302.5700687223
 20
287.8640122791
 10
306.6822965688
 20
288.0937283347
 10
310.7933214507
 20
288.3372057388
 10
314.9002027879
 20
288.6280833433
 10
319.0
 20
289.0
 10
322.9363892108
 20
289.6751856111
 10
327.2017498377
 20
290.4998329799
 10
331.6162355457
 20
290.8245638588
 10
336.0
 20
290.0
 10
340.23001443
 20
287.7232988782
 10
344.6225779632
 20
284.6911973983
 10
349.0
 20
282.0
  0
LWPOLYLINE
  5
217
330
1F
100
AcDbEntity
  8
0
  6
Continuous
 62
     7
100
AcDbPolyline
 90
        6
 70
   128
 43
0.0
 10
29.1700065136
 20
551.9850006493
 10
24.7522177199
 20
527.6817825427
 10
22.4495166903
 20
502.1621657536
 10
22.2619102158
 20
475.4261502823
 10
24.7561631333
 20
442.3542324642
 10
30.1883471356
 20
407.5926996397
  0
ENDSEC
  0
SECTION
  2
OBJECTS
  0
DICTIONARY
  5
C
330
0
100
AcDbDictionary
281
     1
  3
ACAD_GROUP
350
D
  3
ACAD_LAYOUT
350
1A
  3
ACAD_MLINESTYLE
350
17
  3
ACAD_PLOTSETTINGS
350
19
  3
ACAD_PLOTSTYLENAME
350
E
  3
ACAD_SCALELIST
350
47
  0
DICTIONARY
  5
D
102
{ACAD_REACTORS
330
C
102
}
330
C
100
AcDbDictionary
281
     1
  0
DICTIONARY
  5
1A
102
{ACAD_REACTORS
330
C
102
}
330
C
100
AcDbDictionary
281
     1
  3
Layout1
350
1E
  3
Layout2
350
26
  3
Model
350
22
  0
DICTIONARY
  5
17
102
{ACAD_REACTORS
330
C
102
}
330
C
100
AcDbDictionary
281
     1
  3
Standard
350
18
  0
DICTIONARY
  5
19
102
{ACAD_REACTORS
330
C
102
}
330
C
100
AcDbDictionary
281
     1
  0
ACDBDICTIONARYWDFLT
  5
E
102
{ACAD_REACTORS
330
C
102
}
330
C
100
AcDbDictionary
281
     1
  3
Normal
350
F
100
AcDbDictionaryWithDefault
340
F
  0
DICTIONARY
  5
47
102
{ACAD_REACTORS
330
C
102
}
330
C
100
AcDbDictionary
281
     1
  3
A0
350
48
  3
A1
350
49
  3
A2
350
4A
  3
A3
350
4B
  3
A4
350
4C
  3
A5
350
4D
  3
A6
350
4E
  3
A7
350
4F
  3
A8
350
50
  3
A9
350
51
  3
B0
350
52
  3
B1
350
53
  3
B2
350
54
  3
B3
350
55
  3
B4
350
56
  3
B5
350
57
  3
B6
350
58
  3
B7
350
59
  3
B8
350
5A
  3
B9
350
5B
  3
C0
350
5C
  3
C1
350
5D
  3
C2
350
5E
  3
C3
350
5F
  3
C4
350
60
  3
C5
350
61
  3
C6
350
62
  3
C7
350
63
  3
C8
350
64
  3
C9
350
65
  3
D0
350
66
  3
D1
350
67
  3
D2
350
68
  0
LAYOUT
  5
1E
102
{ACAD_REACTORS
330
1A
102
}
330
1A
100
AcDbPlotSettings
  1

  2
none_device
  4

  6

 40
0.0
 41
0.0
 42
0.0
 43
0.0
 44
0.0
 45
0.0
 46
0.0
 47
0.0
 48
0.0
 49
0.0
140
0.0
141
0.0
142
1.0
143
1.0
 70
   688
 72
     1
 73
     0
 74
     5
  7

 75
    16
147
1.0
148
0.0
149
0.0
100
AcDbLayout
  1
Layout1
 70
     1
 71
     1
 10
0.0
 20
0.0
 11
420.0
 21
297.0
 12
0.0
 22
0.0
 32
0.0
 14
1.0000000000E+20
 24
1.0000000000E+20
 34
1.0000000000E+20
 15
-1.0000000000E+20
 25
-1.0000000000E+20
 35
-1.0000000000E+20
146
0.0
 13
0.0
 23
0.0
 33
0.0
 16
1.0
 26
0.0
 36
0.0
 17
0.0
 27
1.0
 37
0.0
 76
     0
330
1B
  0
LAYOUT
  5
26
102
{ACAD_REACTORS
330
1A
102
}
330
1A
100
AcDbPlotSettings
  1

  2
none_device
  4

  6

 40
0.0
 41
0.0
 42
0.0
 43
0.0
 44
0.0
 45
0.0
 46
0.0
 47
0.0
 48
0.0
 49
0.0
140
0.0
141
0.0
142
1.0
143
1.0
 70
   688
 72
     1
 73
     0
 74
     5
  7

 75
    16
147
1.0
148
0.0
149
0.0
100
AcDbLayout
  1
Layout2
 70
     1
 71
     2
 10
0.0
 20
0.0
 11
0.0
 21
0.0
 12
0.0
 22
0.0
 32
0.0
 14
0.0
 24
0.0
 34
0.0
 15
0.0
 25
0.0
 35
0.0
146
0.0
 13
0.0
 23
0.0
 33
0.0
 16
1.0
 26
0.0
 36
0.0
 17
0.0
 27
1.0
 37
0.0
 76
     0
330
23
  0
LAYOUT
  5
22
102
{ACAD_REACTORS
330
1A
102
}
330
1A
100
AcDbPlotSettings
  1

  2
none_device
  4
ANSI_A_(11.00_x_8.50_Inches)
  6

 40
6.35
 41
19.05
 42
6.35000508
 43
19.05000254
 44
279.4
 45
215.9
 46
4.5492655211
 47
-116.6494246757
 48
0.0
 49
0.0
140
0.0
141
0.0
142
0.0175893845
143
1.0
 70
  1696
 72
     0
 73
     0
 74
     0
  7

 75
     0
147
0.0179189148
148
-1300.4909072572
149
0.0
100
AcDbLayout
  1
Model
 70
     1
 71
     0
 10
0.0
 20
0.0
 11
420.0
 21
297.0
 12
0.0
 22
0.0
 32
0.0
 14
22.2619102158
 24
220.8716842634
 34
0.0
 15
554.3239222163
 25
699.2852404392
 35
0.0
146
0.0
 13
0.0
 23
0.0
 33
0.0
 16
1.0
 26
0.0
 36
0.0
 17
0.0
 27
1.0
 37
0.0
 76
     0
330
1F
331
29
  0
MLINESTYLE
  5
18
102
{ACAD_REACTORS
330
17
102
}
330
17
100
AcDbMlineStyle
  2
Standard
 70
     0
  3

 62
   256
 51
90.0
 52
90.0
 71
     2
 49
0.5
 62
   256
  6
BYLAYER
 49
-0.5
 62
   256
  6
BYLAYER
  0
ACDBPLACEHOLDER
  5
F
102
{ACAD_REACTORS
330
E
102
}
330
E
  0
SCALE
  5
48
102
{ACAD_REACTORS
330
47
102
}
330
47
100
AcDbScale
 70
     0
300
1:1
140
1.0
141
1.0
290
     1
  0
SCALE
  5
49
102
{ACAD_REACTORS
330
47
102
}
330
47
100
AcDbScale
 70
     0
300
1:2
140
1.0
141
2.0
290
     0
  0
SCALE
  5
4A
102
{ACAD_REACTORS
330
47
102
}
330
47
100
AcDbScale
 70
     0
300
1:4
140
1.0
141
4.0
290
     0
  0
SCALE
  5
4B
102
{ACAD_REACTORS
330
47
102
}
330
47
100
AcDbScale
 70
     0
300
1:5
140
1.0
141
5.0
290
     0
  0
SCALE
  5
4C
102
{ACAD_REACTORS
330
47
102
}
330
47
100
AcDbScale
 70
     0
300
1:8
140
1.0
141
8.0
290
     0
  0
SCALE
  5
4D
102
{ACAD_REACTORS
330
47
102
}
330
47
100
AcDbScale
 70
     0
300
1:10
140
1.0
141
10.0
290
     0
  0
SCALE
  5
4E
102
{ACAD_REACTORS
330
47
102
}
330
47
100
AcDbScale
 70
     0
300
1:16
140
1.0
141
16.0
290
     0
  0
SCALE
  5
4F
102
{ACAD_REACTORS
330
47
102
}
330
47
100
AcDbScale
 70
     0
300
1:20
140
1.0
141
20.0
290
     0
  0
SCALE
  5
50
102
{ACAD_REACTORS
330
47
102
}
330
47
100
AcDbScale
 70
     0
300
1:30
140
1.0
141
30.0
290
     0
  0
SCALE
  5
51
102
{ACAD_REACTORS
330
47
102
}
330
47
100
AcDbScale
 70
     0
300
1:40
140
1.0
141
40.0
290
     0
  0
SCALE
  5
52
102
{ACAD_REACTORS
330
47
102
}
330
47
100
AcDbScale
 70
     0
300
1:50
140
1.0
141
50.0
290
     0
  0
SCALE
  5
53
102
{ACAD_REACTORS
330
47
102
}
330
47
100
AcDbScale
 70
     0
300
1:100
140
1.0
141
100.0
290
     0
  0
SCALE
  5
54
102
{ACAD_REACTORS
330
47
102
}
330
47
100
AcDbScale
 70
     0
300
2:1
140
2.0
141
1.0
290
     0
  0
SCALE
  5
55
102
{ACAD_REACTORS
330
47
102
}
330
47
100
AcDbScale
 70
     0
300
4:1
140
4.0
141
1.0
290
     0
  0
SCALE
  5
56
102
{ACAD_REACTORS
330
47
102
}
330
47
100
AcDbScale
 70
     0
300
8:1
140
8.0
141
1.0
290
     0
  0
SCALE
  5
57
102
{ACAD_REACTORS
330
47
102
}
330
47
100
AcDbScale
 70
     0
300
10:1
140
10.0
141
1.0
290
     0
  0
SCALE
  5
58
102
{ACAD_REACTORS
330
47
102
}
330
47
100
AcDbScale
 70
     0
300
100:1
140
100.0
141
1.0
290
     0
  0
SCALE
  5
59
102
{ACAD_REACTORS
330
47
102
}
330
47
100
AcDbScale
 70
     0
300
1/128" = 1'-0"
140
0.0078125
141
12.0
290
     0
  0
SCALE
  5
5A
102
{ACAD_REACTORS
330
47
102
}
330
47
100
AcDbScale
 70
     0
300
1/64" = 1'-0"
140
0.015625
141
12.0
290
     0
  0
SCALE
  5
5B
102
{ACAD_REACTORS
330
47
102
}
330
47
100
AcDbScale
 70
     0
300
1/32" = 1'-0"
140
0.03125
141
12.0
290
     0
  0
SCALE
  5
5C
102
{ACAD_REACTORS
330
47
102
}
330
47
100
AcDbScale
 70
     0
300
1/16" = 1'-0"
140
0.0625
141
12.0
290
     0
  0
SCALE
  5
5D
102
{ACAD_REACTORS
330
47
102
}
330
47
100
AcDbScale
 70
     0
300
3/32" = 1'-0"
140
0.09375
141
12.0
290
     0
  0
SCALE
  5
5E
102
{ACAD_REACTORS
330
47
102
}
330
47
100
AcDbScale
 70
     0
300
1/8" = 1'-0"
140
0.125
141
12.0
290
     0
  0
SCALE
  5
5F
102
{ACAD_REACTORS
330
47
102
}
330
47
100
AcDbScale
 70
     0
300
3/16" = 1'-0"
140
0.1875
141
12.0
290
     0
  0
SCALE
  5
60
102
{ACAD_REACTORS
330
47
102
}
330
47
100
AcDbScale
 70
     0
300
1/4" = 1'-0"
140
0.25
141
12.0
290
     0
  0
SCALE
  5
61
102
{ACAD_REACTORS
330
47
102
}
330
47
100
AcDbScale
 70
     0
300
3/8" = 1'-0"
140
0.375
141
12.0
290
     0
  0
SCALE
  5
62
102
{ACAD_REACTORS
330
47
102
}
330
47
100
AcDbScale
 70
     0
300
1/2" = 1'-0"
140
0.5
141
12.0
290
     0
  0
SCALE
  5
63
102
{ACAD_REACTORS
330
47
102
}
330
47
100
AcDbScale
 70
     0
300
3/4" = 1'-0"
140
0.75
141
12.0
290
     0
  0
SCALE
  5
64
102
{ACAD_REACTORS
330
47
102
}
330
47
100
AcDbScale
 70
     0
300
1" = 1'-0"
140
1.0
141
12.0
290
     0
  0
SCALE
  5
65
102
{ACAD_REACTORS
330
47
102
}
330
47
100
AcDbScale
 70
     0
300
1-1/2" = 1'-0"
140
1.5
141
12.0
290
     0
  0
SCALE
  5
66
102
{ACAD_REACTORS
330
47
102
}
330
47
100
AcDbScale
 70
     0
300
3" = 1'-0"
140
3.0
141
12.0
290
     0
  0
SCALE
  5
67
102
{ACAD_REACTORS
330
47
102
}
330
47
100
AcDbScale
 70
     0
300
6" = 1'-0"
140
6.0
141
12.0
290
     0
  0
SCALE
  5
68
102
{ACAD_REACTORS
330
47
102
}
330
47
100
AcDbScale
 70
     0
300
1'-0" = 1'-0"
140
12.0
141
12.0
290
     0
  0
ENDSEC
  0
EOF
